  0
SECTION
  2
HEADER
  9
$ACADVER
  1
AC1014
  9
$ACADMAINTVER
 70
     9
  9
$DWGCODEPAGE
  3
ANSI_1252
  9
$INSBASE
 10
0.0
 20
0.0
 30
0.0
  9
$EXTMIN
 10
0.0
 20
0.0
 30
0.0
  9
$EXTMAX
 10
96.062992126
 20
48.031496063
 30
0.0
  9
$LIMMIN
 10
0.0
 20
0.0
  9
$LIMMAX
 10
96.062992126
 20
48.031496063
  9
$ORTHOMODE
 70
     0
  9
$REGENMODE
 70
     1
  9
$FILLMODE
 70
     1
  9
$QTEXTMODE
 70
     0
  9
$MIRRTEXT
 70
     1
  9
$DRAGMODE
 70
     2
  9
$LTSCALE
 40
1.0
  9
$OSMODE
 70
    37
  9
$ATTMODE
 70
     1
  9
$TEXTSIZE
 40
0.1377952756
  9
$TRACEWID
 40
0.05
  9
$TEXTSTYLE
  7
STANDARD
  9
$CLAYER
  8
0
  9
$CELTYPE
  6
BYLAYER
  9
$CECOLOR
 62
   256
  9
$CELTSCALE
 40
1.0
  9
$DELOBJ
 70
     1
  9
$DISPSILH
 70
     0
  9
$DIMSCALE
 40
1.0
  9
$DIMASZ
 40
0.13
  9
$DIMEXO
 40
0.0393700787
  9
$DIMDLI
 40
0.38
  9
$DIMRND
 40
0.0
  9
$DIMDLE
 40
0.0
  9
$DIMEXE
 40
0.0393700787
  9
$DIMTP
 40
0.0
  9
$DIMTM
 40
0.0
  9
$DIMTXT
 40
0.1805555556
  9
$DIMCEN
 40
0.09
  9
$DIMTSZ
 40
0.0
  9
$DIMTOL
 70
     0
  9
$DIMLIM
 70
     0
  9
$DIMTIH
 70
     1
  9
$DIMTOH
 70
     1
  9
$DIMSE1
 70
     0
  9
$DIMSE2
 70
     0
  9
$DIMTAD
 70
     1
  9
$DIMZIN
 70
     0
  9
$DIMBLK
  1

  9
$DIMASO
 70
     1
  9
$DIMSHO
 70
     1
  9
$DIMPOST
  1

  9
$DIMAPOST
  1

  9
$DIMALT
 70
     0
  9
$DIMALTD
 70
     2
  9
$DIMALTF
 40
25.4
  9
$DIMLFAC
 40
1.0
  9
$DIMTOFL
 70
     0
  9
$DIMTVP
 40
0.0
  9
$DIMTIX
 70
     0
  9
$DIMSOXD
 70
     0
  9
$DIMSAH
 70
     0
  9
$DIMBLK1
  1

  9
$DIMBLK2
  1

  9
$DIMSTYLE
  2
STANDARD
  9
$DIMCLRD
 70
     0
  9
$DIMCLRE
 70
     0
  9
$DIMCLRT
 70
     0
  9
$DIMTFAC
 40
1.0
  9
$DIMGAP
 40
0.06
  9
$DIMJUST
 70
     0
  9
$DIMSD1
 70
     0
  9
$DIMSD2
 70
     0
  9
$DIMTOLJ
 70
     1
  9
$DIMTZIN
 70
     0
  9
$DIMALTZ
 70
     0
  9
$DIMALTTZ
 70
     0
  9
$DIMFIT
 70
     3
  9
$DIMUPT
 70
     0
  9
$DIMUNIT
 70
     2
  9
$DIMDEC
 70
     2
  9
$DIMTDEC
 70
     2
  9
$DIMALTU
 70
     2
  9
$DIMALTTD
 70
     2
  9
$DIMTXSTY
  7
STANDARD
  9
$DIMAUNIT
 70
     0
  9
$LUNITS
 70
     2
  9
$LUPREC
 70
     2
  9
$SKETCHINC
 40
0.1
  9
$FILLETRAD
 40
0.5
  9
$AUNITS
 70
     0
  9
$AUPREC
 70
     2
  9
$MENU
  1
.
  9
$ELEVATION
 40
0.0
  9
$PELEVATION
 40
0.0
  9
$THICKNESS
 40
0.0
  9
$LIMCHECK
 70
     0
  9
$CHAMFERA
 40
0.0
  9
$CHAMFERB
 40
0.0
  9
$CHAMFERC
 40
0.0
  9
$CHAMFERD
 40
0.0
  9
$SKPOLY
 70
     0
  9
$TDCREATE
 40
2457722.415039201
  9
$TDUPDATE
 40
2457722.41503956
  9
$TDINDWG
 40
0.0000000116
  9
$TDUSRTIMER
 40
0.0000000116
  9
$USRTIMER
 70
     1
  9
$ANGBASE
 50
0.0
  9
$ANGDIR
 70
     0
  9
$PDMODE
 70
     0
  9
$PDSIZE
 40
-1.0
  9
$PLINEWID
 40
0.0
  9
$COORDS
 70
     1
  9
$SPLFRAME
 70
     0
  9
$SPLINETYPE
 70
     6
  9
$SPLINESEGS
 70
     8
  9
$ATTDIA
 70
     0
  9
$ATTREQ
 70
     1
  9
$HANDLING
 70
     1
  9
$HANDSEED
  5
395
  9
$SURFTAB1
 70
     6
  9
$SURFTAB2
 70
     6
  9
$SURFTYPE
 70
     6
  9
$SURFU
 70
     6
  9
$SURFV
 70
     6
  9
$UCSNAME
  2

  9
$UCSORG
 10
0.0
 20
0.0
 30
0.0
  9
$UCSXDIR
 10
1.0
 20
0.0
 30
0.0
  9
$UCSYDIR
 10
0.0
 20
1.0
 30
0.0
  9
$PUCSNAME
  2

  9
$PUCSORG
 10
0.0
 20
0.0
 30
0.0
  9
$PUCSXDIR
 10
1.0
 20
0.0
 30
0.0
  9
$PUCSYDIR
 10
0.0
 20
1.0
 30
0.0
  9
$USERI1
 70
     0
  9
$USERI2
 70
     0
  9
$USERI3
 70
     0
  9
$USERI4
 70
     0
  9
$USERI5
 70
     0
  9
$USERR1
 40
0.0
  9
$USERR2
 40
0.0
  9
$USERR3
 40
0.0
  9
$USERR4
 40
0.0
  9
$USERR5
 40
0.0
  9
$WORLDVIEW
 70
     1
  9
$SHADEDGE
 70
     3
  9
$SHADEDIF
 70
    70
  9
$TILEMODE
 70
     1
  9
$MAXACTVP
 70
    64
  9
$PINSBASE
 10
0.0
 20
0.0
 30
0.0
  9
$PLIMCHECK
 70
     0
  9
$PEXTMIN
 10
1.0000000000E+20
 20
1.0000000000E+20
 30
1.0000000000E+20
  9
$PEXTMAX
 10
-1.0000000000E+20
 20
-1.0000000000E+20
 30
-1.0000000000E+20
  9
$PLIMMIN
 10
0.0
 20
0.0
  9
$PLIMMAX
 10
12.0
 20
9.0
  9
$UNITMODE
 70
     0
  9
$VISRETAIN
 70
     1
  9
$PLINEGEN
 70
     0
  9
$PSLTSCALE
 70
     1
  9
$TREEDEPTH
 70
  3020
  9
$PICKSTYLE
 70
     1
  9
$CMLSTYLE
  2
STANDARD
  9
$CMLJUST
 70
     0
  9
$CMLSCALE
 40
1.0
  9
$PROXYGRAPHICS
 70
     1
  9
$MEASUREMENT
 70
     0
  0
ENDSEC
  0
SECTION
  2
CLASSES
  0
CLASS
  1
ACDBDICTIONARYWDFLT
  2
AcDbDictionaryWithDefault
  3
ObjectDBX Classes
 90
        0
280
     0
281
     0
  0
CLASS
  1
VISUALSTYLE
  2
AcDbVisualStyle
  3
ObjectDBX Classes
 90
     4095
280
     0
281
     0
  0
CLASS
  1
MATERIAL
  2
AcDbMaterial
  3
ObjectDBX Classes
 90
     1153
280
     0
281
     0
  0
CLASS
  1
SCALE
  2
AcDbScale
  3
ObjectDBX Classes
 90
     1153
280
     0
281
     0
  0
CLASS
  1
TABLESTYLE
  2
AcDbTableStyle
  3
ObjectDBX Classes
 90
     4095
280
     0
281
     0
  0
CLASS
  1
MLEADERSTYLE
  2
AcDbMLeaderStyle
  3
ACDB_MLEADERSTYLE_CLASS
 90
     4095
280
     0
281
     0
  0
CLASS
  1
SUN
  2
AcDbSun
  3
SCENEOE
 90
     1153
280
     0
281
     0
  0
CLASS
  1
XRECORD
  2
AcDbXrecord
  3
ObjectDBX Classes
 90
        0
280
     0
281
     0
  0
CLASS
  1
LWPOLYLINE
  2
AcDbPolyline
  3
ObjectDBX Classes
 90
        0
280
     0
281
     1
  0
CLASS
  1
HATCH
  2
AcDbHatch
  3
ObjectDBX Classes
 90
        0
280
     0
281
     1
  0
ENDSEC
  0
SECTION
  2
TABLES
  0
TABLE
  2
VPORT
  5
8
330
0
100
AcDbSymbolTable
 70
     1
  0
VPORT
  5
29
330
8
100
AcDbSymbolTableRecord
100
AcDbViewportTableRecord
  2
*ACTIVE
 70
     0
 10
0.0
 20
0.0
 11
1.0
 21
1.0
 12
48.031496063
 22
24.0157480315
 13
0.0
 23
0.0
 14
0.5
 24
0.5
 15
0.5
 25
0.5
 16
0.0
 26
0.0
 36
1.0
 17
0.0
 27
0.0
 37
0.0
 40
48.031496063
 41
2.0
 42
50.0
 43
0.0
 44
0.0
 50
0.0
 51
0.0
 71
     0
 72
  2000
 73
     1
 74
     3
 75
     0
 76
     0
 77
     0
 78
     0
  0
ENDTAB
  0
TABLE
  2
LTYPE
  5
5
330
0
100
AcDbSymbolTable
 70
     6
  0
LTYPE
  5
14
330
5
100
AcDbSymbolTableRecord
100
AcDbLinetypeTableRecord
  2
BYBLOCK
 70
     0
  3

 72
    65
 73
     0
 40
0.0
  0
LTYPE
  5
15
330
5
100
AcDbSymbolTableRecord
100
AcDbLinetypeTableRecord
  2
BYLAYER
 70
     0
  3

 72
    65
 73
     0
 40
0.0
  0
LTYPE
  5
16
330
5
100
AcDbSymbolTableRecord
100
AcDbLinetypeTableRecord
  2
CONTINUOUS
 70
     0
  3
Solid line
 72
    65
 73
     0
 40
0.0
  0
LTYPE
  5
6E
330
5
100
AcDbSymbolTableRecord
100
AcDbLinetypeTableRecord
  2
HIDDEN
 70
     0
  3
Hidden __ __ __ __ __ __ __ __ __ __ __ __ __ __
 72
    65
 73
     2
 40
0.075
 49
0.05
 74
     0
 49
-0.025
 74
     0
  0
LTYPE
  5
6F
330
5
100
AcDbSymbolTableRecord
100
AcDbLinetypeTableRecord
  2
PHANTOM
 70
     0
  3
Phantom ______  __  __  ______  __  __  ______
 72
    65
 73
     6
 40
0.5
 49
0.25
 74
     0
 49
-0.05
 74
     0
 49
0.05
 74
     0
 49
-0.05
 74
     0
 49
0.05
 74
     0
 49
-0.05
 74
     0
  0
LTYPE
  5
70
330
5
100
AcDbSymbolTableRecord
100
AcDbLinetypeTableRecord
  2
CENTER
 70
     0
  3
Center ____ _ ____ _ ____ _ ____ _ ____ _ ____
 72
    65
 73
     4
 40
0.4
 49
0.25
 74
     0
 49
-0.05
 74
     0
 49
0.05
 74
     0
 49
-0.05
 74
     0
  0
LTYPE
  5
71
330
5
100
AcDbSymbolTableRecord
100
AcDbLinetypeTableRecord
  2
CENTERX2
 70
     0
  3
Center (2x) ________  __  ________  __  _____
 72
    65
 73
     4
 40
0.8
 49
0.5
 74
     0
 49
-0.1
 74
     0
 49
0.1
 74
     0
 49
-0.1
 74
     0
  0
LTYPE
  5
72
330
5
100
AcDbSymbolTableRecord
100
AcDbLinetypeTableRecord
  2
DOT2
 70
     0
  3
Dot (.5x) ........................................
 72
    65
 73
     2
 40
0.025
 49
0.0
 74
     0
 49
-0.025
 74
     0
  0
ENDTAB
  0
TABLE
  2
LAYER
  5
2
330
0
100
AcDbSymbolTable
 70
     6
  0
LAYER
  5
10
330
2
100
AcDbSymbolTableRecord
100
AcDbLayerTableRecord
  2
0
 70
     0
 62
     7
  6
CONTINUOUS
  0
LAYER
  5
73
330
2
100
AcDbSymbolTableRecord
100
AcDbLayerTableRecord
  2
BOX_STOCK
 70
     0
 62
     1
  6
CONTINUOUS
  0
LAYER
  5
74
330
2
100
AcDbSymbolTableRecord
100
AcDbLayerTableRecord
  2
HOLES
 70
     0
 62
    30
  6
CONTINUOUS
  0
LAYER
  5
75
330
2
100
AcDbSymbolTableRecord
100
AcDbLayerTableRecord
  2
POCKETS
 70
     0
 62
   171
  6
CONTINUOUS
  0
LAYER
  5
76
330
2
100
AcDbSymbolTableRecord
100
AcDbLayerTableRecord
  2
PROFILES_OUTSIDE
 70
     0
 62
     6
  6
CONTINUOUS
  0
LAYER
  5
77
330
2
100
AcDbSymbolTableRecord
100
AcDbLayerTableRecord
  2
PROFILES_INSIDE
 70
     0
 62
     4
  6
CONTINUOUS
  0
ENDTAB
  0
TABLE
  2
STYLE
  5
3
330
0
100
AcDbSymbolTable
 70
     1
  0
STYLE
  5
11
330
3
100
AcDbSymbolTableRecord
100
AcDbTextStyleTableRecord
  2
STANDARD
 70
     0
 40
0.0
 41
1.0
 50
0.0
 71
     0
 42
0.1377952756
  3
txt
  4

  0
ENDTAB
  0
TABLE
  2
VIEW
  5
6
330
0
100
AcDbSymbolTable
 70
     0
  0
ENDTAB
  0
TABLE
  2
UCS
  5
7
330
0
100
AcDbSymbolTable
 70
     0
  0
ENDTAB
  0
TABLE
  2
APPID
  5
9
330
0
100
AcDbSymbolTable
 70
     1
  0
APPID
  5
12
330
9
100
AcDbSymbolTableRecord
100
AcDbRegAppTableRecord
  2
ACAD
 70
     0
  0
ENDTAB
  0
TABLE
  2
DIMSTYLE
  5
A
330
0
100
AcDbSymbolTable
 70
     1
  0
DIMSTYLE
105
27
330
A
100
AcDbSymbolTableRecord
100
AcDbDimStyleTableRecord
  2
STANDARD
 70
     0
  3

  4

  5

  6

  7

 40
1.0
 41
0.18
 42
0.0625
 43
0.38
 44
0.18
 45
0.0
 46
0.0
 47
0.0
 48
0.0
140
0.18
141
0.09
142
0.0
143
25.4
144
1.0
145
0.0
146
1.0
147
0.09
 71
     0
 72
     0
 73
     1
 74
     1
 75
     0
 76
     0
 77
     0
 78
     0
170
     0
171
     2
172
     0
173
     0
174
     0
175
     0
176
     0
177
     0
178
     0
270
     2
271
     4
272
     4
273
     2
274
     2
340
11
275
     0
280
     0
281
     0
282
     0
283
     1
284
     0
285
     0
286
     0
287
     3
288
     0
  0
ENDTAB
  0
TABLE
  2
BLOCK_RECORD
  5
1
330
0
100
AcDbSymbolTable
 70
     1
  0
BLOCK_RECORD
  5
1F
330
1
100
AcDbSymbolTableRecord
100
AcDbBlockTableRecord
  2
*MODEL_SPACE
  0
BLOCK_RECORD
  5
1B
330
1
100
AcDbSymbolTableRecord
100
AcDbBlockTableRecord
  2
*PAPER_SPACE
  0
BLOCK_RECORD
  5
23
330
1
100
AcDbSymbolTableRecord
100
AcDbBlockTableRecord
  2
*PAPER_SPACE0
  0
ENDTAB
  0
ENDSEC
  0
SECTION
  2
BLOCKS
  0
BLOCK
  5
20
330
1F
100
AcDbEntity
  8
0
100
AcDbBlockBegin
  2
*MODEL_SPACE
 70
     0
 10
0.0
 20
0.0
 30
0.0
  3
*MODEL_SPACE
  1

  0
ENDBLK
  5
21
330
1F
100
AcDbEntity
  8
0
100
AcDbBlockEnd
  0
BLOCK
  5
1C
330
1B
100
AcDbEntity
 67
     1
  8
0
100
AcDbBlockBegin
  2
*PAPER_SPACE
 70
     0
 10
0.0
 20
0.0
 30
0.0
  3
*PAPER_SPACE
  1

  0
ENDBLK
  5
1D
330
1B
100
AcDbEntity
 67
     1
  8
0
100
AcDbBlockEnd
  0
BLOCK
  5
24
330
23
100
AcDbEntity
  8
0
100
AcDbBlockBegin
  2
*PAPER_SPACE0
 70
     0
 10
0.0
 20
0.0
 30
0.0
  3
*PAPER_SPACE0
  1

  0
ENDBLK
  5
25
330
23
100
AcDbEntity
  8
0
100
AcDbBlockEnd
  0
ENDSEC
  0
SECTION
  2
ENTITIES
  0
ARC
  5
78
330
1F
100
AcDbEntity
  8
0
  6
CONTINUOUS
 62
     7
100
AcDbCircle
 10
1.257806302
 20
42.5909865765
 30
0.0
 40
0.2362204724409451
100
AcDbArc
 50
85.0
 51
180.0
  0
ARC
  5
79
330
1F
100
AcDbEntity
  8
0
  6
CONTINUOUS
 62
     7
100
AcDbCircle
 10
11.1382558737
 20
40.6455034936
 30
0.0
 40
0.2035433070866176
100
AcDbArc
 50
351.0551903544
 51
19.8879035534
  0
ARC
  5
7A
330
1F
100
AcDbEntity
  8
0
  6
CONTINUOUS
 62
     7
100
AcDbCircle
 10
11.3666818975
 20
40.7281380185
 30
0.0
 40
0.0393700787401581
100
AcDbArc
 50
175.0
 51
199.8879035534
  0
LINE
  5
7B
330
1F
100
AcDbEntity
  8
0
  6
CONTINUOUS
 62
     7
100
AcDbLine
 10
11.3702345076
 20
41.2204662709
 30
0.0
 11
11.327461135
 21
40.7315673854
 31
0.0
  0
ARC
  5
7C
330
1F
100
AcDbEntity
  8
0
  6
CONTINUOUS
 62
     7
100
AcDbCircle
 10
11.1988484943
 20
41.3380807881
 30
0.0
 40
0.2035433070866186
100
AcDbArc
 50
330.1121919354
 51
157.3995434107
  0
ARC
  5
7D
330
1F
100
AcDbEntity
  8
0
  6
CONTINUOUS
 62
     7
100
AcDbCircle
 10
10.9745891186
 20
41.4314330532
 30
0.0
 40
0.0393700787401606
100
AcDbArc
 50
265.0000489546
 51
337.3995434107
  0
LINE
  5
7E
330
1F
100
AcDbEntity
  8
0
  6
CONTINUOUS
 62
     7
100
AcDbLine
 10
10.8125650031
 20
41.40608546
 30
0.0
 11
10.9711579444
 21
41.3922121269
 31
0.0
  0
ARC
  5
7F
330
1F
100
AcDbEntity
  8
0
  6
CONTINUOUS
 62
     7
100
AcDbCircle
 10
10.8159966082
 20
41.4453079634
 30
0.0
 40
0.0393701162868484
100
AcDbArc
 50
192.6004769824
 51
265.0000489546
  0
ARC
  5
80
330
1F
100
AcDbEntity
  8
0
  6
CONTINUOUS
 62
     7
100
AcDbCircle
 10
10.5789338044
 20
41.3923160765
 30
0.0
 40
0.2035432695399211
100
AcDbArc
 50
12.6004769824
 51
199.8878378453
  0
ARC
  5
81
330
1F
100
AcDbEntity
  8
0
  6
CONTINUOUS
 62
     7
100
AcDbCircle
 10
10.3505078075
 20
41.3096818576
 30
0.0
 40
0.0393700245933036
100
AcDbArc
 50
355.0
 51
19.8878378453
  0
LINE
  5
82
330
1F
100
AcDbEntity
  8
0
  6
CONTINUOUS
 62
     7
100
AcDbLine
 10
10.3469553419
 20
40.8173511411
 30
0.0
 11
10.3897275411
 21
41.3062500266
 31
0.0
  0
ARC
  5
83
330
1F
100
AcDbEntity
  8
0
  6
CONTINUOUS
 62
     7
100
AcDbCircle
 10
10.3077347507
 20
40.8207835808
 30
0.0
 40
0.0393700787401577
100
AcDbArc
 50
330.1121195006
 51
355.0
  0
ARC
  5
84
330
1F
100
AcDbEntity
  8
0
  6
CONTINUOUS
 62
     7
100
AcDbCircle
 10
10.5183411838
 20
40.699738782
 30
0.0
 40
0.2035433070866139
100
AcDbArc
 50
150.1121195006
 51
178.9447480122
  0
LINE
  5
85
330
1F
100
AcDbEntity
  8
0
  6
CONTINUOUS
 62
     7
100
AcDbLine
 10
3.5578246772
 20
41.2946482406
 30
0.0
 11
10.314832193
 21
40.7034874964
 31
0.0
  0
ARC
  5
86
330
1F
100
AcDbEntity
  8
0
  6
CONTINUOUS
 62
     7
100
AcDbCircle
 10
3.3567567767
 20
41.3262964498
 30
0.0
 40
0.2035433070866141
100
AcDbArc
 50
351.0551903544
 51
19.8879035534
  0
ARC
  5
87
330
1F
100
AcDbEntity
  8
0
  6
CONTINUOUS
 62
     7
100
AcDbCircle
 10
3.5851828004
 20
41.4089309747
 30
0.0
 40
0.0393700787401593
100
AcDbArc
 50
175.0
 51
199.8879035534
  0
LINE
  5
88
330
1F
100
AcDbEntity
  8
0
  6
CONTINUOUS
 62
     7
100
AcDbLine
 10
3.5887354934
 20
41.9012592597
 30
0.0
 11
3.5459624142
 21
41.4123603741
 31
0.0
  0
ARC
  5
89
330
1F
100
AcDbEntity
  8
0
  6
CONTINUOUS
 62
     7
100
AcDbCircle
 10
3.62795719
 20
41.8978285183
 30
0.0
 40
0.039371470413856
100
AcDbArc
 50
150.1121919354
 51
175.0
  0
ARC
  5
8A
330
1F
100
AcDbEntity
  8
0
  6
CONTINUOUS
 62
     7
100
AcDbCircle
 10
3.4173493972
 20
42.0188737443
 30
0.0
 40
0.2035433070866157
100
AcDbArc
 50
330.1121919354
 51
157.3995434107
  0
ARC
  5
8B
330
1F
100
AcDbEntity
  8
0
  6
CONTINUOUS
 62
     7
100
AcDbCircle
 10
3.1930900215
 20
42.1122260094
 30
0.0
 40
0.0393700787401607
100
AcDbArc
 50
265.0000489546
 51
337.3995434107
  0
LINE
  5
8C
330
1F
100
AcDbEntity
  8
0
  6
CONTINUOUS
 62
     7
100
AcDbLine
 10
3.0310662823
 20
42.0868784487
 30
0.0
 11
3.1896586369
 21
42.0730051157
 31
0.0
  0
ARC
  5
8D
330
1F
100
AcDbEntity
  8
0
  6
CONTINUOUS
 62
     7
100
AcDbCircle
 10
3.0344975111
 20
42.1261009197
 30
0.0
 40
0.0393701162868508
100
AcDbArc
 50
192.6004769824
 51
265.0000489546
  0
ARC
  5
8E
330
1F
100
AcDbEntity
  8
0
  6
CONTINUOUS
 62
     7
100
AcDbCircle
 10
2.7974347074
 20
42.0731090328
 30
0.0
 40
0.203543269539918
100
AcDbArc
 50
12.6004769824
 51
199.8878378453
  0
ARC
  5
8F
330
1F
100
AcDbEntity
  8
0
  6
CONTINUOUS
 62
     7
100
AcDbCircle
 10
2.5690087104
 20
41.9904748138
 30
0.0
 40
0.0393700245933021
100
AcDbArc
 50
355.0
 51
19.8878378453
  0
LINE
  5
90
330
1F
100
AcDbEntity
  8
0
  6
CONTINUOUS
 62
     7
100
AcDbLine
 10
2.5654560344
 20
41.4981441298
 30
0.0
 11
2.6082288203
 21
41.9870430154
 31
0.0
  0
ARC
  5
91
330
1F
100
AcDbEntity
  8
0
  6
CONTINUOUS
 62
     7
100
AcDbCircle
 10
2.5262356536
 20
41.5015765371
 30
0.0
 40
0.0393700787401579
100
AcDbArc
 50
330.1121195006
 51
355.0
  0
ARC
  5
92
330
1F
100
AcDbEntity
  8
0
  6
CONTINUOUS
 62
     7
100
AcDbCircle
 10
2.7368420868
 20
41.3805317383
 30
0.0
 40
0.203543307086612
100
AcDbArc
 50
150.1121195006
 51
178.9447480122
  0
LINE
  5
93
330
1F
100
AcDbEntity
  8
0
  6
CONTINUOUS
 62
     7
100
AcDbLine
 10
1.0215858094
 20
41.516541784
 30
0.0
 11
2.5333331789
 21
41.3842804852
 31
0.0
  0
LINE
  5
94
330
1F
100
AcDbEntity
  8
0
  6
CONTINUOUS
 62
     7
100
AcDbLine
 10
1.0215858094
 20
41.516541784
 30
0.0
 11
1.0215858094
 21
42.5909882519
 31
0.0
  0
ARC
  5
95
330
1F
100
AcDbEntity
  8
0
  6
CONTINUOUS
 62
     7
100
AcDbCircle
 10
11.4094562871
 20
41.2170355621
 30
0.0
 40
0.039371470413856
100
AcDbArc
 50
150.1121919354
 51
175.0
  0
ARC
  5
96
330
1F
100
AcDbEntity
  8
0
  6
CONTINUOUS
 62
     7
100
AcDbCircle
 10
12.1652866169
 20
41.6367057013
 30
0.0
 40
0.2362204724409457
100
AcDbArc
 50
0.0
 51
85.0
  0
LINE
  5
97
330
1F
100
AcDbEntity
  8
0
  6
CONTINUOUS
 62
     7
100
AcDbLine
 10
11.339323398
 20
40.6138552519
 30
0.0
 11
12.4015075009
 21
40.5209283254
 31
0.0
  0
LINE
  5
98
330
1F
100
AcDbEntity
  8
0
  6
CONTINUOUS
 62
     7
100
AcDbLine
 10
1.2783943427
 20
42.8263092668
 30
0.0
 11
12.1858747919
 21
41.8720295173
 31
0.0
  0
LINE
  5
99
330
1F
100
AcDbEntity
  8
0
  6
CONTINUOUS
 62
     7
100
AcDbLine
 10
12.4015075009
 20
41.6367038092
 30
0.0
 11
12.4015075009
 21
40.5209283254
 31
0.0
  0
ARC
  5
9A
330
1F
100
AcDbEntity
  8
0
  6
CONTINUOUS
 62
     7
100
AcDbCircle
 10
12.1652866169
 20
38.9017680962
 30
0.0
 40
0.2362204724409445
100
AcDbArc
 50
280.0
 51
0.0
  0
LINE
  5
9B
330
1F
100
AcDbEntity
  8
0
  6
CONTINUOUS
 62
     7
100
AcDbLine
 10
11.8093071953
 20
38.5991337795
 30
0.0
 11
12.2063058092
 21
38.6691363841
 31
0.0
  0
ARC
  5
9C
330
1F
100
AcDbEntity
  8
0
  6
CONTINUOUS
 62
     7
100
AcDbCircle
 10
11.850325987
 20
5.7227635304
 30
0.0
 40
0.2362204724409445
100
AcDbArc
 50
180.0
 51
260.0
  0
LINE
  5
9D
330
1F
100
AcDbEntity
  8
0
  6
CONTINUOUS
 62
     7
100
AcDbLine
 10
12.2063058092
 20
5.4201302395
 30
0.0
 11
11.8093071953
 21
5.4901316708
 31
0.0
  0
ARC
  5
9E
330
1F
100
AcDbEntity
  8
0
  6
CONTINUOUS
 62
     7
100
AcDbCircle
 10
12.1652866169
 20
5.1874983655
 30
0.0
 40
0.2362204724409445
100
AcDbArc
 50
0.0
 51
80.0
  0
LINE
  5
9F
330
1F
100
AcDbEntity
  8
0
  6
CONTINUOUS
 62
     7
100
AcDbLine
 10
10.8267035065
 20
39.878967528
 30
0.0
 11
10.8267035065
 21
4.2103008555
 31
0.0
  0
LINE
  5
A0
330
1F
100
AcDbEntity
  8
0
  6
CONTINUOUS
 62
     7
100
AcDbLine
 10
11.6141055037
 20
5.7227634368
 30
0.0
 11
11.6141055037
 21
38.3665020135
 31
0.0
  0
LINE
  5
A1
330
1F
100
AcDbEntity
  8
0
  6
CONTINUOUS
 62
     7
100
AcDbLine
 10
10.8267035065
 20
4.2103008555
 30
0.0
 11
12.4015075009
 21
4.3480782239
 31
0.0
  0
LINE
  5
A2
330
1F
100
AcDbEntity
  8
0
  6
CONTINUOUS
 62
     7
100
AcDbLine
 10
12.4015075009
 20
39.741186933
 30
0.0
 11
10.8267035065
 21
39.878967528
 31
0.0
  0
LINE
  5
A3
330
1F
100
AcDbEntity
  8
0
  6
CONTINUOUS
 62
     7
100
AcDbLine
 10
12.4015075009
 20
5.1874984735
 30
0.0
 11
12.4015075009
 21
4.3480782239
 31
0.0
  0
ARC
  5
A4
330
1F
100
AcDbEntity
  8
0
  6
CONTINUOUS
 62
     7
100
AcDbCircle
 10
11.850325987
 20
38.3665029313
 30
0.0
 40
0.2362204724409462
100
AcDbArc
 50
100.0
 51
180.0
  0
LINE
  5
A5
330
1F
100
AcDbEntity
  8
0
  6
CONTINUOUS
 62
     7
100
AcDbLine
 10
12.4015075009
 20
39.741186933
 30
0.0
 11
12.4015075009
 21
38.9017681501
 31
0.0
  0
ARC
  5
A6
330
1F
100
AcDbEntity
  8
0
  6
CONTINUOUS
 62
     7
100
AcDbCircle
 10
12.1652866169
 20
2.4525607605
 30
0.0
 40
0.2362204724409445
100
AcDbArc
 50
275.0
 51
0.0
  0
ARC
  5
A7
330
1F
100
AcDbEntity
  8
0
  6
CONTINUOUS
 62
     7
100
AcDbCircle
 10
1.257806302
 20
1.4982798853
 30
0.0
 40
0.2362204724409517
100
AcDbArc
 50
180.0
 51
275.0
  0
LINE
  5
A8
330
1F
100
AcDbEntity
  8
0
  6
CONTINUOUS
 62
     7
100
AcDbLine
 10
1.0215858094
 20
1.4982798383
 30
0.0
 11
1.0215858094
 21
2.5727254263
 31
0.0
  0
LINE
  5
A9
330
1F
100
AcDbEntity
  8
0
  6
CONTINUOUS
 62
     7
100
AcDbLine
 10
2.5333331789
 20
2.7049861384
 30
0.0
 11
1.0215858094
 21
2.5727254263
 31
0.0
  0
ARC
  5
AA
330
1F
100
AcDbEntity
  8
0
  6
CONTINUOUS
 62
     7
100
AcDbCircle
 10
2.7368420648
 20
2.7087345023
 30
0.0
 40
0.2035432695399225
100
AcDbArc
 50
181.0551896256
 51
209.8878378453
  0
ARC
  5
AB
330
1F
100
AcDbEntity
  8
0
  6
CONTINUOUS
 62
     7
100
AcDbCircle
 10
2.5262356536
 20
2.5876899247
 30
0.0
 40
0.0393700245933002
100
AcDbArc
 50
5.0
 51
29.8878378453
  0
LINE
  5
AC
330
1F
100
AcDbEntity
  8
0
  6
CONTINUOUS
 62
     7
100
AcDbLine
 10
2.6082291137
 20
2.1022230215
 30
0.0
 11
2.5654557411
 21
2.5911213204
 31
0.0
  0
ARC
  5
AD
330
1F
100
AcDbEntity
  8
0
  6
CONTINUOUS
 62
     7
100
AcDbCircle
 10
2.5690087104
 20
2.0987916479
 30
0.0
 40
0.0393700787401579
100
AcDbArc
 50
340.1121195006
 51
5.0
  0
ARC
  5
AE
330
1F
100
AcDbEntity
  8
0
  6
CONTINUOUS
 62
     7
100
AcDbCircle
 10
2.7974347674
 20
2.0161572149
 30
0.0
 40
0.2035433070866141
100
AcDbArc
 50
160.1121195006
 51
347.3995434107
  0
ARC
  5
AF
330
1F
100
AcDbEntity
  8
0
  6
CONTINUOUS
 62
     7
100
AcDbCircle
 10
3.03449759
 20
1.9631654124
 30
0.0
 40
0.0393700787401557
100
AcDbArc
 50
95.0000489546
 51
167.3995434107
  0
LINE
  5
B0
330
1F
100
AcDbEntity
  8
0
  6
CONTINUOUS
 62
     7
100
AcDbLine
 10
3.1896586369
 20
2.0162609213
 30
0.0
 11
3.0310662823
 21
2.0023856815
 31
0.0
  0
ARC
  5
B1
330
1F
100
AcDbEntity
  8
0
  6
CONTINUOUS
 62
     7
100
AcDbCircle
 10
3.1930900767
 20
1.9770405937
 30
0.0
 40
0.039370078740156
100
AcDbArc
 50
22.6004769824
 51
95.0000489546
  0
ARC
  5
B2
330
1F
100
AcDbEntity
  8
0
  6
CONTINUOUS
 62
     7
100
AcDbCircle
 10
3.4173494192
 20
2.0703929386
 30
0.0
 40
0.2035433070866165
100
AcDbArc
 50
202.6004769824
 51
29.8879035534
  0
ARC
  5
B3
330
1F
100
AcDbEntity
  8
0
  6
CONTINUOUS
 62
     7
100
AcDbCircle
 10
3.6279558037
 20
2.1914378221
 30
0.0
 40
0.0393700787401575
100
AcDbArc
 50
185.0
 51
209.8879035534
  0
LINE
  5
B4
330
1F
100
AcDbEntity
  8
0
  6
CONTINUOUS
 62
     7
100
AcDbLine
 10
3.5459624142
 20
2.6769041961
 30
0.0
 11
3.5887354934
 21
2.1880064839
 31
0.0
  0
ARC
  5
B5
330
1F
100
AcDbEntity
  8
0
  6
CONTINUOUS
 62
     7
100
AcDbCircle
 10
3.5851841867
 20
2.6803356083
 30
0.0
 40
0.0393714704138577
100
AcDbArc
 50
160.1121919354
 51
185.0
  0
ARC
  5
B6
330
1F
100
AcDbEntity
  8
0
  6
CONTINUOUS
 62
     7
100
AcDbCircle
 10
3.3567567166
 20
2.7629702259
 30
0.0
 40
0.2035433070866148
100
AcDbArc
 50
340.1121919354
 51
8.9447480121
  0
LINE
  5
B7
330
1F
100
AcDbEntity
  8
0
  6
CONTINUOUS
 62
     7
100
AcDbLine
 10
10.314832193
 20
3.3857791271
 30
0.0
 11
3.5578246772
 21
2.7946175029
 31
0.0
  0
ARC
  5
B8
330
1F
100
AcDbEntity
  8
0
  6
CONTINUOUS
 62
     7
100
AcDbCircle
 10
10.5183411619
 20
3.3895274585
 30
0.0
 40
0.2035432695399229
100
AcDbArc
 50
181.0551896256
 51
209.8878378453
  0
ARC
  5
B9
330
1F
100
AcDbEntity
  8
0
  6
CONTINUOUS
 62
     7
100
AcDbCircle
 10
10.3077347507
 20
3.2684828809
 30
0.0
 40
0.0393700245933028
100
AcDbArc
 50
5.0
 51
29.8878378453
  0
LINE
  5
BA
330
1F
100
AcDbEntity
  8
0
  6
CONTINUOUS
 62
     7
100
AcDbLine
 10
10.3897275411
 20
2.7830160103
 30
0.0
 11
10.3469553419
 21
3.2719143092
 31
0.0
  0
ARC
  5
BB
330
1F
100
AcDbEntity
  8
0
  6
CONTINUOUS
 62
     7
100
AcDbCircle
 10
10.3505078075
 20
2.7795846042
 30
0.0
 40
0.0393700787401562
100
AcDbArc
 50
340.1121195006
 51
5.0
  0
ARC
  5
BC
330
1F
100
AcDbEntity
  8
0
  6
CONTINUOUS
 62
     7
100
AcDbCircle
 10
10.5789338645
 20
2.6969501712
 30
0.0
 40
0.2035433070866141
100
AcDbArc
 50
160.1121195006
 51
347.3995434107
  0
ARC
  5
BD
330
1F
100
AcDbEntity
  8
0
  6
CONTINUOUS
 62
     7
100
AcDbCircle
 10
10.8159966871
 20
2.6439583687
 30
0.0
 40
0.0393700787401604
100
AcDbArc
 50
95.0000489546
 51
167.3995434107
  0
LINE
  5
BE
330
1F
100
AcDbEntity
  8
0
  6
CONTINUOUS
 62
     7
100
AcDbLine
 10
10.9711579444
 20
2.69705391
 30
0.0
 11
10.8125650031
 21
2.6831785236
 31
0.0
  0
ARC
  5
BF
330
1F
100
AcDbEntity
  8
0
  6
CONTINUOUS
 62
     7
100
AcDbCircle
 10
10.9745891737
 20
2.6578335499
 30
0.0
 40
0.0393700787401576
100
AcDbArc
 50
22.6004769824
 51
95.0000489546
  0
ARC
  5
C0
330
1F
100
AcDbEntity
  8
0
  6
CONTINUOUS
 62
     7
100
AcDbCircle
 10
11.1988485163
 20
2.7511858948
 30
0.0
 40
0.2035433070866169
100
AcDbArc
 50
202.6004769824
 51
29.8879035534
  0
ARC
  5
C1
330
1F
100
AcDbEntity
  8
0
  6
CONTINUOUS
 62
     7
100
AcDbCircle
 10
11.4094549008
 20
2.8722307784
 30
0.0
 40
0.0393700787401624
100
AcDbArc
 50
185.0
 51
209.8879035534
  0
ARC
  5
C2
330
1F
100
AcDbEntity
  8
0
  6
CONTINUOUS
 62
     7
100
AcDbCircle
 10
11.1382558137
 20
3.4437631822
 30
0.0
 40
0.2035433070866152
100
AcDbArc
 50
340.1121919354
 51
8.9447480121
  0
ARC
  5
C3
330
1F
100
AcDbEntity
  8
0
  6
CONTINUOUS
 62
     7
100
AcDbCircle
 10
11.3666832838
 20
3.3611285645
 30
0.0
 40
0.0393714704138605
100
AcDbArc
 50
160.1121919354
 51
185.0
  0
LINE
  5
C4
330
1F
100
AcDbEntity
  8
0
  6
CONTINUOUS
 62
     7
100
AcDbLine
 10
11.327461135
 20
3.3576971849
 30
0.0
 11
11.3702345076
 21
2.8687994727
 31
0.0
  0
LINE
  5
C5
330
1F
100
AcDbEntity
  8
0
  6
CONTINUOUS
 62
     7
100
AcDbLine
 10
12.4015075009
 20
3.5683394715
 30
0.0
 11
11.339323398
 21
3.4754104917
 31
0.0
  0
LINE
  5
C6
330
1F
100
AcDbEntity
  8
0
  6
CONTINUOUS
 62
     7
100
AcDbLine
 10
12.1858747919
 20
2.2172391595
 30
0.0
 11
1.2783943427
 21
1.2629583101
 31
0.0
  0
LINE
  5
C7
330
1F
100
AcDbEntity
  8
0
  6
CONTINUOUS
 62
     7
100
AcDbLine
 10
12.4015075009
 20
3.5683394715
 30
0.0
 11
12.4015075009
 21
2.4525607611
 31
0.0
  0
LINE
  5
C8
330
1F
100
AcDbEntity
  8
0
  6
CONTINUOUS
 62
     7
100
AcDbLine
 10
1.0215858094
 20
3.3524641787
 30
0.0
 11
1.0215858094
 21
40.7368003916
 31
0.0
  0
LINE
  5
C9
330
1F
100
AcDbEntity
  8
0
  6
CONTINUOUS
 62
     7
100
AcDbLine
 10
10.0633181918
 20
39.9457528899
 30
0.0
 11
1.0215858094
 21
40.7368003916
 31
0.0
  0
LINE
  5
CA
330
1F
100
AcDbEntity
  8
0
  6
CONTINUOUS
 62
     7
100
AcDbLine
 10
10.0633181918
 20
4.1435131471
 30
0.0
 11
10.0633181918
 21
39.9457528899
 31
0.0
  0
LINE
  5
CB
330
1F
100
AcDbEntity
  8
0
  6
CONTINUOUS
 62
     7
100
AcDbLine
 10
1.0215858094
 20
3.3524641787
 30
0.0
 11
10.0633181918
 21
4.1435131471
 31
0.0
  0
ARC
  5
CC
330
1F
100
AcDbEntity
  8
0
  6
CONTINUOUS
 62
     7
100
AcDbCircle
 10
10.9011929911
 20
3.4967549847
 30
0.0
 40
0.0393700787401575
100
AcDbArc
 50
275.0000489546
 51
347.3995434107
  0
LINE
  5
CD
330
1F
100
AcDbEntity
  8
0
  6
CONTINUOUS
 62
     7
100
AcDbLine
 10
10.9046248463
 20
3.4575346715
 30
0.0
 11
10.7460319051
 21
3.4436595785
 31
0.0
  0
ARC
  5
CE
330
1F
100
AcDbEntity
  8
0
  6
CONTINUOUS
 62
     7
100
AcDbCircle
 10
10.7426005044
 20
3.4828798034
 30
0.0
 40
0.0393700787401626
100
AcDbArc
 50
202.6004769824
 51
275.0000489546
  0
ARC
  5
CF
330
1F
100
AcDbEntity
  8
0
  6
CONTINUOUS
 62
     7
100
AcDbCircle
 10
3.119693894
 20
2.8159620284
 30
0.0
 40
0.0393700787401571
100
AcDbArc
 50
275.0000489546
 51
347.3995434107
  0
LINE
  5
D0
330
1F
100
AcDbEntity
  8
0
  6
CONTINUOUS
 62
     7
100
AcDbLine
 10
3.1231252455
 20
2.7767416828
 30
0.0
 11
2.9645328909
 21
2.7628665897
 31
0.0
  0
ARC
  5
D1
330
1F
100
AcDbEntity
  8
0
  6
CONTINUOUS
 62
     7
100
AcDbCircle
 10
2.9611014073
 20
2.8020868472
 30
0.0
 40
0.0393700787401572
100
AcDbArc
 50
202.6004769824
 51
275.0000489546
  0
ARC
  5
D2
330
1F
100
AcDbEntity
  8
0
  6
CONTINUOUS
 62
     7
100
AcDbCircle
 10
2.9611014625
 20
41.2871794732
 30
0.0
 40
0.039370078740154
100
AcDbArc
 50
85.0000489546
 51
157.3995434107
  0
LINE
  5
D3
330
1F
100
AcDbEntity
  8
0
  6
CONTINUOUS
 62
     7
100
AcDbLine
 10
2.9645328909
 20
41.3263982739
 30
0.0
 11
3.1231252455
 21
41.3125249408
 31
0.0
  0
ARC
  5
D4
330
1F
100
AcDbEntity
  8
0
  6
CONTINUOUS
 62
     7
100
AcDbCircle
 10
3.1196939729
 20
41.2733045629
 30
0.0
 40
0.0393700787401607
100
AcDbArc
 50
12.6004769824
 51
85.0000489546
  0
ARC
  5
D5
330
1F
100
AcDbEntity
  8
0
  6
CONTINUOUS
 62
     7
100
AcDbCircle
 10
10.7426005596
 20
40.6063865169
 30
0.0
 40
0.0393700787401551
100
AcDbArc
 50
85.0000489546
 51
157.3995434107
  0
LINE
  5
D6
330
1F
100
AcDbEntity
  8
0
  6
CONTINUOUS
 62
     7
100
AcDbLine
 10
10.7460319051
 20
40.6456052851
 30
0.0
 11
10.9046248463
 21
40.631731952
 31
0.0
  0
ARC
  5
D7
330
1F
100
AcDbEntity
  8
0
  6
CONTINUOUS
 62
     7
100
AcDbCircle
 10
10.90119307
 20
40.5925116067
 30
0.0
 40
0.0393700787401611
100
AcDbArc
 50
12.6004769824
 51
85.0000489546
  0
LINE
  5
D8
330
1F
100
AcDbEntity
  8
0
  6
CONTINUOUS
 62
     7
100
AcDbLine
 10
1.0215858094
 20
3.3524641787
 30
0.0
 11
1.0215858094
 21
2.5727254263
 31
0.0
  0
LINE
  5
D9
330
1F
100
AcDbEntity
  8
0
  6
CONTINUOUS
 62
     7
100
AcDbLine
 10
1.0215858094
 20
41.516541784
 30
0.0
 11
1.0215858094
 21
40.7368003916
 31
0.0
  0
ARC
  5
DA
330
1F
100
AcDbEntity
  8
0
  6
CONTINUOUS
 62
     7
100
AcDbCircle
 10
2.7368420868
 20
41.3805317383
 30
0.0
 40
0.2035433070866209
100
AcDbArc
 50
178.9447480122
 51
337.3995434107
  0
ARC
  5
DB
330
1F
100
AcDbEntity
  8
0
  6
CONTINUOUS
 62
     7
100
AcDbCircle
 10
3.3567567767
 20
41.3262964498
 30
0.0
 40
0.2035433070866154
100
AcDbArc
 50
192.6004769824
 51
351.0551903544
  0
ARC
  5
DC
330
1F
100
AcDbEntity
  8
0
  6
CONTINUOUS
 62
     7
100
AcDbCircle
 10
2.7368420648
 20
2.7087345023
 30
0.0
 40
0.2035433070866161
100
AcDbArc
 50
22.6004769824
 51
181.0551896256
  0
ARC
  5
DD
330
1F
100
AcDbEntity
  8
0
  6
CONTINUOUS
 62
     7
100
AcDbCircle
 10
3.3567567166
 20
2.7629702259
 30
0.0
 40
0.2035433070866169
100
AcDbArc
 50
8.9447480121
 51
167.3995434107
  0
ARC
  5
DE
330
1F
100
AcDbEntity
  8
0
  6
CONTINUOUS
 62
     7
100
AcDbCircle
 10
10.5183411838
 20
40.699738782
 30
0.0
 40
0.2035433070866164
100
AcDbArc
 50
178.9447480122
 51
337.3995434107
  0
ARC
  5
DF
330
1F
100
AcDbEntity
  8
0
  6
CONTINUOUS
 62
     7
100
AcDbCircle
 10
10.5183411619
 20
3.3895274585
 30
0.0
 40
0.203543307086612
100
AcDbArc
 50
22.6004769824
 51
181.0551896256
  0
ARC
  5
E0
330
1F
100
AcDbEntity
  8
0
  6
CONTINUOUS
 62
     7
100
AcDbCircle
 10
11.1382558737
 20
40.6455034936
 30
0.0
 40
0.2035433070866165
100
AcDbArc
 50
192.6004769824
 51
351.0551903544
  0
ARC
  5
E1
330
1F
100
AcDbEntity
  8
0
  6
CONTINUOUS
 62
     7
100
AcDbCircle
 10
11.1382558137
 20
3.4437631822
 30
0.0
 40
0.2035433070866191
100
AcDbArc
 50
8.9447480122
 51
167.3995434107
  0
LINE
  5
E2
330
1F
100
AcDbEntity
  8
0
  6
CONTINUOUS
 62
     7
100
AcDbLine
 10
12.4015075009
 20
3.5683394715
 30
0.0
 11
12.4015075009
 21
4.3480782239
 31
0.0
  0
LINE
  5
E3
330
1F
100
AcDbEntity
  8
0
  6
CONTINUOUS
 62
     7
100
AcDbLine
 10
12.4015075009
 20
39.741186933
 30
0.0
 11
12.4015075009
 21
40.5209283254
 31
0.0
  0
LINE
  5
E4
330
1F
100
AcDbEntity
  8
0
  6
CONTINUOUS
 62
     7
100
AcDbLine
 10
32.9156803327
 20
37.7606794653
 30
0.0
 11
26.2601693778
 21
37.7606794653
 31
0.0
  0
LINE
  5
E5
330
1F
100
AcDbEntity
  8
0
  6
CONTINUOUS
 62
     7
100
AcDbLine
 10
26.2601693778
 20
37.7606794653
 30
0.0
 11
26.2601693778
 21
1.1839079433
 31
0.0
  0
LINE
  5
E6
330
1F
100
AcDbEntity
  8
0
  6
CONTINUOUS
 62
     7
100
AcDbLine
 10
32.9156803327
 20
1.1839079433
 30
0.0
 11
32.9156803327
 21
37.7606794653
 31
0.0
  0
LINE
  5
E7
330
1F
100
AcDbEntity
  8
0
  6
CONTINUOUS
 62
     7
100
AcDbLine
 10
26.2601693778
 20
1.1839079433
 30
0.0
 11
32.9156803327
 21
1.1839079433
 31
0.0
  0
LINE
  5
E8
330
1F
100
AcDbEntity
  8
0
  6
CONTINUOUS
 62
     7
100
AcDbLine
 10
34.1550509754
 20
2.6991101529
 30
0.0
 11
34.1550509754
 21
1.1839079433
 31
0.0
  0
LINE
  5
E9
330
1F
100
AcDbEntity
  8
0
  6
CONTINUOUS
 62
     7
100
AcDbLine
 10
40.810564277
 20
2.6991101529
 30
0.0
 11
34.1550509754
 21
2.6991101529
 31
0.0
  0
LINE
  5
EA
330
1F
100
AcDbEntity
  8
0
  6
CONTINUOUS
 62
     7
100
AcDbLine
 10
34.1550509754
 20
1.1839079433
 30
0.0
 11
40.810564277
 21
1.1839079433
 31
0.0
  0
LINE
  5
EB
330
1F
100
AcDbEntity
  8
0
  6
CONTINUOUS
 62
     7
100
AcDbLine
 10
40.810564277
 20
1.1839079433
 30
0.0
 11
40.810564277
 21
2.6991101529
 31
0.0
  0
LINE
  5
EC
330
1F
100
AcDbEntity
  8
0
  6
CONTINUOUS
 62
     7
100
AcDbLine
 10
40.810564277
 20
12.5416820507
 30
0.0
 11
34.1550509754
 21
12.5416820507
 31
0.0
  0
LINE
  5
ED
330
1F
100
AcDbEntity
  8
0
  6
CONTINUOUS
 62
     7
100
AcDbLine
 10
34.1550509754
 20
3.4586678051
 30
0.0
 11
40.810564277
 21
3.4586678051
 31
0.0
  0
LINE
  5
EE
330
1F
100
AcDbEntity
  8
0
  6
CONTINUOUS
 62
     7
100
AcDbLine
 10
34.1550509754
 20
12.5416820507
 30
0.0
 11
34.1550509754
 21
3.4586678051
 31
0.0
  0
LINE
  5
EF
330
1F
100
AcDbEntity
  8
0
  6
CONTINUOUS
 62
     7
100
AcDbLine
 10
40.810564277
 20
3.4586678051
 30
0.0
 11
40.810564277
 21
12.5416820507
 31
0.0
  0
LINE
  5
F0
330
1F
100
AcDbEntity
  8
0
  6
CONTINUOUS
 62
     7
100
AcDbLine
 10
34.1550509754
 20
2.6991101529
 30
0.0
 11
34.1550509754
 21
3.4586678051
 31
0.0
  0
LINE
  5
F1
330
1F
100
AcDbEntity
  8
0
  6
CONTINUOUS
 62
     7
100
AcDbLine
 10
40.810564277
 20
3.4586678051
 30
0.0
 11
40.810564277
 21
2.6991101529
 31
0.0
  0
ARC
  5
F2
330
1F
100
AcDbEntity
  8
0
  6
CONTINUOUS
 62
     7
100
AcDbCircle
 10
49.6877275618
 20
21.2347794793
 30
0.0
 40
0.2362204724409551
100
AcDbArc
 50
270.0
 51
0.0
  0
LINE
  5
F3
330
1F
100
AcDbEntity
  8
0
  6
CONTINUOUS
 62
     7
100
AcDbLine
 10
47.6217841532
 20
20.9985580095
 30
0.0
 11
49.6877280739
 21
20.9985580095
 31
0.0
  0
ARC
  5
F4
330
1F
100
AcDbEntity
  8
0
  6
CONTINUOUS
 62
     7
100
AcDbCircle
 10
47.6217826799
 20
20.526118062
 30
0.0
 40
0.4724409448818889
100
AcDbArc
 50
90.0
 51
180.0
  0
LINE
  5
F5
330
1F
100
AcDbEntity
  8
0
  6
CONTINUOUS
 62
     7
100
AcDbLine
 10
47.1493399043
 20
18.5654483036
 30
0.0
 11
47.1493399043
 21
20.5261184538
 31
0.0
  0
ARC
  5
F6
330
1F
100
AcDbEntity
  8
0
  6
CONTINUOUS
 62
     7
100
AcDbCircle
 10
46.774341735
 20
18.565447875
 30
0.0
 40
0.375
100
AcDbArc
 50
300.0
 51
0.0
  0
ARC
  5
F7
330
1F
100
AcDbEntity
  8
0
  6
CONTINUOUS
 62
     7
100
AcDbCircle
 10
47.149341735
 20
17.9159288221
 30
0.0
 40
0.3749999999999964
100
AcDbArc
 50
120.0
 51
180.0
  0
LINE
  5
F8
330
1F
100
AcDbEntity
  8
0
  6
CONTINUOUS
 62
     7
100
AcDbLine
 10
46.7743422096
 20
16.2699654879
 30
0.0
 11
46.7743422096
 21
17.9159289803
 31
0.0
  0
ARC
  5
F9
330
1F
100
AcDbEntity
  8
0
  6
CONTINUOUS
 62
     7
100
AcDbCircle
 10
47.149341735
 20
16.2699660321
 30
0.0
 40
0.375
100
AcDbArc
 50
180.0
 51
240.0
  0
ARC
  5
FA
330
1F
100
AcDbEntity
  8
0
  6
CONTINUOUS
 62
     7
100
AcDbCircle
 10
46.774341735
 20
15.6204469793
 30
0.0
 40
0.375
100
AcDbArc
 50
0.0
 51
60.0
  0
LINE
  5
FB
330
1F
100
AcDbEntity
  8
0
  6
CONTINUOUS
 62
     7
100
AcDbLine
 10
47.1493399043
 20
13.6597771877
 30
0.0
 11
47.1493399043
 21
15.6204473379
 31
0.0
  0
ARC
  5
FC
330
1F
100
AcDbEntity
  8
0
  6
CONTINUOUS
 62
     7
100
AcDbCircle
 10
47.6217826799
 20
13.6597767923
 30
0.0
 40
0.4724409448818907
100
AcDbArc
 50
180.0
 51
270.0
  0
LINE
  5
FD
330
1F
100
AcDbEntity
  8
0
  6
CONTINUOUS
 62
     7
100
AcDbLine
 10
49.6877280739
 20
13.1873352854
 30
0.0
 11
47.6217841532
 21
13.1873352854
 31
0.0
  0
ARC
  5
FE
330
1F
100
AcDbEntity
  8
0
  6
CONTINUOUS
 62
     7
100
AcDbCircle
 10
49.6877275618
 20
12.9511153749
 30
0.0
 40
0.236220472440948
100
AcDbArc
 50
0.0
 51
90.0
  0
LINE
  5
FF
330
1F
100
AcDbEntity
  8
0
  6
CONTINUOUS
 62
     7
100
AcDbLine
 10
49.9239501984
 20
12.4885165849
 30
0.0
 11
49.9239501984
 21
12.9511155075
 31
0.0
  0
ARC
  5
100
330
1F
100
AcDbEntity
  8
0
  6
CONTINUOUS
 62
     7
100
AcDbCircle
 10
49.8845779555
 20
12.4885169497
 30
0.0
 40
0.0393700787401627
100
AcDbArc
 50
270.0
 51
0.0
  0
LINE
  5
101
330
1F
100
AcDbEntity
  8
0
  6
CONTINUOUS
 62
     7
100
AcDbLine
 10
49.8845782799
 20
12.449147013
 30
0.0
 11
49.7188304346
 21
12.449147013
 31
0.0
  0
LINE
  5
102
330
1F
100
AcDbEntity
  8
0
  6
CONTINUOUS
 62
     7
100
AcDbLine
 10
49.7188304346
 20
12.449147013
 30
0.0
 11
49.7054405093
 21
12.6583546229
 31
0.0
  0
ARC
  5
103
330
1F
100
AcDbEntity
  8
0
  6
CONTINUOUS
 62
     7
100
AcDbCircle
 10
49.6661509513
 20
12.6558397844
 30
0.0
 40
0.039370078740159
100
AcDbArc
 50
3.6619355755
 51
90.0
  0
LINE
  5
104
330
1F
100
AcDbEntity
  8
0
  6
CONTINUOUS
 62
     7
100
AcDbLine
 10
49.6661530698
 20
12.6952097705
 30
0.0
 11
49.0760060739
 21
12.6952097705
 31
0.0
  0
ARC
  5
105
330
1F
100
AcDbEntity
  8
0
  6
CONTINUOUS
 62
     7
100
AcDbCircle
 10
49.0760062383
 20
12.7345799419
 30
0.0
 40
0.0393700787401562
100
AcDbArc
 50
245.1121079736
 51
270.0
  0
ARC
  5
106
330
1F
100
AcDbEntity
  8
0
  6
CONTINUOUS
 62
     7
100
AcDbCircle
 10
48.9737775673
 20
12.514225201
 30
0.0
 40
0.2035433070866152
100
AcDbArc
 50
65.1121079736
 51
252.3995332141
  0
ARC
  5
107
330
1F
100
AcDbEntity
  8
0
  6
CONTINUOUS
 62
     7
100
AcDbCircle
 10
48.900325987
 20
12.2826830269
 30
0.0
 40
0.0393700787401627
100
AcDbArc
 50
0.0
 51
72.3995332141
  0
LINE
  5
108
330
1F
100
AcDbEntity
  8
0
  6
CONTINUOUS
 62
     7
100
AcDbLine
 10
48.9396944753
 20
12.2030056431
 30
0.0
 11
48.9396944753
 21
12.2826834427
 31
0.0
  0
LINE
  5
109
330
1F
100
AcDbEntity
  8
0
  6
CONTINUOUS
 62
     7
100
AcDbLine
 10
47.2467817653
 20
12.2030056431
 30
0.0
 11
48.9396944753
 21
12.2030056431
 31
0.0
  0
ARC
  5
10A
330
1F
100
AcDbEntity
  8
0
  6
CONTINUOUS
 62
     7
100
AcDbCircle
 10
47.2467826799
 20
12.6754460836
 30
0.0
 40
0.4724409448818907
100
AcDbArc
 50
180.0
 51
270.0
  0
LINE
  5
10B
330
1F
100
AcDbEntity
  8
0
  6
CONTINUOUS
 62
     7
100
AcDbLine
 10
46.7743422096
 20
15.1480066089
 30
0.0
 11
46.7743422096
 21
12.6754463721
 31
0.0
  0
ARC
  5
10C
330
1F
100
AcDbEntity
  8
0
  6
CONTINUOUS
 62
     7
100
AcDbCircle
 10
46.3019007901
 20
15.1480060344
 30
0.0
 40
0.4724409448818925
100
AcDbArc
 50
0.0
 51
90.0
  0
LINE
  5
10D
330
1F
100
AcDbEntity
  8
0
  6
CONTINUOUS
 62
     7
100
AcDbLine
 10
45.6719801175
 20
15.6204473379
 30
0.0
 11
46.3019026539
 21
15.6204473379
 31
0.0
  0
ARC
  5
10E
330
1F
100
AcDbEntity
  8
0
  6
CONTINUOUS
 62
     7
100
AcDbCircle
 10
45.6719795303
 20
15.1480060344
 30
0.0
 40
0.4724409448818907
100
AcDbArc
 50
90.0
 51
180.0
  0
LINE
  5
10F
330
1F
100
AcDbEntity
  8
0
  6
CONTINUOUS
 62
     7
100
AcDbLine
 10
45.1995405619
 20
12.6754463721
 30
0.0
 11
45.1995405619
 21
15.1480066089
 31
0.0
  0
ARC
  5
110
330
1F
100
AcDbEntity
  8
0
  6
CONTINUOUS
 62
     7
100
AcDbCircle
 10
44.7270976405
 20
12.6754460836
 30
0.0
 40
0.472440944881896
100
AcDbArc
 50
270.0
 51
0.0
  0
LINE
  5
111
330
1F
100
AcDbEntity
  8
0
  6
CONTINUOUS
 62
     7
100
AcDbLine
 10
43.0341836029
 20
12.2030056431
 30
0.0
 11
44.7270963129
 21
12.2030056431
 31
0.0
  0
LINE
  5
112
330
1F
100
AcDbEntity
  8
0
  6
CONTINUOUS
 62
     7
100
AcDbLine
 10
43.0341836029
 20
12.2826834427
 30
0.0
 11
43.0341836029
 21
12.2030056431
 31
0.0
  0
ARC
  5
113
330
1F
100
AcDbEntity
  8
0
  6
CONTINUOUS
 62
     7
100
AcDbCircle
 10
43.0001027532
 20
12.514225201
 30
0.0
 40
0.2035433070866152
100
AcDbArc
 50
287.6004667859
 51
114.8878920264
  0
ARC
  5
114
330
1F
100
AcDbEntity
  8
0
  6
CONTINUOUS
 62
     7
100
AcDbCircle
 10
42.8978740821
 20
12.7345799419
 30
0.0
 40
0.0393700787401562
100
AcDbArc
 50
270.0
 51
294.8878920264
  0
LINE
  5
115
330
1F
100
AcDbEntity
  8
0
  6
CONTINUOUS
 62
     7
100
AcDbLine
 10
42.8978720043
 20
12.6952097705
 30
0.0
 11
42.3077297016
 21
12.6952097705
 31
0.0
  0
ARC
  5
116
330
1F
100
AcDbEntity
  8
0
  6
CONTINUOUS
 62
     7
100
AcDbCircle
 10
42.3077293692
 20
12.6558397844
 30
0.0
 40
0.039370078740159
100
AcDbArc
 50
90.0
 51
176.3380644245
  0
LINE
  5
117
330
1F
100
AcDbEntity
  8
0
  6
CONTINUOUS
 62
     7
100
AcDbLine
 10
42.2684375689
 20
12.6583546229
 30
0.0
 11
42.2550523368
 21
12.449147013
 31
0.0
  0
LINE
  5
118
330
1F
100
AcDbEntity
  8
0
  6
CONTINUOUS
 62
     7
100
AcDbLine
 10
42.2550523368
 20
12.449147013
 30
0.0
 11
42.0893044916
 21
12.449147013
 31
0.0
  0
ARC
  5
119
330
1F
100
AcDbEntity
  8
0
  6
CONTINUOUS
 62
     7
100
AcDbCircle
 10
42.0893023649
 20
12.4885169497
 30
0.0
 40
0.0393700787401574
100
AcDbArc
 50
180.0
 51
270.0
  0
LINE
  5
11A
330
1F
100
AcDbEntity
  8
0
  6
CONTINUOUS
 62
     7
100
AcDbLine
 10
42.0499325731
 20
12.9511155075
 30
0.0
 11
42.0499325731
 21
12.4885165849
 31
0.0
  0
ARC
  5
11B
330
1F
100
AcDbEntity
  8
0
  6
CONTINUOUS
 62
     7
100
AcDbCircle
 10
42.2861527586
 20
12.9511153749
 30
0.0
 40
0.2362204724409445
100
AcDbArc
 50
90.0
 51
180.0
  0
LINE
  5
11C
330
1F
100
AcDbEntity
  8
0
  6
CONTINUOUS
 62
     7
100
AcDbLine
 10
44.3520986182
 20
13.1873352854
 30
0.0
 11
42.2861546975
 21
13.1873352854
 31
0.0
  0
ARC
  5
11D
330
1F
100
AcDbEntity
  8
0
  6
CONTINUOUS
 62
     7
100
AcDbCircle
 10
44.3520976405
 20
13.6597767923
 30
0.0
 40
0.472440944881896
100
AcDbArc
 50
270.0
 51
0.0
  0
LINE
  5
11E
330
1F
100
AcDbEntity
  8
0
  6
CONTINUOUS
 62
     7
100
AcDbLine
 10
44.8245381739
 20
15.6204473379
 30
0.0
 11
44.8245381739
 21
13.6597771877
 31
0.0
  0
ARC
  5
11F
330
1F
100
AcDbEntity
  8
0
  6
CONTINUOUS
 62
     7
100
AcDbCircle
 10
45.1995385854
 20
15.6204469793
 30
0.0
 40
0.375
100
AcDbArc
 50
120.0
 51
180.0
  0
ARC
  5
120
330
1F
100
AcDbEntity
  8
0
  6
CONTINUOUS
 62
     7
100
AcDbCircle
 10
44.8245385854
 20
16.2699660321
 30
0.0
 40
0.375
100
AcDbArc
 50
300.0
 51
0.0
  0
LINE
  5
121
330
1F
100
AcDbEntity
  8
0
  6
CONTINUOUS
 62
     7
100
AcDbLine
 10
45.1995405619
 20
17.9159289803
 30
0.0
 11
45.1995405619
 21
16.2699654879
 31
0.0
  0
ARC
  5
122
330
1F
100
AcDbEntity
  8
0
  6
CONTINUOUS
 62
     7
100
AcDbCircle
 10
44.8245385854
 20
17.9159288221
 30
0.0
 40
0.375
100
AcDbArc
 50
0.0
 51
60.0
  0
ARC
  5
123
330
1F
100
AcDbEntity
  8
0
  6
CONTINUOUS
 62
     7
100
AcDbCircle
 10
45.1995385854
 20
18.565447875
 30
0.0
 40
0.375
100
AcDbArc
 50
180.0
 51
240.0
  0
LINE
  5
124
330
1F
100
AcDbEntity
  8
0
  6
CONTINUOUS
 62
     7
100
AcDbLine
 10
44.8245381739
 20
20.5261184538
 30
0.0
 11
44.8245381739
 21
18.5654483036
 31
0.0
  0
ARC
  5
125
330
1F
100
AcDbEntity
  8
0
  6
CONTINUOUS
 62
     7
100
AcDbCircle
 10
44.3520976405
 20
20.526118062
 30
0.0
 40
0.472440944881896
100
AcDbArc
 50
0.0
 51
90.0
  0
LINE
  5
126
330
1F
100
AcDbEntity
  8
0
  6
CONTINUOUS
 62
     7
100
AcDbLine
 10
42.2861546975
 20
20.9985580095
 30
0.0
 11
44.3520986182
 21
20.9985580095
 31
0.0
  0
ARC
  5
127
330
1F
100
AcDbEntity
  8
0
  6
CONTINUOUS
 62
     7
100
AcDbCircle
 10
42.2861527586
 20
21.2347794793
 30
0.0
 40
0.2362204724409445
100
AcDbArc
 50
180.0
 51
270.0
  0
LINE
  5
128
330
1F
100
AcDbEntity
  8
0
  6
CONTINUOUS
 62
     7
100
AcDbLine
 10
42.0499325731
 20
21.6973778833
 30
0.0
 11
42.0499325731
 21
21.2347801339
 31
0.0
  0
ARC
  5
129
330
1F
100
AcDbEntity
  8
0
  6
CONTINUOUS
 62
     7
100
AcDbCircle
 10
42.0893023649
 20
21.6973779045
 30
0.0
 40
0.0393700787401592
100
AcDbArc
 50
90.0
 51
180.0
  0
LINE
  5
12A
330
1F
100
AcDbEntity
  8
0
  6
CONTINUOUS
 62
     7
100
AcDbLine
 10
42.0893044916
 20
21.7367474552
 30
0.0
 11
42.2550523368
 21
21.7367474552
 31
0.0
  0
LINE
  5
12B
330
1F
100
AcDbEntity
  8
0
  6
CONTINUOUS
 62
     7
100
AcDbLine
 10
42.2550523368
 20
21.7367474552
 30
0.0
 11
42.2684375689
 21
21.5275398453
 31
0.0
  0
ARC
  5
12C
330
1F
100
AcDbEntity
  8
0
  6
CONTINUOUS
 62
     7
100
AcDbCircle
 10
42.3077293692
 20
21.5300550699
 30
0.0
 40
0.0393700787401592
100
AcDbArc
 50
183.6619355755
 51
270.0
  0
LINE
  5
12D
330
1F
100
AcDbEntity
  8
0
  6
CONTINUOUS
 62
     7
100
AcDbLine
 10
42.3077297016
 20
21.490685871
 30
0.0
 11
42.8978720043
 21
21.490685871
 31
0.0
  0
ARC
  5
12E
330
1F
100
AcDbEntity
  8
0
  6
CONTINUOUS
 62
     7
100
AcDbCircle
 10
42.8978740821
 20
21.4513149124
 30
0.0
 40
0.0393700787401576
100
AcDbArc
 50
65.1121079736
 51
90.0
  0
ARC
  5
12F
330
1F
100
AcDbEntity
  8
0
  6
CONTINUOUS
 62
     7
100
AcDbCircle
 10
43.0001027532
 20
21.6716696533
 30
0.0
 40
0.203543307086613
100
AcDbArc
 50
245.1121079736
 51
72.3995332141
  0
ARC
  5
130
330
1F
100
AcDbEntity
  8
0
  6
CONTINUOUS
 62
     7
100
AcDbCircle
 10
43.0735543335
 20
21.9032118273
 30
0.0
 40
0.0393700787401624
100
AcDbArc
 50
180.0
 51
252.3995332141
  0
LINE
  5
131
330
1F
100
AcDbEntity
  8
0
  6
CONTINUOUS
 62
     7
100
AcDbLine
 10
43.0341836029
 20
21.9828888251
 30
0.0
 11
43.0341836029
 21
21.9032110255
 31
0.0
  0
LINE
  5
132
330
1F
100
AcDbEntity
  8
0
  6
CONTINUOUS
 62
     7
100
AcDbLine
 10
44.7270963129
 20
21.9828888251
 30
0.0
 11
43.0341836029
 21
21.9828888251
 31
0.0
  0
ARC
  5
133
330
1F
100
AcDbEntity
  8
0
  6
CONTINUOUS
 62
     7
100
AcDbCircle
 10
44.7270976405
 20
21.5104487706
 30
0.0
 40
0.472440944881896
100
AcDbArc
 50
0.0
 51
90.0
  0
LINE
  5
134
330
1F
100
AcDbEntity
  8
0
  6
CONTINUOUS
 62
     7
100
AcDbLine
 10
45.1995405619
 20
19.0378890326
 30
0.0
 11
45.1995405619
 21
21.5104492694
 31
0.0
  0
ARC
  5
135
330
1F
100
AcDbEntity
  8
0
  6
CONTINUOUS
 62
     7
100
AcDbCircle
 10
45.6719795303
 20
19.0378888198
 30
0.0
 40
0.4724409448818889
100
AcDbArc
 50
180.0
 51
270.0
  0
LINE
  5
136
330
1F
100
AcDbEntity
  8
0
  6
CONTINUOUS
 62
     7
100
AcDbLine
 10
46.3019026539
 20
18.5654483036
 30
0.0
 11
45.6719801175
 21
18.5654483036
 31
0.0
  0
ARC
  5
137
330
1F
100
AcDbEntity
  8
0
  6
CONTINUOUS
 62
     7
100
AcDbCircle
 10
46.3019007901
 20
19.0378888198
 30
0.0
 40
0.4724409448818889
100
AcDbArc
 50
270.0
 51
0.0
  0
LINE
  5
138
330
1F
100
AcDbEntity
  8
0
  6
CONTINUOUS
 62
     7
100
AcDbLine
 10
46.7743422096
 20
21.5104492694
 30
0.0
 11
46.7743422096
 21
19.0378890326
 31
0.0
  0
ARC
  5
139
330
1F
100
AcDbEntity
  8
0
  6
CONTINUOUS
 62
     7
100
AcDbCircle
 10
47.2467826799
 20
21.5104487706
 30
0.0
 40
0.4724409448818889
100
AcDbArc
 50
90.0
 51
180.0
  0
LINE
  5
13A
330
1F
100
AcDbEntity
  8
0
  6
CONTINUOUS
 62
     7
100
AcDbLine
 10
48.9396944753
 20
21.9828888251
 30
0.0
 11
47.2467817653
 21
21.9828888251
 31
0.0
  0
LINE
  5
13B
330
1F
100
AcDbEntity
  8
0
  6
CONTINUOUS
 62
     7
100
AcDbLine
 10
48.9396944753
 20
21.9032110255
 30
0.0
 11
48.9396944753
 21
21.9828888251
 31
0.0
  0
ARC
  5
13C
330
1F
100
AcDbEntity
  8
0
  6
CONTINUOUS
 62
     7
100
AcDbCircle
 10
48.900325987
 20
21.9032118273
 30
0.0
 40
0.0393700787401556
100
AcDbArc
 50
287.6004667859
 51
0.0
  0
ARC
  5
13D
330
1F
100
AcDbEntity
  8
0
  6
CONTINUOUS
 62
     7
100
AcDbCircle
 10
48.9737775673
 20
21.6716696533
 30
0.0
 40
0.2035433070866152
100
AcDbArc
 50
107.6004667859
 51
294.8878920264
  0
ARC
  5
13E
330
1F
100
AcDbEntity
  8
0
  6
CONTINUOUS
 62
     7
100
AcDbCircle
 10
49.0760062383
 20
21.4513149124
 30
0.0
 40
0.0393700787401556
100
AcDbArc
 50
90.0
 51
114.8878920264
  0
LINE
  5
13F
330
1F
100
AcDbEntity
  8
0
  6
CONTINUOUS
 62
     7
100
AcDbLine
 10
49.0760060739
 20
21.490685871
 30
0.0
 11
49.6661530698
 21
21.490685871
 31
0.0
  0
ARC
  5
140
330
1F
100
AcDbEntity
  8
0
  6
CONTINUOUS
 62
     7
100
AcDbCircle
 10
49.6661509513
 20
21.5300550699
 30
0.0
 40
0.0393700787401592
100
AcDbArc
 50
270.0
 51
356.3380644245
  0
LINE
  5
141
330
1F
100
AcDbEntity
  8
0
  6
CONTINUOUS
 62
     7
100
AcDbLine
 10
49.7054405093
 20
21.5275398453
 30
0.0
 11
49.7188304346
 21
21.7367474552
 31
0.0
  0
LINE
  5
142
330
1F
100
AcDbEntity
  8
0
  6
CONTINUOUS
 62
     7
100
AcDbLine
 10
49.7188304346
 20
21.7367474552
 30
0.0
 11
49.8845782799
 21
21.7367474552
 31
0.0
  0
ARC
  5
143
330
1F
100
AcDbEntity
  8
0
  6
CONTINUOUS
 62
     7
100
AcDbCircle
 10
49.8845779555
 20
21.6973779045
 30
0.0
 40
0.0393700787401627
100
AcDbArc
 50
0.0
 51
90.0
  0
LINE
  5
144
330
1F
100
AcDbEntity
  8
0
  6
CONTINUOUS
 62
     7
100
AcDbLine
 10
49.9239501984
 20
21.2347801339
 30
0.0
 11
49.9239501984
 21
21.6973778833
 31
0.0
  0
ARC
  5
145
330
1F
100
AcDbEntity
  8
0
  6
CONTINUOUS
 62
     7
100
AcDbCircle
 10
43.0735543335
 20
12.2826830269
 30
0.0
 40
0.0393700787401627
100
AcDbArc
 50
107.6004667859
 51
180.0
  0
ARC
  5
146
330
1F
100
AcDbEntity
  8
0
  6
CONTINUOUS
 62
     7
100
AcDbCircle
 10
42.2861527586
 20
1.9320181997
 30
0.0
 40
0.2362204724409449
100
AcDbArc
 50
90.0
 51
180.0
  0
LINE
  5
147
330
1F
100
AcDbEntity
  8
0
  6
CONTINUOUS
 62
     7
100
AcDbLine
 10
44.3520986182
 20
2.1682386856
 30
0.0
 11
42.2861546975
 21
2.1682386856
 31
0.0
  0
ARC
  5
148
330
1F
100
AcDbEntity
  8
0
  6
CONTINUOUS
 62
     7
100
AcDbCircle
 10
44.3520976405
 20
2.640679617
 30
0.0
 40
0.472440944881896
100
AcDbArc
 50
270.0
 51
0.0
  0
LINE
  5
149
330
1F
100
AcDbEntity
  8
0
  6
CONTINUOUS
 62
     7
100
AcDbLine
 10
44.8245381739
 20
4.6013498581
 30
0.0
 11
44.8245381739
 21
2.6406797079
 31
0.0
  0
ARC
  5
14A
330
1F
100
AcDbEntity
  8
0
  6
CONTINUOUS
 62
     7
100
AcDbCircle
 10
45.1995385854
 20
4.6013498041
 30
0.0
 40
0.3749999999999937
100
AcDbArc
 50
120.0
 51
180.0
  0
ARC
  5
14B
330
1F
100
AcDbEntity
  8
0
  6
CONTINUOUS
 62
     7
100
AcDbCircle
 10
44.8245385854
 20
5.2508688569
 30
0.0
 40
0.375
100
AcDbArc
 50
300.0
 51
0.0
  0
LINE
  5
14C
330
1F
100
AcDbEntity
  8
0
  6
CONTINUOUS
 62
     7
100
AcDbLine
 10
45.1995405619
 20
6.8968317938
 30
0.0
 11
45.1995405619
 21
5.2508688881
 31
0.0
  0
ARC
  5
14D
330
1F
100
AcDbEntity
  8
0
  6
CONTINUOUS
 62
     7
100
AcDbCircle
 10
44.8245385854
 20
6.8968316469
 30
0.0
 40
0.3749999999999929
100
AcDbArc
 50
0.0
 51
60.0
  0
ARC
  5
14E
330
1F
100
AcDbEntity
  8
0
  6
CONTINUOUS
 62
     7
100
AcDbCircle
 10
45.1995385854
 20
7.5463506997
 30
0.0
 40
0.375
100
AcDbArc
 50
180.0
 51
240.0
  0
LINE
  5
14F
330
1F
100
AcDbEntity
  8
0
  6
CONTINUOUS
 62
     7
100
AcDbLine
 10
44.8245381739
 20
9.5070206807
 30
0.0
 11
44.8245381739
 21
7.5463505305
 31
0.0
  0
ARC
  5
150
330
1F
100
AcDbEntity
  8
0
  6
CONTINUOUS
 62
     7
100
AcDbCircle
 10
44.3520976405
 20
9.5070208868
 30
0.0
 40
0.472440944881896
100
AcDbArc
 50
0.0
 51
90.0
  0
LINE
  5
151
330
1F
100
AcDbEntity
  8
0
  6
CONTINUOUS
 62
     7
100
AcDbLine
 10
42.2861546975
 20
9.9794619963
 30
0.0
 11
44.3520986182
 21
9.9794619963
 31
0.0
  0
ARC
  5
152
330
1F
100
AcDbEntity
  8
0
  6
CONTINUOUS
 62
     7
100
AcDbCircle
 10
42.2861527586
 20
10.2156823041
 30
0.0
 40
0.2362204724409445
100
AcDbArc
 50
180.0
 51
270.0
  0
LINE
  5
153
330
1F
100
AcDbEntity
  8
0
  6
CONTINUOUS
 62
     7
100
AcDbLine
 10
42.0499325731
 20
10.6782812835
 30
0.0
 11
42.0499325731
 21
10.2156823608
 31
0.0
  0
ARC
  5
154
330
1F
100
AcDbEntity
  8
0
  6
CONTINUOUS
 62
     7
100
AcDbCircle
 10
42.0893023649
 20
10.6782807293
 30
0.0
 40
0.0393700787401627
100
AcDbArc
 50
90.0
 51
180.0
  0
LINE
  5
155
330
1F
100
AcDbEntity
  8
0
  6
CONTINUOUS
 62
     7
100
AcDbLine
 10
42.0893044916
 20
10.7176508554
 30
0.0
 11
42.2550523368
 21
10.7176508554
 31
0.0
  0
LINE
  5
156
330
1F
100
AcDbEntity
  8
0
  6
CONTINUOUS
 62
     7
100
AcDbLine
 10
42.2550523368
 20
10.7176508554
 30
0.0
 11
42.2684375689
 21
10.5084432455
 31
0.0
  0
ARC
  5
157
330
1F
100
AcDbEntity
  8
0
  6
CONTINUOUS
 62
     7
100
AcDbCircle
 10
42.3077293692
 20
10.5109578946
 30
0.0
 40
0.039370078740159
100
AcDbArc
 50
183.6619355755
 51
270.0
  0
LINE
  5
158
330
1F
100
AcDbEntity
  8
0
  6
CONTINUOUS
 62
     7
100
AcDbLine
 10
42.3077297016
 20
10.4715880979
 30
0.0
 11
42.8978720043
 21
10.4715880979
 31
0.0
  0
ARC
  5
159
330
1F
100
AcDbEntity
  8
0
  6
CONTINUOUS
 62
     7
100
AcDbCircle
 10
42.8978740821
 20
10.4322177371
 30
0.0
 40
0.0393700787401579
100
AcDbArc
 50
65.1121079736
 51
90.0
  0
ARC
  5
15A
330
1F
100
AcDbEntity
  8
0
  6
CONTINUOUS
 62
     7
100
AcDbCircle
 10
43.0001027532
 20
10.652572478
 30
0.0
 40
0.2035433070866135
100
AcDbArc
 50
245.1121079736
 51
72.3995332141
  0
ARC
  5
15B
330
1F
100
AcDbEntity
  8
0
  6
CONTINUOUS
 62
     7
100
AcDbCircle
 10
43.0735543335
 20
10.8841146521
 30
0.0
 40
0.0393700787401627
100
AcDbArc
 50
180.0
 51
252.3995332141
  0
LINE
  5
15C
330
1F
100
AcDbEntity
  8
0
  6
CONTINUOUS
 62
     7
100
AcDbLine
 10
43.0341836029
 20
10.9637922253
 30
0.0
 11
43.0341836029
 21
10.8841144257
 31
0.0
  0
LINE
  5
15D
330
1F
100
AcDbEntity
  8
0
  6
CONTINUOUS
 62
     7
100
AcDbLine
 10
44.7270963129
 20
10.9637922253
 30
0.0
 11
43.0341836029
 21
10.9637922253
 31
0.0
  0
ARC
  5
15E
330
1F
100
AcDbEntity
  8
0
  6
CONTINUOUS
 62
     7
100
AcDbCircle
 10
44.7270976405
 20
10.4913515954
 30
0.0
 40
0.4724409448818889
100
AcDbArc
 50
0.0
 51
90.0
  0
LINE
  5
15F
330
1F
100
AcDbEntity
  8
0
  6
CONTINUOUS
 62
     7
100
AcDbLine
 10
45.1995405619
 20
8.0187918462
 30
0.0
 11
45.1995405619
 21
10.4913514963
 31
0.0
  0
ARC
  5
160
330
1F
100
AcDbEntity
  8
0
  6
CONTINUOUS
 62
     7
100
AcDbCircle
 10
45.6719795303
 20
8.0187916446
 30
0.0
 40
0.472440944881896
100
AcDbArc
 50
180.0
 51
270.0
  0
LINE
  5
161
330
1F
100
AcDbEntity
  8
0
  6
CONTINUOUS
 62
     7
100
AcDbLine
 10
46.3019026539
 20
7.5463505305
 30
0.0
 11
45.6719801175
 21
7.5463505305
 31
0.0
  0
ARC
  5
162
330
1F
100
AcDbEntity
  8
0
  6
CONTINUOUS
 62
     7
100
AcDbCircle
 10
46.3019007901
 20
8.0187916446
 30
0.0
 40
0.4724409448818889
100
AcDbArc
 50
270.0
 51
0.0
  0
LINE
  5
163
330
1F
100
AcDbEntity
  8
0
  6
CONTINUOUS
 62
     7
100
AcDbLine
 10
46.7743422096
 20
10.4913514963
 30
0.0
 11
46.7743422096
 21
8.0187918462
 31
0.0
  0
ARC
  5
164
330
1F
100
AcDbEntity
  8
0
  6
CONTINUOUS
 62
     7
100
AcDbCircle
 10
47.2467826799
 20
10.4913515954
 30
0.0
 40
0.4724409448818889
100
AcDbArc
 50
90.0
 51
180.0
  0
LINE
  5
165
330
1F
100
AcDbEntity
  8
0
  6
CONTINUOUS
 62
     7
100
AcDbLine
 10
48.9396944753
 20
10.9637922253
 30
0.0
 11
47.2467817653
 21
10.9637922253
 31
0.0
  0
LINE
  5
166
330
1F
100
AcDbEntity
  8
0
  6
CONTINUOUS
 62
     7
100
AcDbLine
 10
48.9396944753
 20
10.8841144257
 30
0.0
 11
48.9396944753
 21
10.9637922253
 31
0.0
  0
ARC
  5
167
330
1F
100
AcDbEntity
  8
0
  6
CONTINUOUS
 62
     7
100
AcDbCircle
 10
48.900325987
 20
10.8841146521
 30
0.0
 40
0.0393700787401627
100
AcDbArc
 50
287.6004667859
 51
0.0
  0
ARC
  5
168
330
1F
100
AcDbEntity
  8
0
  6
CONTINUOUS
 62
     7
100
AcDbCircle
 10
48.9737775673
 20
10.652572478
 30
0.0
 40
0.2035433070866173
100
AcDbArc
 50
107.6004667859
 51
294.8878920264
  0
ARC
  5
169
330
1F
100
AcDbEntity
  8
0
  6
CONTINUOUS
 62
     7
100
AcDbCircle
 10
49.0760062383
 20
10.4322177371
 30
0.0
 40
0.0393700787401562
100
AcDbArc
 50
90.0
 51
114.8878920264
  0
LINE
  5
16A
330
1F
100
AcDbEntity
  8
0
  6
CONTINUOUS
 62
     7
100
AcDbLine
 10
49.0760060739
 20
10.4715880979
 30
0.0
 11
49.6661530698
 21
10.4715880979
 31
0.0
  0
ARC
  5
16B
330
1F
100
AcDbEntity
  8
0
  6
CONTINUOUS
 62
     7
100
AcDbCircle
 10
49.6661509513
 20
10.5109578946
 30
0.0
 40
0.0393700787401589
100
AcDbArc
 50
270.0
 51
356.3380644245
  0
LINE
  5
16C
330
1F
100
AcDbEntity
  8
0
  6
CONTINUOUS
 62
     7
100
AcDbLine
 10
49.7054405093
 20
10.5084432455
 30
0.0
 11
49.7188304346
 21
10.7176508554
 31
0.0
  0
LINE
  5
16D
330
1F
100
AcDbEntity
  8
0
  6
CONTINUOUS
 62
     7
100
AcDbLine
 10
49.7188304346
 20
10.7176508554
 30
0.0
 11
49.8845782799
 21
10.7176508554
 31
0.0
  0
ARC
  5
16E
330
1F
100
AcDbEntity
  8
0
  6
CONTINUOUS
 62
     7
100
AcDbCircle
 10
49.8845779555
 20
10.6782807293
 30
0.0
 40
0.0393700787401574
100
AcDbArc
 50
0.0
 51
90.0
  0
LINE
  5
16F
330
1F
100
AcDbEntity
  8
0
  6
CONTINUOUS
 62
     7
100
AcDbLine
 10
49.9239501984
 20
10.2156823608
 30
0.0
 11
49.9239501984
 21
10.6782812835
 31
0.0
  0
ARC
  5
170
330
1F
100
AcDbEntity
  8
0
  6
CONTINUOUS
 62
     7
100
AcDbCircle
 10
49.6877275618
 20
10.2156823041
 30
0.0
 40
0.236220472440948
100
AcDbArc
 50
270.0
 51
0.0
  0
LINE
  5
171
330
1F
100
AcDbEntity
  8
0
  6
CONTINUOUS
 62
     7
100
AcDbLine
 10
47.6217841532
 20
9.9794619963
 30
0.0
 11
49.6877280739
 21
9.9794619963
 31
0.0
  0
ARC
  5
172
330
1F
100
AcDbEntity
  8
0
  6
CONTINUOUS
 62
     7
100
AcDbCircle
 10
47.6217826799
 20
9.5070208868
 30
0.0
 40
0.4724409448818907
100
AcDbArc
 50
90.0
 51
180.0
  0
LINE
  5
173
330
1F
100
AcDbEntity
  8
0
  6
CONTINUOUS
 62
     7
100
AcDbLine
 10
47.1493399043
 20
7.5463505305
 30
0.0
 11
47.1493399043
 21
9.5070206807
 31
0.0
  0
ARC
  5
174
330
1F
100
AcDbEntity
  8
0
  6
CONTINUOUS
 62
     7
100
AcDbCircle
 10
46.774341735
 20
7.5463506997
 30
0.0
 40
0.375
100
AcDbArc
 50
300.0
 51
0.0
  0
ARC
  5
175
330
1F
100
AcDbEntity
  8
0
  6
CONTINUOUS
 62
     7
100
AcDbCircle
 10
47.149341735
 20
6.8968316469
 30
0.0
 40
0.375
100
AcDbArc
 50
120.0
 51
180.0
  0
LINE
  5
176
330
1F
100
AcDbEntity
  8
0
  6
CONTINUOUS
 62
     7
100
AcDbLine
 10
46.7743422096
 20
5.2508688881
 30
0.0
 11
46.7743422096
 21
6.8968317938
 31
0.0
  0
ARC
  5
177
330
1F
100
AcDbEntity
  8
0
  6
CONTINUOUS
 62
     7
100
AcDbCircle
 10
47.149341735
 20
5.2508688569
 30
0.0
 40
0.375
100
AcDbArc
 50
180.0
 51
240.0
  0
ARC
  5
178
330
1F
100
AcDbEntity
  8
0
  6
CONTINUOUS
 62
     7
100
AcDbCircle
 10
46.774341735
 20
4.6013498041
 30
0.0
 40
0.3750000000000008
100
AcDbArc
 50
0.0
 51
60.0
  0
LINE
  5
179
330
1F
100
AcDbEntity
  8
0
  6
CONTINUOUS
 62
     7
100
AcDbLine
 10
47.1493399043
 20
2.6406797079
 30
0.0
 11
47.1493399043
 21
4.6013498581
 31
0.0
  0
ARC
  5
17A
330
1F
100
AcDbEntity
  8
0
  6
CONTINUOUS
 62
     7
100
AcDbCircle
 10
47.6217826799
 20
2.640679617
 30
0.0
 40
0.472440944881892
100
AcDbArc
 50
180.0
 51
270.0
  0
LINE
  5
17B
330
1F
100
AcDbEntity
  8
0
  6
CONTINUOUS
 62
     7
100
AcDbLine
 10
49.6877280739
 20
2.1682386856
 30
0.0
 11
47.6217841532
 21
2.1682386856
 31
0.0
  0
ARC
  5
17C
330
1F
100
AcDbEntity
  8
0
  6
CONTINUOUS
 62
     7
100
AcDbCircle
 10
49.6877275618
 20
1.9320181997
 30
0.0
 40
0.236220472440948
100
AcDbArc
 50
0.0
 51
90.0
  0
LINE
  5
17D
330
1F
100
AcDbEntity
  8
0
  6
CONTINUOUS
 62
     7
100
AcDbLine
 10
49.9239501984
 20
1.4694198384
 30
0.0
 11
49.9239501984
 21
1.9320181744
 31
0.0
  0
ARC
  5
17E
330
1F
100
AcDbEntity
  8
0
  6
CONTINUOUS
 62
     7
100
AcDbCircle
 10
49.8845779555
 20
1.4694197745
 30
0.0
 40
0.0393700787401574
100
AcDbArc
 50
270.0
 51
0.0
  0
LINE
  5
17F
330
1F
100
AcDbEntity
  8
0
  6
CONTINUOUS
 62
     7
100
AcDbLine
 10
49.8845782799
 20
1.4300496799
 30
0.0
 11
49.7188304346
 21
1.4300496799
 31
0.0
  0
LINE
  5
180
330
1F
100
AcDbEntity
  8
0
  6
CONTINUOUS
 62
     7
100
AcDbLine
 10
49.7188304346
 20
1.4300496799
 30
0.0
 11
49.7054405093
 21
1.6392571431
 31
0.0
  0
ARC
  5
181
330
1F
100
AcDbEntity
  8
0
  6
CONTINUOUS
 62
     7
100
AcDbCircle
 10
49.6661509513
 20
1.6367426092
 30
0.0
 40
0.039370078740159
100
AcDbArc
 50
3.6619355755
 51
90.0
  0
LINE
  5
182
330
1F
100
AcDbEntity
  8
0
  6
CONTINUOUS
 62
     7
100
AcDbLine
 10
49.6661530698
 20
1.6761127307
 30
0.0
 11
49.0760060739
 21
1.6761127307
 31
0.0
  0
ARC
  5
183
330
1F
100
AcDbEntity
  8
0
  6
CONTINUOUS
 62
     7
100
AcDbCircle
 10
49.0760062383
 20
1.7154827666
 30
0.0
 40
0.0393700787401619
100
AcDbArc
 50
245.1121079736
 51
270.0
  0
ARC
  5
184
330
1F
100
AcDbEntity
  8
0
  6
CONTINUOUS
 62
     7
100
AcDbCircle
 10
48.9737775673
 20
1.4951280257
 30
0.0
 40
0.203543307086614
100
AcDbArc
 50
65.1121079736
 51
252.3995332141
  0
LINE
  5
185
330
1F
100
AcDbEntity
  8
0
  6
CONTINUOUS
 62
     7
100
AcDbLine
 10
47.2467817653
 20
1.1839079433
 30
0.0
 11
48.9396944753
 21
1.1839079433
 31
0.0
  0
ARC
  5
186
330
1F
100
AcDbEntity
  8
0
  6
CONTINUOUS
 62
     7
100
AcDbCircle
 10
47.2467826799
 20
1.6563489084
 30
0.0
 40
0.4724409448818903
100
AcDbArc
 50
180.0
 51
270.0
  0
LINE
  5
187
330
1F
100
AcDbEntity
  8
0
  6
CONTINUOUS
 62
     7
100
AcDbLine
 10
46.7743422096
 20
4.1289088358
 30
0.0
 11
46.7743422096
 21
1.6563488923
 31
0.0
  0
ARC
  5
188
330
1F
100
AcDbEntity
  8
0
  6
CONTINUOUS
 62
     7
100
AcDbCircle
 10
46.3019007901
 20
4.1289088592
 30
0.0
 40
0.4724409448818898
100
AcDbArc
 50
0.0
 51
90.0
  0
LINE
  5
189
330
1F
100
AcDbEntity
  8
0
  6
CONTINUOUS
 62
     7
100
AcDbLine
 10
45.6719801175
 20
4.6013498581
 30
0.0
 11
46.3019026539
 21
4.6013498581
 31
0.0
  0
ARC
  5
18A
330
1F
100
AcDbEntity
  8
0
  6
CONTINUOUS
 62
     7
100
AcDbCircle
 10
45.6719795303
 20
4.1289088592
 30
0.0
 40
0.472440944881896
100
AcDbArc
 50
90.0
 51
180.0
  0
LINE
  5
18B
330
1F
100
AcDbEntity
  8
0
  6
CONTINUOUS
 62
     7
100
AcDbLine
 10
45.1995405619
 20
1.6563488923
 30
0.0
 11
45.1995405619
 21
4.1289088358
 31
0.0
  0
LINE
  5
18C
330
1F
100
AcDbEntity
  8
0
  6
CONTINUOUS
 62
     7
100
AcDbLine
 10
43.0341836029
 20
1.1839079433
 30
0.0
 11
44.7270963129
 21
1.1839079433
 31
0.0
  0
ARC
  5
18D
330
1F
100
AcDbEntity
  8
0
  6
CONTINUOUS
 62
     7
100
AcDbCircle
 10
43.0001027532
 20
1.4951280257
 30
0.0
 40
0.2035433070866164
100
AcDbArc
 50
287.6004667859
 51
114.8878920264
  0
ARC
  5
18E
330
1F
100
AcDbEntity
  8
0
  6
CONTINUOUS
 62
     7
100
AcDbCircle
 10
42.8978740821
 20
1.7154827666
 30
0.0
 40
0.0393700787401583
100
AcDbArc
 50
270.0
 51
294.8878920264
  0
LINE
  5
18F
330
1F
100
AcDbEntity
  8
0
  6
CONTINUOUS
 62
     7
100
AcDbLine
 10
42.8978720043
 20
1.6761127307
 30
0.0
 11
42.3077297016
 21
1.6761127307
 31
0.0
  0
ARC
  5
190
330
1F
100
AcDbEntity
  8
0
  6
CONTINUOUS
 62
     7
100
AcDbCircle
 10
42.3077293692
 20
1.6367426092
 30
0.0
 40
0.039370078740159
100
AcDbArc
 50
90.0
 51
176.3380644245
  0
LINE
  5
191
330
1F
100
AcDbEntity
  8
0
  6
CONTINUOUS
 62
     7
100
AcDbLine
 10
42.2684375689
 20
1.6392571431
 30
0.0
 11
42.2550523368
 21
1.4300496799
 31
0.0
  0
LINE
  5
192
330
1F
100
AcDbEntity
  8
0
  6
CONTINUOUS
 62
     7
100
AcDbLine
 10
42.2550523368
 20
1.4300496799
 30
0.0
 11
42.0893044916
 21
1.4300496799
 31
0.0
  0
ARC
  5
193
330
1F
100
AcDbEntity
  8
0
  6
CONTINUOUS
 62
     7
100
AcDbCircle
 10
42.0893023649
 20
1.4694197745
 30
0.0
 40
0.0393700787401574
100
AcDbArc
 50
180.0
 51
270.0
  0
LINE
  5
194
330
1F
100
AcDbEntity
  8
0
  6
CONTINUOUS
 62
     7
100
AcDbLine
 10
42.0499325731
 20
1.9320181744
 30
0.0
 11
42.0499325731
 21
1.4694198384
 31
0.0
  0
LINE
  5
195
330
1F
100
AcDbEntity
  8
0
  6
CONTINUOUS
 62
     7
100
AcDbLine
 10
48.9396944753
 20
1.1839079433
 30
0.0
 11
48.9396944753
 21
1.2635858162
 31
0.0
  0
ARC
  5
196
330
1F
100
AcDbEntity
  8
0
  6
CONTINUOUS
 62
     7
100
AcDbCircle
 10
43.0735543335
 20
1.2635858517
 30
0.0
 40
0.0393700787401584
100
AcDbArc
 50
107.6004667859
 51
180.0
  0
ARC
  5
197
330
1F
100
AcDbEntity
  8
0
  6
CONTINUOUS
 62
     7
100
AcDbCircle
 10
44.7270976405
 20
1.6563489084
 30
0.0
 40
0.4724409448818903
100
AcDbArc
 50
270.0
 51
0.0
  0
ARC
  5
198
330
1F
100
AcDbEntity
  8
0
  6
CONTINUOUS
 62
     7
100
AcDbCircle
 10
48.900325987
 20
1.2635858517
 30
0.0
 40
0.0393700787401562
100
AcDbArc
 50
0.0
 51
72.3995332141
  0
LINE
  5
199
330
1F
100
AcDbEntity
  8
0
  6
CONTINUOUS
 62
     7
100
AcDbLine
 10
43.0341836029
 20
1.2635858162
 30
0.0
 11
43.0341836029
 21
1.1839079433
 31
0.0
  0
ARC
  5
19A
330
1F
100
AcDbEntity
  8
0
  6
CONTINUOUS
 62
     7
100
AcDbCircle
 10
23.7575472123
 20
40.6455034936
 30
0.0
 40
0.2035433070866143
100
AcDbArc
 50
351.0551903544
 51
19.8879035534
  0
ARC
  5
19B
330
1F
100
AcDbEntity
  8
0
  6
CONTINUOUS
 62
     7
100
AcDbCircle
 10
23.985973236
 20
40.7281380185
 30
0.0
 40
0.0393700787401588
100
AcDbArc
 50
175.0
 51
199.8879035534
  0
LINE
  5
19C
330
1F
100
AcDbEntity
  8
0
  6
CONTINUOUS
 62
     7
100
AcDbLine
 10
23.9895257418
 20
41.2204662709
 30
0.0
 11
23.9467535425
 21
40.7315673854
 31
0.0
  0
ARC
  5
19D
330
1F
100
AcDbEntity
  8
0
  6
CONTINUOUS
 62
     7
100
AcDbCircle
 10
24.0287476257
 20
41.2170355621
 30
0.0
 40
0.0393714704138571
100
AcDbArc
 50
150.1121919354
 51
175.0
  0
ARC
  5
19E
330
1F
100
AcDbEntity
  8
0
  6
CONTINUOUS
 62
     7
100
AcDbCircle
 10
23.8181398329
 20
41.3380807881
 30
0.0
 40
0.2035433070866153
100
AcDbArc
 50
330.1121919354
 51
157.3995434107
  0
ARC
  5
19F
330
1F
100
AcDbEntity
  8
0
  6
CONTINUOUS
 62
     7
100
AcDbCircle
 10
23.5938804572
 20
41.4314330532
 30
0.0
 40
0.0393700787401578
100
AcDbArc
 50
265.0000489546
 51
337.3995434107
  0
LINE
  5
1A0
330
1F
100
AcDbEntity
  8
0
  6
CONTINUOUS
 62
     7
100
AcDbLine
 10
23.4318562373
 20
41.40608546
 30
0.0
 11
23.5904491786
 21
41.3922121269
 31
0.0
  0
ARC
  5
1A1
330
1F
100
AcDbEntity
  8
0
  6
CONTINUOUS
 62
     7
100
AcDbCircle
 10
23.4352879468
 20
41.4453079634
 30
0.0
 40
0.0393701162868484
100
AcDbArc
 50
192.6004769824
 51
265.0000489546
  0
ARC
  5
1A2
330
1F
100
AcDbEntity
  8
0
  6
CONTINUOUS
 62
     7
100
AcDbCircle
 10
23.198225143
 20
41.3923160765
 30
0.0
 40
0.2035432695399213
100
AcDbArc
 50
12.6004769824
 51
199.8878378453
  0
ARC
  5
1A3
330
1F
100
AcDbEntity
  8
0
  6
CONTINUOUS
 62
     7
100
AcDbCircle
 10
22.9697991461
 20
41.3096818576
 30
0.0
 40
0.0393700245933007
100
AcDbArc
 50
355.0
 51
19.8878378453
  0
LINE
  5
1A4
330
1F
100
AcDbEntity
  8
0
  6
CONTINUOUS
 62
     7
100
AcDbLine
 10
22.9662454028
 20
40.8173511411
 30
0.0
 11
23.0090199486
 21
41.3062500266
 31
0.0
  0
ARC
  5
1A5
330
1F
100
AcDbEntity
  8
0
  6
CONTINUOUS
 62
     7
100
AcDbCircle
 10
22.9270260892
 20
40.8207835808
 30
0.0
 40
0.0393700787401594
100
AcDbArc
 50
330.1121195006
 51
355.0
  0
ARC
  5
1A6
330
1F
100
AcDbEntity
  8
0
  6
CONTINUOUS
 62
     7
100
AcDbCircle
 10
23.1376325224
 20
40.699738782
 30
0.0
 40
0.203543307086617
100
AcDbArc
 50
150.1121195006
 51
178.9447480122
  0
LINE
  5
1A7
330
1F
100
AcDbEntity
  8
0
  6
CONTINUOUS
 62
     7
100
AcDbLine
 10
22.9341246005
 20
40.7034874964
 30
0.0
 11
16.1827874459
 21
41.2941507531
 31
0.0
  0
ARC
  5
1A8
330
1F
100
AcDbEntity
  8
0
  6
CONTINUOUS
 62
     7
100
AcDbCircle
 10
15.9817193654
 20
41.3258002797
 30
0.0
 40
0.2035433070866176
100
AcDbArc
 50
351.0551903544
 51
19.8879035534
  0
ARC
  5
1A9
330
1F
100
AcDbEntity
  8
0
  6
CONTINUOUS
 62
     7
100
AcDbCircle
 10
16.2101453891
 20
41.4084348046
 30
0.0
 40
0.0393700787401588
100
AcDbArc
 50
175.0
 51
199.8879035534
  0
LINE
  5
1AA
330
1F
100
AcDbEntity
  8
0
  6
CONTINUOUS
 62
     7
100
AcDbLine
 10
16.2136985554
 20
41.9007617721
 30
0.0
 11
16.1709251829
 21
41.4118675798
 31
0.0
  0
ARC
  5
1AB
330
1F
100
AcDbEntity
  8
0
  6
CONTINUOUS
 62
     7
100
AcDbCircle
 10
16.2529197788
 20
41.8973323482
 30
0.0
 40
0.0393714704138613
100
AcDbArc
 50
150.1121919354
 51
175.0
  0
ARC
  5
1AC
330
1F
100
AcDbEntity
  8
0
  6
CONTINUOUS
 62
     7
100
AcDbCircle
 10
16.042311986
 20
42.0183775742
 30
0.0
 40
0.2035433070866159
100
AcDbArc
 50
330.1121919354
 51
157.3995434107
  0
ARC
  5
1AD
330
1F
100
AcDbEntity
  8
0
  6
CONTINUOUS
 62
     7
100
AcDbCircle
 10
15.8180526102
 20
42.1117298393
 30
0.0
 40
0.0393700787401606
100
AcDbArc
 50
265.0000489546
 51
337.3995434107
  0
LINE
  5
1AE
330
1F
100
AcDbEntity
  8
0
  6
CONTINUOUS
 62
     7
100
AcDbLine
 10
15.656029051
 20
42.0863856544
 30
0.0
 11
15.814620819
 21
42.0725076281
 31
0.0
  0
ARC
  5
1AF
330
1F
100
AcDbEntity
  8
0
  6
CONTINUOUS
 62
     7
100
AcDbCircle
 10
15.6594600999
 20
42.1256047496
 30
0.0
 40
0.0393701162868517
100
AcDbArc
 50
192.6004769824
 51
265.0000489546
  0
ARC
  5
1B0
330
1F
100
AcDbEntity
  8
0
  6
CONTINUOUS
 62
     7
100
AcDbCircle
 10
15.4223972961
 20
42.0726128627
 30
0.0
 40
0.2035432695399196
100
AcDbArc
 50
12.6004769824
 51
199.8878378453
  0
ARC
  5
1B1
330
1F
100
AcDbEntity
  8
0
  6
CONTINUOUS
 62
     7
100
AcDbCircle
 10
15.1939712991
 20
41.9899786437
 30
0.0
 40
0.0393700245933052
100
AcDbArc
 50
355.0
 51
19.8878378453
  0
LINE
  5
1B2
330
1F
100
AcDbEntity
  8
0
  6
CONTINUOUS
 62
     7
100
AcDbLine
 10
15.1904182165
 20
41.4976513355
 30
0.0
 11
15.233191589
 21
41.9865455278
 31
0.0
  0
ARC
  5
1B3
330
1F
100
AcDbEntity
  8
0
  6
CONTINUOUS
 62
     7
100
AcDbCircle
 10
15.1511982423
 20
41.501080367
 30
0.0
 40
0.0393700787401597
100
AcDbArc
 50
330.1121195006
 51
355.0
  0
ARC
  5
1B4
330
1F
100
AcDbEntity
  8
0
  6
CONTINUOUS
 62
     7
100
AcDbCircle
 10
15.3618046755
 20
41.3800355682
 30
0.0
 40
0.2035433070866177
100
AcDbArc
 50
150.1121195006
 51
178.9447480122
  0
LINE
  5
1B5
330
1F
100
AcDbEntity
  8
0
  6
CONTINUOUS
 62
     7
100
AcDbLine
 10
15.1582962409
 20
41.3837829976
 30
0.0
 11
13.6408769702
 21
41.516541784
 31
0.0
  0
LINE
  5
1B6
330
1F
100
AcDbEntity
  8
0
  6
CONTINUOUS
 62
     7
100
AcDbLine
 10
13.6408769702
 20
42.5909882519
 30
0.0
 11
13.6408769702
 21
41.516541784
 31
0.0
  0
ARC
  5
1B7
330
1F
100
AcDbEntity
  8
0
  6
CONTINUOUS
 62
     7
100
AcDbCircle
 10
13.8770976405
 20
42.5909865765
 30
0.0
 40
0.2362204724409462
100
AcDbArc
 50
85.0
 51
180.0
  0
LINE
  5
1B8
330
1F
100
AcDbEntity
  8
0
  6
CONTINUOUS
 62
     7
100
AcDbLine
 10
24.8051660261
 20
41.8720295173
 30
0.0
 11
13.8976861635
 21
42.8263092668
 31
0.0
  0
ARC
  5
1B9
330
1F
100
AcDbEntity
  8
0
  6
CONTINUOUS
 62
     7
100
AcDbCircle
 10
24.7845779555
 20
41.6367057013
 30
0.0
 40
0.2362204724409462
100
AcDbArc
 50
0.0
 51
85.0
  0
LINE
  5
1BA
330
1F
100
AcDbEntity
  8
0
  6
CONTINUOUS
 62
     7
100
AcDbLine
 10
25.0207987351
 20
40.5209283254
 30
0.0
 11
25.0207987351
 21
41.6367038092
 31
0.0
  0
LINE
  5
1BB
330
1F
100
AcDbEntity
  8
0
  6
CONTINUOUS
 62
     7
100
AcDbLine
 10
25.0207987351
 20
40.5209283254
 30
0.0
 11
23.9586158055
 21
40.6138552519
 31
0.0
  0
ARC
  5
1BC
330
1F
100
AcDbEntity
  8
0
  6
CONTINUOUS
 62
     7
100
AcDbCircle
 10
15.3618046535
 20
2.7092306724
 30
0.0
 40
0.2035432695399206
100
AcDbArc
 50
181.0551896256
 51
209.8878378453
  0
ARC
  5
1BD
330
1F
100
AcDbEntity
  8
0
  6
CONTINUOUS
 62
     7
100
AcDbCircle
 10
15.1511982423
 20
2.5881860948
 30
0.0
 40
0.0393700245933009
100
AcDbArc
 50
5.0
 51
29.8878378453
  0
LINE
  5
1BE
330
1F
100
AcDbEntity
  8
0
  6
CONTINUOUS
 62
     7
100
AcDbLine
 10
15.233191589
 20
2.1027191891
 30
0.0
 11
15.1904182165
 21
2.591617488
 31
0.0
  0
ARC
  5
1BF
330
1F
100
AcDbEntity
  8
0
  6
CONTINUOUS
 62
     7
100
AcDbCircle
 10
15.1939712991
 20
2.099287818
 30
0.0
 40
0.0393700787401588
100
AcDbArc
 50
340.1121195006
 51
5.0
  0
ARC
  5
1C0
330
1F
100
AcDbEntity
  8
0
  6
CONTINUOUS
 62
     7
100
AcDbCircle
 10
15.4223973561
 20
2.016653385
 30
0.0
 40
0.2035433070866175
100
AcDbArc
 50
160.1121195006
 51
347.3995434107
  0
ARC
  5
1C1
330
1F
100
AcDbEntity
  8
0
  6
CONTINUOUS
 62
     7
100
AcDbCircle
 10
15.6594601787
 20
1.9636615825
 30
0.0
 40
0.039370078740156
100
AcDbArc
 50
95.0000489546
 51
167.3995434107
  0
LINE
  5
1C2
330
1F
100
AcDbEntity
  8
0
  6
CONTINUOUS
 62
     7
100
AcDbLine
 10
15.814620819
 20
2.0167570889
 30
0.0
 11
15.656029051
 21
2.0028818491
 31
0.0
  0
ARC
  5
1C3
330
1F
100
AcDbEntity
  8
0
  6
CONTINUOUS
 62
     7
100
AcDbCircle
 10
15.8180526654
 20
1.9775367638
 30
0.0
 40
0.0393700787401576
100
AcDbArc
 50
22.6004769824
 51
95.0000489546
  0
ARC
  5
1C4
330
1F
100
AcDbEntity
  8
0
  6
CONTINUOUS
 62
     7
100
AcDbCircle
 10
16.0423120079
 20
2.0708891087
 30
0.0
 40
0.2035433070866189
100
AcDbArc
 50
202.6004769824
 51
29.8879035534
  0
ARC
  5
1C5
330
1F
100
AcDbEntity
  8
0
  6
CONTINUOUS
 62
     7
100
AcDbCircle
 10
16.2529183924
 20
2.1919339922
 30
0.0
 40
0.0393700787401552
100
AcDbArc
 50
185.0
 51
209.8879035534
  0
LINE
  5
1C6
330
1F
100
AcDbEntity
  8
0
  6
CONTINUOUS
 62
     7
100
AcDbLine
 10
16.1709251829
 20
2.677400217
 30
0.0
 11
16.2136985554
 21
2.1885026515
 31
0.0
  0
ARC
  5
1C7
330
1F
100
AcDbEntity
  8
0
  6
CONTINUOUS
 62
     7
100
AcDbCircle
 10
16.2101467755
 20
2.6808317784
 30
0.0
 40
0.0393714704138609
100
AcDbArc
 50
160.1121919354
 51
185.0
  0
ARC
  5
1C8
330
1F
100
AcDbEntity
  8
0
  6
CONTINUOUS
 62
     7
100
AcDbCircle
 10
15.9817193054
 20
2.763466396
 30
0.0
 40
0.2035433070866131
100
AcDbArc
 50
340.1121919354
 51
8.9447480122
  0
LINE
  5
1C9
330
1F
100
AcDbEntity
  8
0
  6
CONTINUOUS
 62
     7
100
AcDbLine
 10
16.1827874459
 20
2.7951138172
 30
0.0
 11
22.9341246005
 21
3.3857791271
 31
0.0
  0
ARC
  5
1CA
330
1F
100
AcDbEntity
  8
0
  6
CONTINUOUS
 62
     7
100
AcDbCircle
 10
23.1376325005
 20
3.3895274585
 30
0.0
 40
0.2035432695399223
100
AcDbArc
 50
181.0551896256
 51
209.8878378453
  0
ARC
  5
1CB
330
1F
100
AcDbEntity
  8
0
  6
CONTINUOUS
 62
     7
100
AcDbCircle
 10
22.9270260892
 20
3.2684828809
 30
0.0
 40
0.0393700245933009
100
AcDbArc
 50
5.0
 51
29.8878378453
  0
LINE
  5
1CC
330
1F
100
AcDbEntity
  8
0
  6
CONTINUOUS
 62
     7
100
AcDbLine
 10
23.0090199486
 20
2.7830160103
 30
0.0
 11
22.9662454028
 21
3.2719143092
 31
0.0
  0
ARC
  5
1CD
330
1F
100
AcDbEntity
  8
0
  6
CONTINUOUS
 62
     7
100
AcDbCircle
 10
22.9697991461
 20
2.7795846042
 30
0.0
 40
0.039370078740157
100
AcDbArc
 50
340.1121195006
 51
5.0
  0
ARC
  5
1CE
330
1F
100
AcDbEntity
  8
0
  6
CONTINUOUS
 62
     7
100
AcDbCircle
 10
23.198225203
 20
2.6969501712
 30
0.0
 40
0.2035433070866141
100
AcDbArc
 50
160.1121195006
 51
347.3995434107
  0
ARC
  5
1CF
330
1F
100
AcDbEntity
  8
0
  6
CONTINUOUS
 62
     7
100
AcDbCircle
 10
23.4352880257
 20
2.6439583687
 30
0.0
 40
0.0393700787401609
100
AcDbArc
 50
95.0000489546
 51
167.3995434107
  0
LINE
  5
1D0
330
1F
100
AcDbEntity
  8
0
  6
CONTINUOUS
 62
     7
100
AcDbLine
 10
23.5904491786
 20
2.69705391
 30
0.0
 11
23.4318562373
 21
2.6831785236
 31
0.0
  0
ARC
  5
1D1
330
1F
100
AcDbEntity
  8
0
  6
CONTINUOUS
 62
     7
100
AcDbCircle
 10
23.5938805123
 20
2.6578335499
 30
0.0
 40
0.0393700787401592
100
AcDbArc
 50
22.6004769824
 51
95.0000489546
  0
ARC
  5
1D2
330
1F
100
AcDbEntity
  8
0
  6
CONTINUOUS
 62
     7
100
AcDbCircle
 10
23.8181398549
 20
2.7511858948
 30
0.0
 40
0.2035433070866155
100
AcDbArc
 50
202.6004769824
 51
29.8879035534
  0
ARC
  5
1D3
330
1F
100
AcDbEntity
  8
0
  6
CONTINUOUS
 62
     7
100
AcDbCircle
 10
24.0287462393
 20
2.8722307784
 30
0.0
 40
0.0393700787401594
100
AcDbArc
 50
185.0
 51
209.8879035534
  0
LINE
  5
1D4
330
1F
100
AcDbEntity
  8
0
  6
CONTINUOUS
 62
     7
100
AcDbLine
 10
23.9467535425
 20
3.3576971849
 30
0.0
 11
23.9895257418
 21
2.8687994727
 31
0.0
  0
ARC
  5
1D5
330
1F
100
AcDbEntity
  8
0
  6
CONTINUOUS
 62
     7
100
AcDbCircle
 10
23.9859746224
 20
3.3611285645
 30
0.0
 40
0.0393714704138595
100
AcDbArc
 50
160.1121919354
 51
185.0
  0
ARC
  5
1D6
330
1F
100
AcDbEntity
  8
0
  6
CONTINUOUS
 62
     7
100
AcDbCircle
 10
23.7575471523
 20
3.4437631822
 30
0.0
 40
0.2035433070866151
100
AcDbArc
 50
340.1121919354
 51
8.9447480122
  0
LINE
  5
1D7
330
1F
100
AcDbEntity
  8
0
  6
CONTINUOUS
 62
     7
100
AcDbLine
 10
23.9586158055
 20
3.4754104917
 30
0.0
 11
25.0207987351
 21
3.5683394715
 31
0.0
  0
LINE
  5
1D8
330
1F
100
AcDbEntity
  8
0
  6
CONTINUOUS
 62
     7
100
AcDbLine
 10
25.0207987351
 20
2.4525607611
 30
0.0
 11
25.0207987351
 21
3.5683394715
 31
0.0
  0
ARC
  5
1D9
330
1F
100
AcDbEntity
  8
0
  6
CONTINUOUS
 62
     7
100
AcDbCircle
 10
24.7845779555
 20
2.4525607605
 30
0.0
 40
0.2362204724409445
100
AcDbArc
 50
275.0
 51
0.0
  0
LINE
  5
1DA
330
1F
100
AcDbEntity
  8
0
  6
CONTINUOUS
 62
     7
100
AcDbLine
 10
13.8976861635
 20
1.2629583101
 30
0.0
 11
24.8051660261
 21
2.2172391595
 31
0.0
  0
ARC
  5
1DB
330
1F
100
AcDbEntity
  8
0
  6
CONTINUOUS
 62
     7
100
AcDbCircle
 10
13.8770976405
 20
1.4982798853
 30
0.0
 40
0.2362204724409476
100
AcDbArc
 50
180.0
 51
275.0
  0
LINE
  5
1DC
330
1F
100
AcDbEntity
  8
0
  6
CONTINUOUS
 62
     7
100
AcDbLine
 10
13.6408769702
 20
2.5727254263
 30
0.0
 11
13.6408769702
 21
1.4982798383
 31
0.0
  0
LINE
  5
1DD
330
1F
100
AcDbEntity
  8
0
  6
CONTINUOUS
 62
     7
100
AcDbLine
 10
13.6408769702
 20
2.5727254263
 30
0.0
 11
15.1582962409
 21
2.7054824526
 31
0.0
  0
LINE
  5
1DE
330
1F
100
AcDbEntity
  8
0
  6
CONTINUOUS
 62
     7
100
AcDbLine
 10
25.0207987351
 20
38.9017681501
 30
0.0
 11
25.0207987351
 21
39.741186933
 31
0.0
  0
ARC
  5
1DF
330
1F
100
AcDbEntity
  8
0
  6
CONTINUOUS
 62
     7
100
AcDbCircle
 10
24.7845779555
 20
38.9017680962
 30
0.0
 40
0.2362204724409455
100
AcDbArc
 50
280.0
 51
0.0
  0
LINE
  5
1E0
330
1F
100
AcDbEntity
  8
0
  6
CONTINUOUS
 62
     7
100
AcDbLine
 10
24.8255982167
 20
38.6691363841
 30
0.0
 11
24.4285984296
 21
38.5991337795
 31
0.0
  0
ARC
  5
1E1
330
1F
100
AcDbEntity
  8
0
  6
CONTINUOUS
 62
     7
100
AcDbCircle
 10
24.4696173256
 20
38.3665029313
 30
0.0
 40
0.236220472440948
100
AcDbArc
 50
100.0
 51
180.0
  0
LINE
  5
1E2
330
1F
100
AcDbEntity
  8
0
  6
CONTINUOUS
 62
     7
100
AcDbLine
 10
24.2333979112
 20
38.3665020135
 30
0.0
 11
24.2333979112
 21
5.7227634368
 31
0.0
  0
ARC
  5
1E3
330
1F
100
AcDbEntity
  8
0
  6
CONTINUOUS
 62
     7
100
AcDbCircle
 10
24.4696173256
 20
5.7227635304
 30
0.0
 40
0.2362204724409447
100
AcDbArc
 50
180.0
 51
260.0
  0
LINE
  5
1E4
330
1F
100
AcDbEntity
  8
0
  6
CONTINUOUS
 62
     7
100
AcDbLine
 10
24.4285984296
 20
5.4901316708
 30
0.0
 11
24.8255982167
 21
5.4201302395
 31
0.0
  0
ARC
  5
1E5
330
1F
100
AcDbEntity
  8
0
  6
CONTINUOUS
 62
     7
100
AcDbCircle
 10
24.7845779555
 20
5.1874983655
 30
0.0
 40
0.2362204724409445
100
AcDbArc
 50
0.0
 51
80.0
  0
LINE
  5
1E6
330
1F
100
AcDbEntity
  8
0
  6
CONTINUOUS
 62
     7
100
AcDbLine
 10
25.0207987351
 20
4.3480782239
 30
0.0
 11
25.0207987351
 21
5.1874984735
 31
0.0
  0
LINE
  5
1E7
330
1F
100
AcDbEntity
  8
0
  6
CONTINUOUS
 62
     7
100
AcDbLine
 10
25.0207987351
 20
4.3480782239
 30
0.0
 11
23.4459947407
 21
4.2103008555
 31
0.0
  0
LINE
  5
1E8
330
1F
100
AcDbEntity
  8
0
  6
CONTINUOUS
 62
     7
100
AcDbLine
 10
23.4459947407
 20
4.2103008555
 30
0.0
 11
23.4459947407
 21
39.878967528
 31
0.0
  0
LINE
  5
1E9
330
1F
100
AcDbEntity
  8
0
  6
CONTINUOUS
 62
     7
100
AcDbLine
 10
23.4459947407
 20
39.878967528
 30
0.0
 11
25.0207987351
 21
39.741186933
 31
0.0
  0
LINE
  5
1EA
330
1F
100
AcDbEntity
  8
0
  6
CONTINUOUS
 62
     7
100
AcDbLine
 10
13.6408769702
 20
40.7368003916
 30
0.0
 11
13.6408769702
 21
3.3524641787
 31
0.0
  0
LINE
  5
1EB
330
1F
100
AcDbEntity
  8
0
  6
CONTINUOUS
 62
     7
100
AcDbLine
 10
13.6408769702
 20
40.7368003916
 30
0.0
 11
22.682609426
 21
39.9457528899
 31
0.0
  0
LINE
  5
1EC
330
1F
100
AcDbEntity
  8
0
  6
CONTINUOUS
 62
     7
100
AcDbLine
 10
22.682609426
 20
39.9457528899
 30
0.0
 11
22.682609426
 21
4.1435131471
 31
0.0
  0
LINE
  5
1ED
330
1F
100
AcDbEntity
  8
0
  6
CONTINUOUS
 62
     7
100
AcDbLine
 10
22.682609426
 20
4.1435131471
 30
0.0
 11
13.6408769702
 21
3.3524641787
 31
0.0
  0
ARC
  5
1EE
330
1F
100
AcDbEntity
  8
0
  6
CONTINUOUS
 62
     7
100
AcDbCircle
 10
23.5204843297
 20
3.4967549847
 30
0.0
 40
0.0393700787401579
100
AcDbArc
 50
275.0000489546
 51
347.3995434107
  0
LINE
  5
1EF
330
1F
100
AcDbEntity
  8
0
  6
CONTINUOUS
 62
     7
100
AcDbLine
 10
23.5239149072
 20
3.4575346715
 30
0.0
 11
23.3653243126
 21
3.4436595785
 31
0.0
  0
ARC
  5
1F0
330
1F
100
AcDbEntity
  8
0
  6
CONTINUOUS
 62
     7
100
AcDbCircle
 10
23.361891843
 20
3.4828798034
 30
0.0
 40
0.0393700787401602
100
AcDbArc
 50
202.6004769824
 51
275.0000489546
  0
ARC
  5
1F1
330
1F
100
AcDbEntity
  8
0
  6
CONTINUOUS
 62
     7
100
AcDbCircle
 10
15.7446564827
 20
2.8164581985
 30
0.0
 40
0.0393700787401557
100
AcDbArc
 50
275.0000489546
 51
347.3995434107
  0
LINE
  5
1F2
330
1F
100
AcDbEntity
  8
0
  6
CONTINUOUS
 62
     7
100
AcDbLine
 10
15.7480877209
 20
2.777237997
 30
0.0
 11
15.5894947796
 21
2.7633626107
 31
0.0
  0
ARC
  5
1F3
330
1F
100
AcDbEntity
  8
0
  6
CONTINUOUS
 62
     7
100
AcDbCircle
 10
15.5860639961
 20
2.8025830173
 30
0.0
 40
0.0393700787401601
100
AcDbArc
 50
202.6004769824
 51
275.0000489546
  0
ARC
  5
1F4
330
1F
100
AcDbEntity
  8
0
  6
CONTINUOUS
 62
     7
100
AcDbCircle
 10
15.5860640512
 20
41.2866833031
 30
0.0
 40
0.0393700787401608
100
AcDbArc
 50
85.0000489546
 51
157.3995434107
  0
LINE
  5
1F5
330
1F
100
AcDbEntity
  8
0
  6
CONTINUOUS
 62
     7
100
AcDbLine
 10
15.5894947796
 20
41.3259054796
 30
0.0
 11
15.7480877209
 21
41.3120274532
 31
0.0
  0
ARC
  5
1F6
330
1F
100
AcDbEntity
  8
0
  6
CONTINUOUS
 62
     7
100
AcDbCircle
 10
15.7446565616
 20
41.2728083928
 30
0.0
 40
0.0393700787401614
100
AcDbArc
 50
12.6004769824
 51
85.0000489546
  0
ARC
  5
1F7
330
1F
100
AcDbEntity
  8
0
  6
CONTINUOUS
 62
     7
100
AcDbCircle
 10
23.3618918982
 20
40.6063865169
 30
0.0
 40
0.0393700787401605
100
AcDbArc
 50
85.0000489546
 51
157.3995434107
  0
LINE
  5
1F8
330
1F
100
AcDbEntity
  8
0
  6
CONTINUOUS
 62
     7
100
AcDbLine
 10
23.3653243126
 20
40.6456052851
 30
0.0
 11
23.5239149072
 21
40.631731952
 31
0.0
  0
ARC
  5
1F9
330
1F
100
AcDbEntity
  8
0
  6
CONTINUOUS
 62
     7
100
AcDbCircle
 10
23.5204844085
 20
40.5925116067
 30
0.0
 40
0.0393700787401601
100
AcDbArc
 50
12.6004769824
 51
85.0000489546
  0
LINE
  5
1FA
330
1F
100
AcDbEntity
  8
0
  6
CONTINUOUS
 62
     7
100
AcDbLine
 10
13.6408769702
 20
40.7368003916
 30
0.0
 11
13.6408769702
 21
41.516541784
 31
0.0
  0
LINE
  5
1FB
330
1F
100
AcDbEntity
  8
0
  6
CONTINUOUS
 62
     7
100
AcDbLine
 10
13.6408769702
 20
2.5727254263
 30
0.0
 11
13.6408769702
 21
3.3524641787
 31
0.0
  0
ARC
  5
1FC
330
1F
100
AcDbEntity
  8
0
  6
CONTINUOUS
 62
     7
100
AcDbCircle
 10
23.1376325005
 20
3.3895274585
 30
0.0
 40
0.2035433070866122
100
AcDbArc
 50
22.6004769824
 51
181.0551896256
  0
ARC
  5
1FD
330
1F
100
AcDbEntity
  8
0
  6
CONTINUOUS
 62
     7
100
AcDbCircle
 10
23.7575471523
 20
3.4437631822
 30
0.0
 40
0.2035433070866171
100
AcDbArc
 50
8.9447480122
 51
167.3995434107
  0
ARC
  5
1FE
330
1F
100
AcDbEntity
  8
0
  6
CONTINUOUS
 62
     7
100
AcDbCircle
 10
23.1376325224
 20
40.699738782
 30
0.0
 40
0.2035433070866182
100
AcDbArc
 50
178.9447480122
 51
337.3995434107
  0
ARC
  5
1FF
330
1F
100
AcDbEntity
  8
0
  6
CONTINUOUS
 62
     7
100
AcDbCircle
 10
23.7575472123
 20
40.6455034936
 30
0.0
 40
0.2035433070866135
100
AcDbArc
 50
192.6004769824
 51
351.0551903544
  0
LINE
  5
200
330
1F
100
AcDbEntity
  8
0
  6
CONTINUOUS
 62
     7
100
AcDbLine
 10
25.0207987351
 20
4.3480782239
 30
0.0
 11
25.0207987351
 21
3.5683394715
 31
0.0
  0
LINE
  5
201
330
1F
100
AcDbEntity
  8
0
  6
CONTINUOUS
 62
     7
100
AcDbLine
 10
25.0207987351
 20
40.5209283254
 30
0.0
 11
25.0207987351
 21
39.741186933
 31
0.0
  0
ARC
  5
202
330
1F
100
AcDbEntity
  8
0
  6
CONTINUOUS
 62
     7
100
AcDbCircle
 10
15.9817193654
 20
41.3258002797
 30
0.0
 40
0.2035433070866161
100
AcDbArc
 50
192.6004769824
 51
351.0551903544
  0
ARC
  5
203
330
1F
100
AcDbEntity
  8
0
  6
CONTINUOUS
 62
     7
100
AcDbCircle
 10
15.9817193054
 20
2.763466396
 30
0.0
 40
0.2035433070866144
100
AcDbArc
 50
8.9447480122
 51
167.3995434107
  0
ARC
  5
204
330
1F
100
AcDbEntity
  8
0
  6
CONTINUOUS
 62
     7
100
AcDbCircle
 10
15.3618046535
 20
2.7092306724
 30
0.0
 40
0.2035433070866163
100
AcDbArc
 50
22.6004769824
 51
181.0551896256
  0
ARC
  5
205
330
1F
100
AcDbEntity
  8
0
  6
CONTINUOUS
 62
     7
100
AcDbCircle
 10
15.3618046755
 20
41.3800355682
 30
0.0
 40
0.2035433070866177
100
AcDbArc
 50
178.9447480122
 51
337.3995434107
  0
LINE
  5
206
330
1F
100
AcDbEntity
  8
0
  6
CONTINUOUS
 62
     7
100
AcDbLine
 10
40.810564277
 20
13.7810526934
 30
0.0
 11
40.810564277
 21
15.2962543896
 31
0.0
  0
LINE
  5
207
330
1F
100
AcDbEntity
  8
0
  6
CONTINUOUS
 62
     7
100
AcDbLine
 10
34.1550509754
 20
13.7810526934
 30
0.0
 11
40.810564277
 21
13.7810526934
 31
0.0
  0
LINE
  5
208
330
1F
100
AcDbEntity
  8
0
  6
CONTINUOUS
 62
     7
100
AcDbLine
 10
34.1550509754
 20
15.2962543896
 30
0.0
 11
34.1550509754
 21
13.7810526934
 31
0.0
  0
LINE
  5
209
330
1F
100
AcDbEntity
  8
0
  6
CONTINUOUS
 62
     7
100
AcDbLine
 10
34.1550509754
 20
15.2962543896
 30
0.0
 11
40.810564277
 21
15.2962543896
 31
0.0
  0
LINE
  5
20A
330
1F
100
AcDbEntity
  8
0
  6
CONTINUOUS
 62
     7
100
AcDbLine
 10
40.810564277
 20
25.1388257007
 30
0.0
 11
34.1550509754
 21
25.1388257007
 31
0.0
  0
LINE
  5
20B
330
1F
100
AcDbEntity
  8
0
  6
CONTINUOUS
 62
     7
100
AcDbLine
 10
40.810564277
 20
16.0558123352
 30
0.0
 11
34.1550509754
 21
16.0558123352
 31
0.0
  0
LINE
  5
20C
330
1F
100
AcDbEntity
  8
0
  6
CONTINUOUS
 62
     7
100
AcDbLine
 10
34.1550509754
 20
25.1388257007
 30
0.0
 11
34.1550509754
 21
16.0558123352
 31
0.0
  0
LINE
  5
20D
330
1F
100
AcDbEntity
  8
0
  6
CONTINUOUS
 62
     7
100
AcDbLine
 10
40.810564277
 20
16.0558123352
 30
0.0
 11
40.810564277
 21
25.1388257007
 31
0.0
  0
LINE
  5
20E
330
1F
100
AcDbEntity
  8
0
  6
CONTINUOUS
 62
     7
100
AcDbLine
 10
34.1550509754
 20
15.2962543896
 30
0.0
 11
34.1550509754
 21
16.0558123352
 31
0.0
  0
LINE
  5
20F
330
1F
100
AcDbEntity
  8
0
  6
CONTINUOUS
 62
     7
100
AcDbLine
 10
40.810564277
 20
16.0558123352
 30
0.0
 11
40.810564277
 21
15.2962543896
 31
0.0
  0
LINE
  5
210
330
1F
100
AcDbEntity
  8
POCKETS
100
AcDbLine
 10
41.2042629949
 20
3.4586678992
 30
0.0
 11
33.761349609
 21
3.4586678992
 31
0.0
  0
LINE
  5
211
330
1F
100
AcDbEntity
  8
POCKETS
100
AcDbLine
 10
33.761349609
 20
3.4586678992
 30
0.0
 11
33.761349609
 21
2.6991101076
 31
0.0
  0
LINE
  5
212
330
1F
100
AcDbEntity
  8
POCKETS
100
AcDbLine
 10
33.761349609
 20
2.6991101076
 30
0.0
 11
41.2042629949
 21
2.6991101076
 31
0.0
  0
LINE
  5
213
330
1F
100
AcDbEntity
  8
PROFILES_OUTSIDE
100
AcDbLine
 10
12.4015070894
 20
38.9017680962
 30
0.0
 11
12.4015070894
 21
41.8531618841
 31
0.0
  0
LINE
  5
214
330
1F
100
AcDbEntity
  8
PROFILES_OUTSIDE
100
AcDbLine
 10
12.4015070894
 20
41.8531618841
 30
0.0
 11
1.0215858295
 21
42.8487759862
 31
0.0
  0
LINE
  5
215
330
1F
100
AcDbEntity
  8
PROFILES_OUTSIDE
100
AcDbLine
 10
1.0215858295
 20
42.8487759862
 30
0.0
 11
1.0215858295
 21
1.2404904756
 31
0.0
  0
LINE
  5
216
330
1F
100
AcDbEntity
  8
PROFILES_OUTSIDE
100
AcDbLine
 10
1.0215858295
 20
1.2404904756
 30
0.0
 11
12.4015070894
 21
2.2361045776
 31
0.0
  0
LINE
  5
217
330
1F
100
AcDbEntity
  8
POCKETS
100
AcDbLine
 10
41.2042629949
 20
2.6991101076
 30
0.0
 11
41.2042629949
 21
3.4586678992
 31
0.0
  0
LINE
  5
218
330
1F
100
AcDbEntity
  8
PROFILES_OUTSIDE
100
AcDbLine
 10
12.4015070894
 20
2.2361045776
 30
0.0
 11
12.4015070894
 21
5.1874983655
 31
0.0
  0
LINE
  5
219
330
1F
100
AcDbEntity
  8
PROFILES_OUTSIDE
100
AcDbLine
 10
12.2063058715
 20
5.4201301182
 30
0.0
 11
11.8093067324
 21
5.4901317777
 31
0.0
  0
LINE
  5
21A
330
1F
100
AcDbEntity
  8
PROFILES_OUTSIDE
100
AcDbLine
 10
11.6141055146
 20
5.7227635304
 30
0.0
 11
11.6141055146
 21
38.3665029313
 31
0.0
  0
LINE
  5
21B
330
1F
100
AcDbEntity
  8
PROFILES_OUTSIDE
100
AcDbLine
 10
11.8093067324
 20
38.599134684
 30
0.0
 11
12.2063058715
 21
38.6691363435
 31
0.0
  0
LINE
  5
21C
330
1F
100
AcDbEntity
  8
PROFILES_INSIDE
100
AcDbLine
 10
11.3274616337
 20
40.7315693469
 30
0.0
 11
11.370234637
 21
41.2204670118
 31
0.0
  0
LINE
  5
21D
330
1F
100
AcDbEntity
  8
PROFILES_INSIDE
100
AcDbLine
 10
10.7460318545
 20
40.6456067836
 30
0.0
 11
10.9046243649
 21
40.6317318733
 31
0.0
  0
LINE
  5
21E
330
1F
100
AcDbEntity
  8
PROFILES_INSIDE
100
AcDbLine
 10
10.3897280173
 20
41.3062505338
 30
0.0
 11
10.3469550144
 21
40.8173522524
 31
0.0
  0
LINE
  5
21F
330
1F
100
AcDbEntity
  8
PROFILES_INSIDE
100
AcDbLine
 10
10.9711578236
 20
41.3922127866
 30
0.0
 11
10.8125653088
 21
41.4060876454
 31
0.0
  0
LINE
  5
220
330
1F
100
AcDbEntity
  8
PROFILES_OUTSIDE
100
AcDbLine
 10
32.9156803177
 20
1.1839079635
 30
0.0
 11
32.9156803177
 21
37.760679617
 31
0.0
  0
LINE
  5
221
330
1F
100
AcDbEntity
  8
PROFILES_OUTSIDE
100
AcDbLine
 10
32.9156803177
 20
37.760679617
 30
0.0
 11
26.2601685067
 21
37.760679617
 31
0.0
  0
LINE
  5
222
330
1F
100
AcDbEntity
  8
PROFILES_OUTSIDE
100
AcDbLine
 10
26.2601685067
 20
37.760679617
 30
0.0
 11
26.2601685067
 21
1.1839079635
 31
0.0
  0
LINE
  5
223
330
1F
100
AcDbEntity
  8
PROFILES_OUTSIDE
100
AcDbLine
 10
26.2601685067
 20
1.1839079635
 30
0.0
 11
32.9156803177
 21
1.1839079635
 31
0.0
  0
LINE
  5
224
330
1F
100
AcDbEntity
  8
PROFILES_OUTSIDE
100
AcDbLine
 10
40.8105622075
 20
12.5416821762
 30
0.0
 11
34.1550503964
 21
12.5416821762
 31
0.0
  0
LINE
  5
225
330
1F
100
AcDbEntity
  8
PROFILES_OUTSIDE
100
AcDbLine
 10
34.1550503964
 20
12.5416821762
 30
0.0
 11
34.1550503964
 21
1.1839079635
 31
0.0
  0
LINE
  5
226
330
1F
100
AcDbEntity
  8
PROFILES_OUTSIDE
100
AcDbLine
 10
34.1550503964
 20
1.1839079635
 30
0.0
 11
40.8105622075
 21
1.1839079635
 31
0.0
  0
LINE
  5
227
330
1F
100
AcDbEntity
  8
PROFILES_OUTSIDE
100
AcDbLine
 10
40.8105622075
 20
1.1839079635
 30
0.0
 11
40.8105622075
 21
12.5416821762
 31
0.0
  0
LINE
  5
228
330
1F
100
AcDbEntity
  8
PROFILES_OUTSIDE
100
AcDbLine
 10
34.1550503964
 20
25.1388264676
 30
0.0
 11
34.1550503964
 21
13.7810522549
 31
0.0
  0
LINE
  5
229
330
1F
100
AcDbEntity
  8
PROFILES_OUTSIDE
100
AcDbLine
 10
34.1550503964
 20
13.7810522549
 30
0.0
 11
40.8105622075
 21
13.7810522549
 31
0.0
  0
LINE
  5
22A
330
1F
100
AcDbEntity
  8
BOX_STOCK
100
AcDbLine
 10
0.0082000027
 20
0.1705221367
 30
0.0
 11
96.0711921287
 21
0.1705221367
 31
0.0
  0
LINE
  5
22B
330
1F
100
AcDbEntity
  8
BOX_STOCK
100
AcDbLine
 10
96.0711921287
 20
0.1705221367
 30
0.0
 11
96.0711921287
 21
48.2020181997
 31
0.0
  0
LINE
  5
22C
330
1F
100
AcDbEntity
  8
BOX_STOCK
100
AcDbLine
 10
96.0711921287
 20
48.2020181997
 30
0.0
 11
0.0082000027
 21
48.2020181997
 31
0.0
  0
LINE
  5
22D
330
1F
100
AcDbEntity
  8
BOX_STOCK
100
AcDbLine
 10
0.0082000027
 20
48.2020181997
 30
0.0
 11
0.0082000027
 21
0.1705221367
 31
0.0
  0
LINE
  5
22E
330
1F
100
AcDbEntity
  8
POCKETS
100
AcDbLine
 10
41.2042629949
 20
16.0558121906
 30
0.0
 11
33.761349609
 21
16.0558121906
 31
0.0
  0
LINE
  5
22F
330
1F
100
AcDbEntity
  8
PROFILES_OUTSIDE
100
AcDbLine
 10
40.8105622075
 20
13.7810522549
 30
0.0
 11
40.8105622075
 21
25.1388264676
 31
0.0
  0
LINE
  5
230
330
1F
100
AcDbEntity
  8
POCKETS
100
AcDbLine
 10
33.761349609
 20
16.0558121906
 30
0.0
 11
33.761349609
 21
15.2962543991
 31
0.0
  0
LINE
  5
231
330
1F
100
AcDbEntity
  8
POCKETS
100
AcDbLine
 10
33.761349609
 20
15.2962543991
 30
0.0
 11
41.2042629949
 21
15.2962543991
 31
0.0
  0
LINE
  5
232
330
1F
100
AcDbEntity
  8
POCKETS
100
AcDbLine
 10
41.2042629949
 20
15.2962543991
 30
0.0
 11
41.2042629949
 21
16.0558121906
 31
0.0
  0
LINE
  5
233
330
1F
100
AcDbEntity
  8
PROFILES_OUTSIDE
100
AcDbLine
 10
40.8105622075
 20
25.1388264676
 30
0.0
 11
34.1550503964
 21
25.1388264676
 31
0.0
  0
LINE
  5
234
330
1F
100
AcDbEntity
  8
PROFILES_INSIDE
100
AcDbLine
 10
3.5459625367
 20
41.4123623032
 30
0.0
 11
3.58873554
 21
41.9012599681
 31
0.0
  0
LINE
  5
235
330
1F
100
AcDbEntity
  8
PROFILES_INSIDE
100
AcDbLine
 10
3.1896587265
 20
42.0730057428
 30
0.0
 11
3.0310662146
 21
42.0868806343
 31
0.0
  0
LINE
  5
236
330
1F
100
AcDbEntity
  8
PROFILES_INSIDE
100
AcDbLine
 10
2.6082289155
 20
41.9870434905
 30
0.0
 11
2.5654559173
 21
41.4981452086
 31
0.0
  0
LINE
  5
237
330
1F
100
AcDbEntity
  8
PROFILES_INSIDE
100
AcDbLine
 10
2.9645327575
 20
41.3263997398
 30
0.0
 11
3.1231252678
 21
41.3125248296
 31
0.0
  0
LINE
  5
238
330
1F
100
AcDbEntity
  8
PROFILES_INSIDE
100
AcDbLine
 10
11.370234637
 20
2.8687994499
 30
0.0
 11
11.3274616337
 21
3.3576971148
 31
0.0
  0
LINE
  5
239
330
1F
100
AcDbEntity
  8
PROFILES_INSIDE
100
AcDbLine
 10
10.904624353
 20
3.4575347239
 30
0.0
 11
10.7460318668
 21
3.443659538
 31
0.0
  0
LINE
  5
23A
330
1F
100
AcDbEntity
  8
PROFILES_INSIDE
100
AcDbLine
 10
10.3469549511
 20
3.2719142038
 30
0.0
 11
10.3897280712
 21
2.7830159326
 31
0.0
  0
LINE
  5
23B
330
1F
100
AcDbEntity
  8
PROFILES_INSIDE
100
AcDbLine
 10
10.8125653251
 20
2.6831786294
 30
0.0
 11
10.9711578118
 21
2.6970538107
 31
0.0
  0
LINE
  5
23C
330
1F
100
AcDbEntity
  8
PROFILES_INSIDE
100
AcDbLine
 10
2.5654558633
 20
2.5911212484
 30
0.0
 11
2.6082289741
 21
2.1022229764
 31
0.0
  0
LINE
  5
23D
330
1F
100
AcDbEntity
  8
PROFILES_INSIDE
100
AcDbLine
 10
3.031066228
 20
2.0023856732
 30
0.0
 11
3.1896587147
 21
2.0162608544
 31
0.0
  0
LINE
  5
23E
330
1F
100
AcDbEntity
  8
PROFILES_INSIDE
100
AcDbLine
 10
3.58873554
 20
2.1880064937
 30
0.0
 11
3.5459625367
 21
2.6769041585
 31
0.0
  0
LINE
  5
23F
330
1F
100
AcDbEntity
  8
PROFILES_INSIDE
100
AcDbLine
 10
3.123125256
 20
2.7767417677
 30
0.0
 11
2.9645327693
 21
2.7628665864
 31
0.0
  0
LINE
  5
240
330
1F
100
AcDbEntity
  8
PROFILES_OUTSIDE
100
AcDbLine
 10
42.2550503964
 20
10.717650808
 30
0.0
 11
42.0893023649
 21
10.717650808
 31
0.0
  0
LINE
  5
241
330
1F
100
AcDbEntity
  8
PROFILES_OUTSIDE
100
AcDbLine
 10
42.2684396735
 20
10.5084433541
 30
0.0
 11
42.2550503964
 21
10.717650808
 31
0.0
  0
LINE
  5
242
330
1F
100
AcDbEntity
  8
PROFILES_OUTSIDE
100
AcDbLine
 10
42.8978740821
 20
10.4715878159
 30
0.0
 11
42.3077293692
 21
10.4715878159
 31
0.0
  0
LINE
  5
243
330
1F
100
AcDbEntity
  8
PROFILES_OUTSIDE
100
AcDbLine
 10
43.0341842547
 20
10.9637925403
 30
0.0
 11
43.0341842547
 21
10.8841146521
 31
0.0
  0
LINE
  5
244
330
1F
100
AcDbEntity
  8
PROFILES_OUTSIDE
100
AcDbLine
 10
44.7270976405
 20
10.9637925403
 30
0.0
 11
43.0341842547
 21
10.9637925403
 31
0.0
  0
LINE
  5
245
330
1F
100
AcDbEntity
  8
PROFILES_OUTSIDE
100
AcDbLine
 10
45.1995385854
 20
8.0187916446
 30
0.0
 11
45.1995385854
 21
10.4913515954
 31
0.0
  0
LINE
  5
246
330
1F
100
AcDbEntity
  8
PROFILES_OUTSIDE
100
AcDbLine
 10
46.3019007901
 20
7.5463506997
 30
0.0
 11
45.6719795303
 21
7.5463506997
 31
0.0
  0
LINE
  5
247
330
1F
100
AcDbEntity
  8
PROFILES_OUTSIDE
100
AcDbLine
 10
46.774341735
 20
10.4913515954
 30
0.0
 11
46.774341735
 21
8.0187916446
 31
0.0
  0
LINE
  5
248
330
1F
100
AcDbEntity
  8
PROFILES_INSIDE
100
AcDbLine
 10
23.9467529723
 20
40.7315693469
 30
0.0
 11
23.9895259756
 21
41.2204670118
 31
0.0
  0
LINE
  5
249
330
1F
100
AcDbEntity
  8
PROFILES_INSIDE
100
AcDbLine
 10
23.3653231931
 20
40.6456067836
 30
0.0
 11
23.5239157035
 21
40.6317318733
 31
0.0
  0
LINE
  5
24A
330
1F
100
AcDbEntity
  8
PROFILES_INSIDE
100
AcDbLine
 10
23.0090193558
 20
41.3062505338
 30
0.0
 11
22.966246353
 21
40.8173522524
 31
0.0
  0
LINE
  5
24B
330
1F
100
AcDbEntity
  8
PROFILES_INSIDE
100
AcDbLine
 10
23.5904491622
 20
41.3922127866
 30
0.0
 11
23.4318566474
 21
41.4060876454
 31
0.0
  0
LINE
  5
24C
330
1F
100
AcDbEntity
  8
PROFILES_INSIDE
100
AcDbLine
 10
16.1709251254
 20
41.4118661331
 30
0.0
 11
16.2136981287
 21
41.900763798
 31
0.0
  0
LINE
  5
24D
330
1F
100
AcDbEntity
  8
PROFILES_INSIDE
100
AcDbLine
 10
15.8146213153
 20
42.0725095727
 30
0.0
 11
15.6560288033
 21
42.0863844642
 31
0.0
  0
LINE
  5
24E
330
1F
100
AcDbEntity
  8
PROFILES_INSIDE
100
AcDbLine
 10
15.2331915042
 20
41.9865473204
 30
0.0
 11
15.190418506
 21
41.4976490385
 31
0.0
  0
LINE
  5
24F
330
1F
100
AcDbEntity
  8
PROFILES_INSIDE
100
AcDbLine
 10
15.5894953462
 20
41.3259035697
 30
0.0
 11
15.7480878565
 21
41.3120286595
 31
0.0
  0
LINE
  5
250
330
1F
100
AcDbEntity
  8
PROFILES_INSIDE
100
AcDbLine
 10
23.9895259756
 20
2.8687994499
 30
0.0
 11
23.9467529723
 21
3.3576971148
 31
0.0
  0
LINE
  5
251
330
1F
100
AcDbEntity
  8
PROFILES_INSIDE
100
AcDbLine
 10
23.5239156916
 20
3.4575347239
 30
0.0
 11
23.3653232054
 21
3.443659538
 31
0.0
  0
LINE
  5
252
330
1F
100
AcDbEntity
  8
PROFILES_INSIDE
100
AcDbLine
 10
22.9662462897
 20
3.2719142038
 30
0.0
 11
23.0090194098
 21
2.7830159326
 31
0.0
  0
LINE
  5
253
330
1F
100
AcDbEntity
  8
PROFILES_INSIDE
100
AcDbLine
 10
23.4318566637
 20
2.6831786294
 30
0.0
 11
23.5904491504
 21
2.6970538107
 31
0.0
  0
LINE
  5
254
330
1F
100
AcDbEntity
  8
PROFILES_OUTSIDE
100
AcDbLine
 10
48.9396960657
 20
10.9637925403
 30
0.0
 11
47.2467826799
 21
10.9637925403
 31
0.0
  0
LINE
  5
255
330
1F
100
AcDbEntity
  8
PROFILES_OUTSIDE
100
AcDbLine
 10
48.9396960657
 20
10.8841146521
 30
0.0
 11
48.9396960657
 21
10.9637925403
 31
0.0
  0
LINE
  5
256
330
1F
100
AcDbEntity
  8
PROFILES_OUTSIDE
100
AcDbLine
 10
49.6661509513
 20
10.4715878159
 30
0.0
 11
49.0760062383
 21
10.4715878159
 31
0.0
  0
LINE
  5
257
330
1F
100
AcDbEntity
  8
PROFILES_OUTSIDE
100
AcDbLine
 10
49.718829924
 20
10.717650808
 30
0.0
 11
49.705440647
 21
10.5084433541
 31
0.0
  0
LINE
  5
258
330
1F
100
AcDbEntity
  8
PROFILES_OUTSIDE
100
AcDbLine
 10
49.8845779555
 20
10.717650808
 30
0.0
 11
49.718829924
 21
10.717650808
 31
0.0
  0
LINE
  5
259
330
1F
100
AcDbEntity
  8
PROFILES_INSIDE
100
AcDbLine
 10
15.1904184521
 20
2.5916174185
 30
0.0
 11
15.2331915628
 21
2.1027191465
 31
0.0
  0
LINE
  5
25A
330
1F
100
AcDbEntity
  8
PROFILES_INSIDE
100
AcDbLine
 10
15.6560288168
 20
2.0028818433
 30
0.0
 11
15.8146213034
 21
2.0167570245
 31
0.0
  0
LINE
  5
25B
330
1F
100
AcDbEntity
  8
PROFILES_INSIDE
100
AcDbLine
 10
16.2136981287
 20
2.1885026638
 30
0.0
 11
16.1709251254
 21
2.6774003286
 31
0.0
  0
LINE
  5
25C
330
1F
100
AcDbEntity
  8
PROFILES_INSIDE
100
AcDbLine
 10
15.7480878447
 20
2.7772379378
 30
0.0
 11
15.589495358
 21
2.7633627565
 31
0.0
  0
LINE
  5
25D
330
1F
100
AcDbEntity
  8
PROFILES_OUTSIDE
100
AcDbLine
 10
13.6408771681
 20
42.5909865765
 30
0.0
 11
13.6408771681
 21
1.4982798853
 31
0.0
  0
LINE
  5
25E
330
1F
100
AcDbEntity
  8
PROFILES_OUTSIDE
100
AcDbLine
 10
24.8051659262
 20
41.8720272835
 30
0.0
 11
13.8976856113
 21
42.8263081587
 31
0.0
  0
LINE
  5
25F
330
1F
100
AcDbEntity
  8
PROFILES_OUTSIDE
100
AcDbLine
 10
25.0207984279
 20
38.9017680962
 30
0.0
 11
25.0207984279
 21
41.6367057013
 31
0.0
  0
LINE
  5
260
330
1F
100
AcDbEntity
  8
PROFILES_OUTSIDE
100
AcDbLine
 10
24.428598071
 20
38.599134684
 30
0.0
 11
24.8255972101
 21
38.6691363435
 31
0.0
  0
LINE
  5
261
330
1F
100
AcDbEntity
  8
POCKETS
100
AcDbLine
 10
12.8058779644
 20
4.3834561505
 30
0.0
 11
12.4136753273
 21
4.3491428659
 31
0.0
  0
LINE
  5
262
330
1F
100
AcDbEntity
  8
PROFILES_OUTSIDE
100
AcDbLine
 10
49.9239480342
 20
10.2156823041
 30
0.0
 11
49.9239480342
 21
10.6782807293
 31
0.0
  0
LINE
  5
263
330
1F
100
AcDbEntity
  8
PROFILES_OUTSIDE
100
AcDbLine
 10
47.6217826799
 20
9.9794618316
 30
0.0
 11
49.6877275618
 21
9.9794618316
 31
0.0
  0
LINE
  5
264
330
1F
100
AcDbEntity
  8
PROFILES_OUTSIDE
100
AcDbLine
 10
47.149341735
 20
7.5463506997
 30
0.0
 11
47.149341735
 21
9.5070208868
 31
0.0
  0
LINE
  5
265
330
1F
100
AcDbEntity
  8
PROFILES_OUTSIDE
100
AcDbLine
 10
46.774341735
 20
5.2508688569
 30
0.0
 11
46.774341735
 21
6.8968316469
 31
0.0
  0
LINE
  5
266
330
1F
100
AcDbEntity
  8
PROFILES_OUTSIDE
100
AcDbLine
 10
47.149341735
 20
2.640679617
 30
0.0
 11
47.149341735
 21
4.6013498041
 31
0.0
  0
LINE
  5
267
330
1F
100
AcDbEntity
  8
PROFILES_OUTSIDE
100
AcDbLine
 10
49.6877275618
 20
2.1682386722
 30
0.0
 11
47.6217826799
 21
2.1682386722
 31
0.0
  0
LINE
  5
268
330
1F
100
AcDbEntity
  8
PROFILES_OUTSIDE
100
AcDbLine
 10
49.9239480342
 20
1.4694197745
 30
0.0
 11
49.9239480342
 21
1.9320181997
 31
0.0
  0
LINE
  5
269
330
1F
100
AcDbEntity
  8
PROFILES_OUTSIDE
100
AcDbLine
 10
49.718829924
 20
1.4300496958
 30
0.0
 11
49.8845779555
 21
1.4300496958
 31
0.0
  0
LINE
  5
26A
330
1F
100
AcDbEntity
  8
PROFILES_OUTSIDE
100
AcDbLine
 10
49.705440647
 20
1.6392571497
 30
0.0
 11
49.718829924
 21
1.4300496958
 31
0.0
  0
LINE
  5
26B
330
1F
100
AcDbEntity
  8
PROFILES_OUTSIDE
100
AcDbLine
 10
49.0760062383
 20
1.6761126879
 30
0.0
 11
49.6661509513
 21
1.6761126879
 31
0.0
  0
LINE
  5
26C
330
1F
100
AcDbEntity
  8
PROFILES_OUTSIDE
100
AcDbLine
 10
48.9396960657
 20
1.1839079635
 30
0.0
 11
48.9396960657
 21
1.2635858517
 31
0.0
  0
LINE
  5
26D
330
1F
100
AcDbEntity
  8
PROFILES_OUTSIDE
100
AcDbLine
 10
47.2467826799
 20
1.1839079635
 30
0.0
 11
48.9396960657
 21
1.1839079635
 31
0.0
  0
LINE
  5
26E
330
1F
100
AcDbEntity
  8
PROFILES_OUTSIDE
100
AcDbLine
 10
46.774341735
 20
4.1289088592
 30
0.0
 11
46.774341735
 21
1.6563489084
 31
0.0
  0
LINE
  5
26F
330
1F
100
AcDbEntity
  8
PROFILES_OUTSIDE
100
AcDbLine
 10
45.6719795303
 20
4.6013498041
 30
0.0
 11
46.3019007901
 21
4.6013498041
 31
0.0
  0
LINE
  5
270
330
1F
100
AcDbEntity
  8
PROFILES_OUTSIDE
100
AcDbLine
 10
45.1995385854
 20
1.6563489084
 30
0.0
 11
45.1995385854
 21
4.1289088592
 31
0.0
  0
LINE
  5
271
330
1F
100
AcDbEntity
  8
PROFILES_OUTSIDE
100
AcDbLine
 10
43.0341842547
 20
1.1839079635
 30
0.0
 11
44.7270976405
 21
1.1839079635
 31
0.0
  0
LINE
  5
272
330
1F
100
AcDbEntity
  8
PROFILES_OUTSIDE
100
AcDbLine
 10
24.2333968531
 20
5.7227635304
 30
0.0
 11
24.2333968531
 21
38.3665029313
 31
0.0
  0
LINE
  5
273
330
1F
100
AcDbEntity
  8
POCKETS
100
AcDbLine
 10
12.8735780748
 20
3.6096403476
 30
0.0
 11
12.8058779644
 21
4.3834561505
 31
0.0
  0
LINE
  5
274
330
1F
100
AcDbEntity
  8
PROFILES_OUTSIDE
100
AcDbLine
 10
24.8255972101
 20
5.4201301182
 30
0.0
 11
24.428598071
 21
5.4901317777
 31
0.0
  0
LINE
  5
275
330
1F
100
AcDbEntity
  8
POCKETS
100
AcDbLine
 10
12.4813754378
 20
3.5753270631
 30
0.0
 11
12.8735780748
 21
3.6096403476
 31
0.0
  0
LINE
  5
276
330
1F
100
AcDbEntity
  8
POCKETS
100
AcDbLine
 10
1.0094175915
 20
2.5716608031
 30
0.0
 11
12.4813754378
 21
3.5753270631
 31
0.0
  0
LINE
  5
277
330
1F
100
AcDbEntity
  8
POCKETS
100
AcDbLine
 10
0.6172149545
 20
2.5373475185
 30
0.0
 11
1.0094175915
 21
2.5716608031
 31
0.0
  0
LINE
  5
278
330
1F
100
AcDbEntity
  8
POCKETS
100
AcDbLine
 10
0.5495148441
 20
3.3111633214
 30
0.0
 11
0.6172149545
 21
2.5373475185
 31
0.0
  0
LINE
  5
279
330
1F
100
AcDbEntity
  8
POCKETS
100
AcDbLine
 10
0.9417174811
 20
3.345476606
 30
0.0
 11
0.5495148441
 21
3.3111633214
 31
0.0
  0
LINE
  5
27A
330
1F
100
AcDbEntity
  8
POCKETS
100
AcDbLine
 10
10.063318113
 20
4.1435132545
 30
0.0
 11
0.9417174811
 21
3.345476606
 31
0.0
  0
LINE
  5
27B
330
1F
100
AcDbEntity
  8
POCKETS
100
AcDbLine
 10
10.063318113
 20
39.9457532073
 30
0.0
 11
10.063318113
 21
4.1435132545
 31
0.0
  0
LINE
  5
27C
330
1F
100
AcDbEntity
  8
POCKETS
100
AcDbLine
 10
0.9417174811
 20
40.7437898558
 30
0.0
 11
10.063318113
 21
39.9457532073
 31
0.0
  0
LINE
  5
27D
330
1F
100
AcDbEntity
  8
POCKETS
100
AcDbLine
 10
0.5495148441
 20
40.7781031403
 30
0.0
 11
0.9417174811
 21
40.7437898558
 31
0.0
  0
LINE
  5
27E
330
1F
100
AcDbEntity
  8
POCKETS
100
AcDbLine
 10
0.6172149545
 20
41.5519189432
 30
0.0
 11
0.5495148441
 21
40.7781031403
 31
0.0
  0
LINE
  5
27F
330
1F
100
AcDbEntity
  8
POCKETS
100
AcDbLine
 10
1.0094175915
 20
41.5176056587
 30
0.0
 11
0.6172149545
 21
41.5519189432
 31
0.0
  0
LINE
  5
280
330
1F
100
AcDbEntity
  8
POCKETS
100
AcDbLine
 10
12.4813754378
 20
40.5139393987
 30
0.0
 11
1.0094175915
 21
41.5176056587
 31
0.0
  0
LINE
  5
281
330
1F
100
AcDbEntity
  8
POCKETS
100
AcDbLine
 10
12.8735780748
 20
40.4796261141
 30
0.0
 11
12.4813754378
 21
40.5139393987
 31
0.0
  0
LINE
  5
282
330
1F
100
AcDbEntity
  8
POCKETS
100
AcDbLine
 10
12.8058779644
 20
39.7058103112
 30
0.0
 11
12.8735780748
 21
40.4796261141
 31
0.0
  0
LINE
  5
283
330
1F
100
AcDbEntity
  8
POCKETS
100
AcDbLine
 10
12.4136753273
 20
39.7401235958
 30
0.0
 11
12.8058779644
 21
39.7058103112
 31
0.0
  0
LINE
  5
284
330
1F
100
AcDbEntity
  8
POCKETS
100
AcDbLine
 10
10.8267039398
 20
39.8789656015
 30
0.0
 11
12.4136753273
 21
39.7401235958
 31
0.0
  0
LINE
  5
285
330
1F
100
AcDbEntity
  8
PROFILES_OUTSIDE
100
AcDbLine
 10
43.0341842547
 20
1.2635858517
 30
0.0
 11
43.0341842547
 21
1.1839079635
 31
0.0
  0
LINE
  5
286
330
1F
100
AcDbEntity
  8
PROFILES_OUTSIDE
100
AcDbLine
 10
42.3077293692
 20
1.6761126879
 30
0.0
 11
42.8978740821
 21
1.6761126879
 31
0.0
  0
LINE
  5
287
330
1F
100
AcDbEntity
  8
PROFILES_OUTSIDE
100
AcDbLine
 10
42.2550503964
 20
1.4300496958
 30
0.0
 11
42.2684396735
 21
1.6392571497
 31
0.0
  0
LINE
  5
288
330
1F
100
AcDbEntity
  8
PROFILES_OUTSIDE
100
AcDbLine
 10
42.0893023649
 20
1.4300496958
 30
0.0
 11
42.2550503964
 21
1.4300496958
 31
0.0
  0
LINE
  5
289
330
1F
100
AcDbEntity
  8
PROFILES_OUTSIDE
100
AcDbLine
 10
42.0499322862
 20
1.9320181997
 30
0.0
 11
42.0499322862
 21
1.4694197745
 31
0.0
  0
LINE
  5
28A
330
1F
100
AcDbEntity
  8
PROFILES_OUTSIDE
100
AcDbLine
 10
44.3520976405
 20
2.1682386722
 30
0.0
 11
42.2861527586
 21
2.1682386722
 31
0.0
  0
LINE
  5
28B
330
1F
100
AcDbEntity
  8
PROFILES_OUTSIDE
100
AcDbLine
 10
44.8245385854
 20
4.6013498041
 30
0.0
 11
44.8245385854
 21
2.640679617
 31
0.0
  0
LINE
  5
28C
330
1F
100
AcDbEntity
  8
PROFILES_OUTSIDE
100
AcDbLine
 10
45.1995385854
 20
6.8968316469
 30
0.0
 11
45.1995385854
 21
5.2508688569
 31
0.0
  0
LINE
  5
28D
330
1F
100
AcDbEntity
  8
PROFILES_OUTSIDE
100
AcDbLine
 10
44.8245385854
 20
9.5070208868
 30
0.0
 11
44.8245385854
 21
7.5463506997
 31
0.0
  0
LINE
  5
28E
330
1F
100
AcDbEntity
  8
PROFILES_OUTSIDE
100
AcDbLine
 10
42.2861527586
 20
9.9794618316
 30
0.0
 11
44.3520976405
 21
9.9794618316
 31
0.0
  0
LINE
  5
28F
330
1F
100
AcDbEntity
  8
PROFILES_OUTSIDE
100
AcDbLine
 10
42.0499322862
 20
10.6782807293
 30
0.0
 11
42.0499322862
 21
10.2156823041
 31
0.0
  0
LINE
  5
290
330
1F
100
AcDbEntity
  8
POCKETS
100
AcDbLine
 10
10.8267039398
 20
4.2103008602
 30
0.0
 11
10.8267039398
 21
39.8789656015
 31
0.0
  0
LINE
  5
291
330
1F
100
AcDbEntity
  8
PROFILES_OUTSIDE
100
AcDbLine
 10
49.718829924
 20
12.449146871
 30
0.0
 11
49.8845779555
 21
12.449146871
 31
0.0
  0
LINE
  5
292
330
1F
100
AcDbEntity
  8
PROFILES_OUTSIDE
100
AcDbLine
 10
49.705440647
 20
12.6583543249
 30
0.0
 11
49.718829924
 21
12.449146871
 31
0.0
  0
LINE
  5
293
330
1F
100
AcDbEntity
  8
PROFILES_OUTSIDE
100
AcDbLine
 10
49.0760062383
 20
12.6952098631
 30
0.0
 11
49.6661509513
 21
12.6952098631
 31
0.0
  0
LINE
  5
294
330
1F
100
AcDbEntity
  8
PROFILES_OUTSIDE
100
AcDbLine
 10
48.9396960657
 20
12.2030051387
 30
0.0
 11
48.9396960657
 21
12.2826830269
 31
0.0
  0
LINE
  5
295
330
1F
100
AcDbEntity
  8
PROFILES_OUTSIDE
100
AcDbLine
 10
47.2467826799
 20
12.2030051387
 30
0.0
 11
48.9396960657
 21
12.2030051387
 31
0.0
  0
LINE
  5
296
330
1F
100
AcDbEntity
  8
PROFILES_OUTSIDE
100
AcDbLine
 10
46.774341735
 20
15.1480060344
 30
0.0
 11
46.774341735
 21
12.6754460836
 31
0.0
  0
LINE
  5
297
330
1F
100
AcDbEntity
  8
PROFILES_OUTSIDE
100
AcDbLine
 10
45.6719795303
 20
15.6204469793
 30
0.0
 11
46.3019007901
 21
15.6204469793
 31
0.0
  0
LINE
  5
298
330
1F
100
AcDbEntity
  8
PROFILES_OUTSIDE
100
AcDbLine
 10
45.1995385854
 20
12.6754460836
 30
0.0
 11
45.1995385854
 21
15.1480060344
 31
0.0
  0
LINE
  5
299
330
1F
100
AcDbEntity
  8
PROFILES_OUTSIDE
100
AcDbLine
 10
43.0341842547
 20
12.2030051387
 30
0.0
 11
44.7270976405
 21
12.2030051387
 31
0.0
  0
LINE
  5
29A
330
1F
100
AcDbEntity
  8
PROFILES_OUTSIDE
100
AcDbLine
 10
43.0341842547
 20
12.2826830269
 30
0.0
 11
43.0341842547
 21
12.2030051387
 31
0.0
  0
LINE
  5
29B
330
1F
100
AcDbEntity
  8
PROFILES_OUTSIDE
100
AcDbLine
 10
42.3077293692
 20
12.6952098631
 30
0.0
 11
42.8978740821
 21
12.6952098631
 31
0.0
  0
LINE
  5
29C
330
1F
100
AcDbEntity
  8
PROFILES_OUTSIDE
100
AcDbLine
 10
42.2550503964
 20
12.449146871
 30
0.0
 11
42.2684396735
 21
12.6583543249
 31
0.0
  0
LINE
  5
29D
330
1F
100
AcDbEntity
  8
PROFILES_OUTSIDE
100
AcDbLine
 10
42.0893023649
 20
12.449146871
 30
0.0
 11
42.2550503964
 21
12.449146871
 31
0.0
  0
LINE
  5
29E
330
1F
100
AcDbEntity
  8
PROFILES_OUTSIDE
100
AcDbLine
 10
42.0499322862
 20
12.9511153749
 30
0.0
 11
42.0499322862
 21
12.4885169497
 31
0.0
  0
LINE
  5
29F
330
1F
100
AcDbEntity
  8
PROFILES_OUTSIDE
100
AcDbLine
 10
44.3520976405
 20
13.1873358474
 30
0.0
 11
42.2861527586
 21
13.1873358474
 31
0.0
  0
LINE
  5
2A0
330
1F
100
AcDbEntity
  8
PROFILES_OUTSIDE
100
AcDbLine
 10
44.8245385854
 20
15.6204469793
 30
0.0
 11
44.8245385854
 21
13.6597767923
 31
0.0
  0
LINE
  5
2A1
330
1F
100
AcDbEntity
  8
PROFILES_OUTSIDE
100
AcDbLine
 10
45.1995385854
 20
17.9159288221
 30
0.0
 11
45.1995385854
 21
16.2699660321
 31
0.0
  0
LINE
  5
2A2
330
1F
100
AcDbEntity
  8
PROFILES_OUTSIDE
100
AcDbLine
 10
44.8245385854
 20
20.526118062
 30
0.0
 11
44.8245385854
 21
18.565447875
 31
0.0
  0
LINE
  5
2A3
330
1F
100
AcDbEntity
  8
PROFILES_OUTSIDE
100
AcDbLine
 10
42.2861527586
 20
20.9985590069
 30
0.0
 11
44.3520976405
 21
20.9985590069
 31
0.0
  0
LINE
  5
2A4
330
1F
100
AcDbEntity
  8
PROFILES_OUTSIDE
100
AcDbLine
 10
42.0499322862
 20
21.6973779045
 30
0.0
 11
42.0499322862
 21
21.2347794793
 31
0.0
  0
LINE
  5
2A5
330
1F
100
AcDbEntity
  8
PROFILES_OUTSIDE
100
AcDbLine
 10
42.2550503964
 20
21.7367479832
 30
0.0
 11
42.0893023649
 21
21.7367479832
 31
0.0
  0
LINE
  5
2A6
330
1F
100
AcDbEntity
  8
PROFILES_OUTSIDE
100
AcDbLine
 10
42.2684396735
 20
21.5275405293
 30
0.0
 11
42.2550503964
 21
21.7367479832
 31
0.0
  0
LINE
  5
2A7
330
1F
100
AcDbEntity
  8
PROFILES_OUTSIDE
100
AcDbLine
 10
42.8978740821
 20
21.4906849911
 30
0.0
 11
42.3077293692
 21
21.4906849911
 31
0.0
  0
LINE
  5
2A8
330
1F
100
AcDbEntity
  8
PROFILES_OUTSIDE
100
AcDbLine
 10
43.0341842547
 20
21.9828897155
 30
0.0
 11
43.0341842547
 21
21.9032118273
 31
0.0
  0
LINE
  5
2A9
330
1F
100
AcDbEntity
  8
PROFILES_OUTSIDE
100
AcDbLine
 10
44.7270976405
 20
21.9828897155
 30
0.0
 11
43.0341842547
 21
21.9828897155
 31
0.0
  0
LINE
  5
2AA
330
1F
100
AcDbEntity
  8
PROFILES_OUTSIDE
100
AcDbLine
 10
45.1995385854
 20
19.0378888198
 30
0.0
 11
45.1995385854
 21
21.5104487706
 31
0.0
  0
LINE
  5
2AB
330
1F
100
AcDbEntity
  8
PROFILES_OUTSIDE
100
AcDbLine
 10
46.3019007901
 20
18.565447875
 30
0.0
 11
45.6719795303
 21
18.565447875
 31
0.0
  0
LINE
  5
2AC
330
1F
100
AcDbEntity
  8
PROFILES_OUTSIDE
100
AcDbLine
 10
46.774341735
 20
21.5104487706
 30
0.0
 11
46.774341735
 21
19.0378888198
 31
0.0
  0
LINE
  5
2AD
330
1F
100
AcDbEntity
  8
PROFILES_OUTSIDE
100
AcDbLine
 10
48.9396960657
 20
21.9828897155
 30
0.0
 11
47.2467826799
 21
21.9828897155
 31
0.0
  0
LINE
  5
2AE
330
1F
100
AcDbEntity
  8
PROFILES_OUTSIDE
100
AcDbLine
 10
48.9396960657
 20
21.9032118273
 30
0.0
 11
48.9396960657
 21
21.9828897155
 31
0.0
  0
LINE
  5
2AF
330
1F
100
AcDbEntity
  8
PROFILES_OUTSIDE
100
AcDbLine
 10
49.6661509513
 20
21.4906849911
 30
0.0
 11
49.0760062383
 21
21.4906849911
 31
0.0
  0
LINE
  5
2B0
330
1F
100
AcDbEntity
  8
PROFILES_OUTSIDE
100
AcDbLine
 10
49.718829924
 20
21.7367479832
 30
0.0
 11
49.705440647
 21
21.5275405293
 31
0.0
  0
LINE
  5
2B1
330
1F
100
AcDbEntity
  8
PROFILES_OUTSIDE
100
AcDbLine
 10
49.8845779555
 20
21.7367479832
 30
0.0
 11
49.718829924
 21
21.7367479832
 31
0.0
  0
LINE
  5
2B2
330
1F
100
AcDbEntity
  8
PROFILES_OUTSIDE
100
AcDbLine
 10
49.9239480342
 20
21.2347794793
 30
0.0
 11
49.9239480342
 21
21.6973779045
 31
0.0
  0
LINE
  5
2B3
330
1F
100
AcDbEntity
  8
PROFILES_OUTSIDE
100
AcDbLine
 10
47.6217826799
 20
20.9985590069
 30
0.0
 11
49.6877275618
 21
20.9985590069
 31
0.0
  0
LINE
  5
2B4
330
1F
100
AcDbEntity
  8
PROFILES_OUTSIDE
100
AcDbLine
 10
47.149341735
 20
18.565447875
 30
0.0
 11
47.149341735
 21
20.526118062
 31
0.0
  0
LINE
  5
2B5
330
1F
100
AcDbEntity
  8
PROFILES_OUTSIDE
100
AcDbLine
 10
46.774341735
 20
16.2699660321
 30
0.0
 11
46.774341735
 21
17.9159288221
 31
0.0
  0
LINE
  5
2B6
330
1F
100
AcDbEntity
  8
PROFILES_OUTSIDE
100
AcDbLine
 10
47.149341735
 20
13.6597767923
 30
0.0
 11
47.149341735
 21
15.6204469793
 31
0.0
  0
LINE
  5
2B7
330
1F
100
AcDbEntity
  8
PROFILES_OUTSIDE
100
AcDbLine
 10
49.6877275618
 20
13.1873358474
 30
0.0
 11
47.6217826799
 21
13.1873358474
 31
0.0
  0
LINE
  5
2B8
330
1F
100
AcDbEntity
  8
PROFILES_OUTSIDE
100
AcDbLine
 10
49.9239480342
 20
12.4885169497
 30
0.0
 11
49.9239480342
 21
12.9511153749
 31
0.0
  0
LINE
  5
2B9
330
1F
100
AcDbEntity
  8
POCKETS
100
AcDbLine
 10
12.4136753273
 20
4.3491428659
 30
0.0
 11
10.8267039398
 21
4.2103008602
 31
0.0
  0
LINE
  5
2BA
330
1F
100
AcDbEntity
  8
POCKETS
100
AcDbLine
 10
23.4459952783
 20
39.8789656015
 30
0.0
 11
25.0329666659
 21
39.7401235958
 31
0.0
  0
LINE
  5
2BB
330
1F
100
AcDbEntity
  8
POCKETS
100
AcDbLine
 10
25.0329666659
 20
39.7401235958
 30
0.0
 11
25.425169303
 21
39.7058103112
 31
0.0
  0
LINE
  5
2BC
330
1F
100
AcDbEntity
  8
POCKETS
100
AcDbLine
 10
25.425169303
 20
39.7058103112
 30
0.0
 11
25.4928694134
 21
40.4796261141
 31
0.0
  0
LINE
  5
2BD
330
1F
100
AcDbEntity
  8
POCKETS
100
AcDbLine
 10
25.4928694134
 20
40.4796261141
 30
0.0
 11
25.1006667763
 21
40.5139393987
 31
0.0
  0
LINE
  5
2BE
330
1F
100
AcDbEntity
  8
POCKETS
100
AcDbLine
 10
25.1006667763
 20
40.5139393987
 30
0.0
 11
13.6940757372
 21
41.5118868041
 31
0.0
  0
LINE
  5
2BF
330
1F
100
AcDbEntity
  8
POCKETS
100
AcDbLine
 10
13.6940757372
 20
41.5118868041
 30
0.0
 11
13.3018731001
 21
41.5462000886
 31
0.0
  0
LINE
  5
2C0
330
1F
100
AcDbEntity
  8
POCKETS
100
AcDbLine
 10
13.3018731001
 20
41.5462000886
 30
0.0
 11
13.2341729897
 21
40.7723842857
 31
0.0
  0
LINE
  5
2C1
330
1F
100
AcDbEntity
  8
POCKETS
100
AcDbLine
 10
13.2341729897
 20
40.7723842857
 30
0.0
 11
13.6263756268
 21
40.7380710012
 31
0.0
  0
LINE
  5
2C2
330
1F
100
AcDbEntity
  8
POCKETS
100
AcDbLine
 10
13.6263756268
 20
40.7380710012
 30
0.0
 11
22.6826094516
 21
39.9457532073
 31
0.0
  0
LINE
  5
2C3
330
1F
100
AcDbEntity
  8
POCKETS
100
AcDbLine
 10
22.6826094516
 20
39.9457532073
 30
0.0
 11
22.6826094516
 21
4.1435132545
 31
0.0
  0
LINE
  5
2C4
330
1F
100
AcDbEntity
  8
POCKETS
100
AcDbLine
 10
22.6826094516
 20
4.1435132545
 30
0.0
 11
13.6263756268
 21
3.3511954605
 31
0.0
  0
LINE
  5
2C5
330
1F
100
AcDbEntity
  8
POCKETS
100
AcDbLine
 10
13.6263756268
 20
3.3511954605
 30
0.0
 11
13.2341729897
 21
3.316882176
 31
0.0
  0
LINE
  5
2C6
330
1F
100
AcDbEntity
  8
POCKETS
100
AcDbLine
 10
13.2341729897
 20
3.316882176
 30
0.0
 11
13.3018731001
 21
2.5430663731
 31
0.0
  0
LINE
  5
2C7
330
1F
100
AcDbEntity
  8
POCKETS
100
AcDbLine
 10
13.3018731001
 20
2.5430663731
 30
0.0
 11
13.6940757372
 21
2.5773796577
 31
0.0
  0
LINE
  5
2C8
330
1F
100
AcDbEntity
  8
POCKETS
100
AcDbLine
 10
13.6940757372
 20
2.5773796577
 30
0.0
 11
25.1006667763
 21
3.5753270631
 31
0.0
  0
LINE
  5
2C9
330
1F
100
AcDbEntity
  8
POCKETS
100
AcDbLine
 10
25.1006667763
 20
3.5753270631
 30
0.0
 11
25.4928694134
 21
3.6096403476
 31
0.0
  0
LINE
  5
2CA
330
1F
100
AcDbEntity
  8
POCKETS
100
AcDbLine
 10
25.4928694134
 20
3.6096403476
 30
0.0
 11
25.425169303
 21
4.3834561505
 31
0.0
  0
LINE
  5
2CB
330
1F
100
AcDbEntity
  8
POCKETS
100
AcDbLine
 10
25.425169303
 20
4.3834561505
 30
0.0
 11
25.0329666659
 21
4.3491428659
 31
0.0
  0
LINE
  5
2CC
330
1F
100
AcDbEntity
  8
POCKETS
100
AcDbLine
 10
25.0329666659
 20
4.3491428659
 30
0.0
 11
23.4459952783
 21
4.2103008602
 31
0.0
  0
LINE
  5
2CD
330
1F
100
AcDbEntity
  8
POCKETS
100
AcDbLine
 10
23.4459952783
 20
4.2103008602
 30
0.0
 11
23.4459952783
 21
39.8789656015
 31
0.0
  0
LINE
  5
2CE
330
1F
100
AcDbEntity
  8
PROFILES_OUTSIDE
100
AcDbLine
 10
25.0207984279
 20
2.4525607605
 30
0.0
 11
25.0207984279
 21
5.1874983655
 31
0.0
  0
LINE
  5
2CF
330
1F
100
AcDbEntity
  8
PROFILES_OUTSIDE
100
AcDbLine
 10
13.8976856113
 20
1.262958303
 30
0.0
 11
24.8051659262
 21
2.2172391782
 31
0.0
  0
ARC
  5
2D0
330
1F
100
AcDbEntity
  8
PROFILES_OUTSIDE
100
AcDbCircle
 10
12.1652866169
 20
5.1874983655
 30
0.0
 40
0.2362204724409445
100
AcDbArc
 50
0.0
 51
80.0
  0
ARC
  5
2D1
330
1F
100
AcDbEntity
  8
PROFILES_OUTSIDE
100
AcDbCircle
 10
11.850325987
 20
5.7227635304
 30
0.0
 40
0.2362204724409462
100
AcDbArc
 50
180.0
 51
260.0
  0
ARC
  5
2D2
330
1F
100
AcDbEntity
  8
PROFILES_OUTSIDE
100
AcDbCircle
 10
11.850325987
 20
38.3665029313
 30
0.0
 40
0.2362204724409462
100
AcDbArc
 50
100.0
 51
180.0
  0
ARC
  5
2D3
330
1F
100
AcDbEntity
  8
PROFILES_OUTSIDE
100
AcDbCircle
 10
12.1652866169
 20
38.9017680962
 30
0.0
 40
0.2362204724409445
100
AcDbArc
 50
280.0
 51
0.0
  0
ARC
  5
2D4
330
1F
100
AcDbEntity
  8
PROFILES_INSIDE
100
AcDbCircle
 10
11.8877275618
 20
31.0840805899
 30
0.0
 40
0.2362204724409484
100
AcDbArc
 50
280.0
 51
0.0
  0
ARC
  5
2D5
330
1F
100
AcDbEntity
  8
PROFILES_OUTSIDE
100
AcDbCircle
 10
49.8845779555
 20
10.6782807293
 30
0.0
 40
0.0393700787401574
100
AcDbArc
 50
0.0
 51
90.0
  0
ARC
  5
2D6
330
1F
100
AcDbEntity
  8
PROFILES_INSIDE
100
AcDbCircle
 10
10.9745891186
 20
41.4314330532
 30
0.0
 40
0.0393700787401606
100
AcDbArc
 50
265.0000489546
 51
337.3995434107
  0
ARC
  5
2D7
330
1F
100
AcDbEntity
  8
PROFILES_INSIDE
100
AcDbCircle
 10
11.1988484943
 20
41.3380807881
 30
0.0
 40
0.2035433070866149
100
AcDbArc
 50
330.1121919354
 51
157.3995434107
  0
ARC
  5
2D8
330
1F
100
AcDbEntity
  8
PROFILES_INSIDE
100
AcDbCircle
 10
11.4094562871
 20
41.2170355621
 30
0.0
 40
0.0393714704138553
100
AcDbArc
 50
150.1121919354
 51
175.0
  0
ARC
  5
2D9
330
1F
100
AcDbEntity
  8
PROFILES_INSIDE
100
AcDbCircle
 10
11.3666818975
 20
40.7281380185
 30
0.0
 40
0.0393700787401581
100
AcDbArc
 50
175.0
 51
199.8879035534
  0
ARC
  5
2DA
330
1F
100
AcDbEntity
  8
PROFILES_INSIDE
100
AcDbCircle
 10
11.1382558737
 20
40.6455034936
 30
0.0
 40
0.2035433070866146
100
AcDbArc
 50
192.6004769824
 51
19.8879035534
  0
ARC
  5
2DB
330
1F
100
AcDbEntity
  8
PROFILES_INSIDE
100
AcDbCircle
 10
10.90119307
 20
40.5925116067
 30
0.0
 40
0.0393700787401606
100
AcDbArc
 50
12.6004769824
 51
85.0000489546
  0
ARC
  5
2DC
330
1F
100
AcDbEntity
  8
PROFILES_INSIDE
100
AcDbCircle
 10
10.7426005596
 20
40.6063865169
 30
0.0
 40
0.0393700787401551
100
AcDbArc
 50
85.0000489546
 51
157.3995434107
  0
ARC
  5
2DD
330
1F
100
AcDbEntity
  8
PROFILES_INSIDE
100
AcDbCircle
 10
10.5183411838
 20
40.699738782
 30
0.0
 40
0.2035433070866206
100
AcDbArc
 50
150.1121195006
 51
337.3995434107
  0
ARC
  5
2DE
330
1F
100
AcDbEntity
  8
PROFILES_INSIDE
100
AcDbCircle
 10
10.3077347507
 20
40.8207835808
 30
0.0
 40
0.0393700787401564
100
AcDbArc
 50
330.1121195007
 51
355.0
  0
ARC
  5
2DF
330
1F
100
AcDbEntity
  8
PROFILES_INSIDE
100
AcDbCircle
 10
10.3505078075
 20
41.3096818576
 30
0.0
 40
0.0393700245933007
100
AcDbArc
 50
355.0
 51
19.8878378453
  0
ARC
  5
2E0
330
1F
100
AcDbEntity
  8
PROFILES_INSIDE
100
AcDbCircle
 10
10.5789338044
 20
41.3923160765
 30
0.0
 40
0.203543255459908
100
AcDbArc
 50
12.6004769824
 51
199.8878378453
  0
ARC
  5
2E1
330
1F
100
AcDbEntity
  8
PROFILES_INSIDE
100
AcDbCircle
 10
10.8159966082
 20
41.4453079634
 30
0.0
 40
0.0393701303668615
100
AcDbArc
 50
192.6004769824
 51
265.0000489546
  0
ARC
  5
2E2
330
1F
100
AcDbEntity
  8
PROFILES_INSIDE
100
AcDbCircle
 10
3.62795719
 20
41.8978285183
 30
0.0
 40
0.0393714704138571
100
AcDbArc
 50
150.1121919354
 51
175.0
  0
ARC
  5
2E3
330
1F
100
AcDbEntity
  8
PROFILES_INSIDE
100
AcDbCircle
 10
3.4173493972
 20
42.0188737443
 30
0.0
 40
0.2035433070866141
100
AcDbArc
 50
330.1121919354
 51
157.3995434107
  0
ARC
  5
2E4
330
1F
100
AcDbEntity
  8
PROFILES_INSIDE
100
AcDbCircle
 10
3.1930900215
 20
42.1122260094
 30
0.0
 40
0.0393700787401582
100
AcDbArc
 50
265.0000489546
 51
337.3995434107
  0
ARC
  5
2E5
330
1F
100
AcDbEntity
  8
PROFILES_INSIDE
100
AcDbCircle
 10
3.0344975111
 20
42.1261009197
 30
0.0
 40
0.0393701069001787
100
AcDbArc
 50
192.6004769824
 51
265.0000489546
  0
ARC
  5
2E6
330
1F
100
AcDbEntity
  8
PROFILES_INSIDE
100
AcDbCircle
 10
2.7974347074
 20
42.0731090328
 30
0.0
 40
0.2035432789265975
100
AcDbArc
 50
12.6004769824
 51
199.8878378453
  0
ARC
  5
2E7
330
1F
100
AcDbEntity
  8
PROFILES_INSIDE
100
AcDbCircle
 10
2.5690087104
 20
41.9904748138
 30
0.0
 40
0.0393700198999623
100
AcDbArc
 50
355.0
 51
19.8878378453
  0
ARC
  5
2E8
330
1F
100
AcDbEntity
  8
PROFILES_INSIDE
100
AcDbCircle
 10
2.5262356536
 20
41.5015765371
 30
0.0
 40
0.0393700787401535
100
AcDbArc
 50
330.1121195006
 51
355.0
  0
ARC
  5
2E9
330
1F
100
AcDbEntity
  8
PROFILES_INSIDE
100
AcDbCircle
 10
2.7368420868
 20
41.3805317383
 30
0.0
 40
0.2035433070866168
100
AcDbArc
 50
150.1121195006
 51
337.3995434107
  0
ARC
  5
2EA
330
1F
100
AcDbEntity
  8
PROFILES_INSIDE
100
AcDbCircle
 10
2.9611014625
 20
41.2871794732
 30
0.0
 40
0.0393700787401555
100
AcDbArc
 50
85.0000489546
 51
157.3995434107
  0
ARC
  5
2EB
330
1F
100
AcDbEntity
  8
PROFILES_INSIDE
100
AcDbCircle
 10
3.1196939729
 20
41.2733045629
 30
0.0
 40
0.0393700787401607
100
AcDbArc
 50
12.6004769824
 51
85.0000489546
  0
ARC
  5
2EC
330
1F
100
AcDbEntity
  8
PROFILES_INSIDE
100
AcDbCircle
 10
3.3567567767
 20
41.3262964498
 30
0.0
 40
0.2035433070866172
100
AcDbArc
 50
192.6004769824
 51
19.8879035534
  0
ARC
  5
2ED
330
1F
100
AcDbEntity
  8
PROFILES_INSIDE
100
AcDbCircle
 10
3.5851828004
 20
41.4089309747
 30
0.0
 40
0.0393700787401551
100
AcDbArc
 50
175.0
 51
199.8879035534
  0
ARC
  5
2EE
330
1F
100
AcDbEntity
  8
PROFILES_INSIDE
100
AcDbCircle
 10
11.1988485163
 20
2.7511858948
 30
0.0
 40
0.2035433070866154
100
AcDbArc
 50
202.6004769824
 51
29.8879035534
  0
ARC
  5
2EF
330
1F
100
AcDbEntity
  8
PROFILES_INSIDE
100
AcDbCircle
 10
11.4094549008
 20
2.8722307784
 30
0.0
 40
0.0393700787401588
100
AcDbArc
 50
185.0
 51
209.8879035534
  0
ARC
  5
2F0
330
1F
100
AcDbEntity
  8
PROFILES_INSIDE
100
AcDbCircle
 10
11.3666832838
 20
3.3611285645
 30
0.0
 40
0.0393714704138586
100
AcDbArc
 50
160.1121919354
 51
185.0
  0
ARC
  5
2F1
330
1F
100
AcDbEntity
  8
PROFILES_INSIDE
100
AcDbCircle
 10
11.1382558137
 20
3.4437631822
 30
0.0
 40
0.2035433070866152
100
AcDbArc
 50
340.1121919354
 51
167.3995434107
  0
ARC
  5
2F2
330
1F
100
AcDbEntity
  8
PROFILES_INSIDE
100
AcDbCircle
 10
10.9011929911
 20
3.4967549847
 30
0.0
 40
0.039370078740156
100
AcDbArc
 50
275.0000489546
 51
347.3995434107
  0
ARC
  5
2F3
330
1F
100
AcDbEntity
  8
PROFILES_INSIDE
100
AcDbCircle
 10
10.7426005044
 20
3.4828798034
 30
0.0
 40
0.0393701022068463
100
AcDbArc
 50
202.6004769824
 51
275.0000489546
  0
ARC
  5
2F4
330
1F
100
AcDbEntity
  8
PROFILES_INSIDE
100
AcDbCircle
 10
10.5183411619
 20
3.3895274585
 30
0.0
 40
0.2035432836199282
100
AcDbArc
 50
22.6004769824
 51
209.8878378453
  0
ARC
  5
2F5
330
1F
100
AcDbEntity
  8
PROFILES_INSIDE
100
AcDbCircle
 10
10.3077347507
 20
3.2684828809
 30
0.0
 40
0.0393700152066246
100
AcDbArc
 50
5.0
 51
29.8878378453
  0
ARC
  5
2F6
330
1F
100
AcDbEntity
  8
PROFILES_INSIDE
100
AcDbCircle
 10
10.3505078075
 20
2.7795846042
 30
0.0
 40
0.0393700787401588
100
AcDbArc
 50
340.1121195006
 51
5.0
  0
ARC
  5
2F7
330
1F
100
AcDbEntity
  8
PROFILES_INSIDE
100
AcDbCircle
 10
10.5789338645
 20
2.6969501712
 30
0.0
 40
0.2035433070866141
100
AcDbArc
 50
160.1121195006
 51
347.3995434107
  0
ARC
  5
2F8
330
1F
100
AcDbEntity
  8
PROFILES_INSIDE
100
AcDbCircle
 10
10.8159966871
 20
2.6439583687
 30
0.0
 40
0.0393700787401593
100
AcDbArc
 50
95.0000489546
 51
167.3995434107
  0
ARC
  5
2F9
330
1F
100
AcDbEntity
  8
PROFILES_INSIDE
100
AcDbCircle
 10
10.9745891737
 20
2.6578335499
 30
0.0
 40
0.0393700787401576
100
AcDbArc
 50
22.6004769824
 51
95.0000489546
  0
ARC
  5
2FA
330
1F
100
AcDbEntity
  8
PROFILES_INSIDE
100
AcDbCircle
 10
2.5690087104
 20
2.0987916479
 30
0.0
 40
0.0393700787401579
100
AcDbArc
 50
340.1121195006
 51
5.0
  0
ARC
  5
2FB
330
1F
100
AcDbEntity
  8
PROFILES_INSIDE
100
AcDbCircle
 10
2.7974347674
 20
2.0161572149
 30
0.0
 40
0.2035433070866176
100
AcDbArc
 50
160.1121195006
 51
347.3995434107
  0
ARC
  5
2FC
330
1F
100
AcDbEntity
  8
PROFILES_INSIDE
100
AcDbCircle
 10
3.03449759
 20
1.9631654124
 30
0.0
 40
0.0393700787401558
100
AcDbArc
 50
95.0000489546
 51
167.3995434107
  0
ARC
  5
2FD
330
1F
100
AcDbEntity
  8
PROFILES_INSIDE
100
AcDbCircle
 10
3.1930900767
 20
1.9770405937
 30
0.0
 40
0.0393700787401572
100
AcDbArc
 50
22.6004769824
 51
95.0000489546
  0
ARC
  5
2FE
330
1F
100
AcDbEntity
  8
PROFILES_INSIDE
100
AcDbCircle
 10
3.4173494192
 20
2.0703929386
 30
0.0
 40
0.2035433070866149
100
AcDbArc
 50
202.6004769824
 51
29.8879035534
  0
ARC
  5
2FF
330
1F
100
AcDbEntity
  8
PROFILES_INSIDE
100
AcDbCircle
 10
3.6279558037
 20
2.1914378221
 30
0.0
 40
0.039370078740156
100
AcDbArc
 50
185.0
 51
209.8879035534
  0
ARC
  5
300
330
1F
100
AcDbEntity
  8
PROFILES_INSIDE
100
AcDbCircle
 10
3.5851841867
 20
2.6803356083
 30
0.0
 40
0.0393714704138548
100
AcDbArc
 50
160.1121919354
 51
185.0
  0
ARC
  5
301
330
1F
100
AcDbEntity
  8
PROFILES_INSIDE
100
AcDbCircle
 10
3.3567567166
 20
2.7629702259
 30
0.0
 40
0.2035433070866167
100
AcDbArc
 50
340.1121919354
 51
167.3995434107
  0
ARC
  5
302
330
1F
100
AcDbEntity
  8
PROFILES_INSIDE
100
AcDbCircle
 10
3.119693894
 20
2.8159620284
 30
0.0
 40
0.0393700787401567
100
AcDbArc
 50
275.0000489546
 51
347.3995434107
  0
ARC
  5
303
330
1F
100
AcDbEntity
  8
PROFILES_INSIDE
100
AcDbCircle
 10
2.9611014073
 20
2.8020868472
 30
0.0
 40
0.0393700834334927
100
AcDbArc
 50
202.6004769824
 51
275.0000489546
  0
ARC
  5
304
330
1F
100
AcDbEntity
  8
PROFILES_INSIDE
100
AcDbCircle
 10
2.7368420648
 20
2.7087345023
 30
0.0
 40
0.2035433023932769
100
AcDbArc
 50
22.6004769824
 51
209.8878378453
  0
ARC
  5
305
330
1F
100
AcDbEntity
  8
PROFILES_INSIDE
100
AcDbCircle
 10
2.5262356536
 20
2.5876899247
 30
0.0
 40
0.0393700245933019
100
AcDbArc
 50
5.0
 51
29.8878378453
  0
ARC
  5
306
330
1F
100
AcDbEntity
  8
PROFILES_INSIDE
100
AcDbCircle
 10
23.5938804572
 20
41.4314330532
 30
0.0
 40
0.0393700787401578
100
AcDbArc
 50
265.0000489546
 51
337.3995434107
  0
ARC
  5
307
330
1F
100
AcDbEntity
  8
PROFILES_INSIDE
100
AcDbCircle
 10
23.8181398329
 20
41.3380807881
 30
0.0
 40
0.2035433070866153
100
AcDbArc
 50
330.1121919354
 51
157.3995434107
  0
ARC
  5
308
330
1F
100
AcDbEntity
  8
PROFILES_INSIDE
100
AcDbCircle
 10
24.0287476257
 20
41.2170355621
 30
0.0
 40
0.0393714704138547
100
AcDbArc
 50
150.1121919354
 51
175.0
  0
ARC
  5
309
330
1F
100
AcDbEntity
  8
PROFILES_INSIDE
100
AcDbCircle
 10
23.985973236
 20
40.7281380185
 30
0.0
 40
0.0393700787401588
100
AcDbArc
 50
175.0
 51
199.8879035534
  0
ARC
  5
30A
330
1F
100
AcDbEntity
  8
PROFILES_INSIDE
100
AcDbCircle
 10
23.7575472123
 20
40.6455034936
 30
0.0
 40
0.2035433070866176
100
AcDbArc
 50
192.6004769824
 51
19.8879035534
  0
ARC
  5
30B
330
1F
100
AcDbEntity
  8
PROFILES_INSIDE
100
AcDbCircle
 10
23.5204844085
 20
40.5925116067
 30
0.0
 40
0.0393700787401601
100
AcDbArc
 50
12.6004769824
 51
85.0000489546
  0
ARC
  5
30C
330
1F
100
AcDbEntity
  8
PROFILES_INSIDE
100
AcDbCircle
 10
23.3618918982
 20
40.6063865169
 30
0.0
 40
0.039370078740154
100
AcDbArc
 50
85.0000489546
 51
157.3995434107
  0
ARC
  5
30D
330
1F
100
AcDbEntity
  8
PROFILES_INSIDE
100
AcDbCircle
 10
23.1376325224
 20
40.699738782
 30
0.0
 40
0.2035433070866159
100
AcDbArc
 50
150.1121195006
 51
337.3995434107
  0
ARC
  5
30E
330
1F
100
AcDbEntity
  8
PROFILES_INSIDE
100
AcDbCircle
 10
22.9270260892
 20
40.8207835808
 30
0.0
 40
0.0393700787401629
100
AcDbArc
 50
330.1121195006
 51
355.0
  0
ARC
  5
30F
330
1F
100
AcDbEntity
  8
PROFILES_INSIDE
100
AcDbCircle
 10
22.9697991461
 20
41.3096818576
 30
0.0
 40
0.0393700245933007
100
AcDbArc
 50
355.0
 51
19.8878378453
  0
ARC
  5
310
330
1F
100
AcDbEntity
  8
PROFILES_INSIDE
100
AcDbCircle
 10
23.198225143
 20
41.3923160765
 30
0.0
 40
0.2035432554599132
100
AcDbArc
 50
12.6004769824
 51
199.8878378453
  0
ARC
  5
311
330
1F
100
AcDbEntity
  8
PROFILES_INSIDE
100
AcDbCircle
 10
23.4352879468
 20
41.4453079634
 30
0.0
 40
0.0393701303668607
100
AcDbArc
 50
192.6004769824
 51
265.0000489546
  0
ARC
  5
312
330
1F
100
AcDbEntity
  8
PROFILES_INSIDE
100
AcDbCircle
 10
16.2529197788
 20
41.8973323482
 30
0.0
 40
0.0393714704138613
100
AcDbArc
 50
150.1121919354
 51
175.0
  0
ARC
  5
313
330
1F
100
AcDbEntity
  8
PROFILES_INSIDE
100
AcDbCircle
 10
16.042311986
 20
42.0183775742
 30
0.0
 40
0.2035433070866159
100
AcDbArc
 50
330.1121919354
 51
157.3995434107
  0
ARC
  5
314
330
1F
100
AcDbEntity
  8
PROFILES_INSIDE
100
AcDbCircle
 10
15.8180526102
 20
42.1117298393
 30
0.0
 40
0.0393700787401606
100
AcDbArc
 50
265.0000489546
 51
337.3995434107
  0
ARC
  5
315
330
1F
100
AcDbEntity
  8
PROFILES_INSIDE
100
AcDbCircle
 10
15.6594600999
 20
42.1256047496
 30
0.0
 40
0.039370106900178
100
AcDbArc
 50
192.6004769824
 51
265.0000489546
  0
ARC
  5
316
330
1F
100
AcDbEntity
  8
PROFILES_INSIDE
100
AcDbCircle
 10
15.4223972961
 20
42.0726128627
 30
0.0
 40
0.2035432789265932
100
AcDbArc
 50
12.6004769824
 51
199.8878378453
  0
ARC
  5
317
330
1F
100
AcDbEntity
  8
PROFILES_INSIDE
100
AcDbCircle
 10
15.1939712991
 20
41.9899786437
 30
0.0
 40
0.0393700198999675
100
AcDbArc
 50
355.0
 51
19.8878378453
  0
ARC
  5
318
330
1F
100
AcDbEntity
  8
PROFILES_INSIDE
100
AcDbCircle
 10
15.1511982423
 20
41.501080367
 30
0.0
 40
0.0393700787401597
100
AcDbArc
 50
330.1121195006
 51
355.0
  0
ARC
  5
319
330
1F
100
AcDbEntity
  8
PROFILES_INSIDE
100
AcDbCircle
 10
15.3618046755
 20
41.3800355682
 30
0.0
 40
0.203543307086617
100
AcDbArc
 50
150.1121195006
 51
337.3995434107
  0
ARC
  5
31A
330
1F
100
AcDbEntity
  8
PROFILES_INSIDE
100
AcDbCircle
 10
15.5860640512
 20
41.2866833031
 30
0.0
 40
0.0393700787401545
100
AcDbArc
 50
85.0000489546
 51
157.3995434107
  0
ARC
  5
31B
330
1F
100
AcDbEntity
  8
PROFILES_INSIDE
100
AcDbCircle
 10
15.7446565616
 20
41.2728083928
 30
0.0
 40
0.0393700787401611
100
AcDbArc
 50
12.6004769824
 51
85.0000489546
  0
ARC
  5
31C
330
1F
100
AcDbEntity
  8
PROFILES_INSIDE
100
AcDbCircle
 10
15.9817193654
 20
41.3258002797
 30
0.0
 40
0.2035433070866143
100
AcDbArc
 50
192.6004769824
 51
19.8879035534
  0
ARC
  5
31D
330
1F
100
AcDbEntity
  8
PROFILES_INSIDE
100
AcDbCircle
 10
16.2101453891
 20
41.4084348046
 30
0.0
 40
0.039370078740159
100
AcDbArc
 50
175.0
 51
199.8879035534
  0
ARC
  5
31E
330
1F
100
AcDbEntity
  8
PROFILES_INSIDE
100
AcDbCircle
 10
23.8181398549
 20
2.7511858948
 30
0.0
 40
0.2035433070866163
100
AcDbArc
 50
202.6004769824
 51
29.8879035534
  0
ARC
  5
31F
330
1F
100
AcDbEntity
  8
PROFILES_INSIDE
100
AcDbCircle
 10
24.0287462393
 20
2.8722307784
 30
0.0
 40
0.0393700787401606
100
AcDbArc
 50
185.0
 51
209.8879035534
  0
ARC
  5
320
330
1F
100
AcDbEntity
  8
PROFILES_INSIDE
100
AcDbCircle
 10
23.9859746224
 20
3.3611285645
 30
0.0
 40
0.0393714704138574
100
AcDbArc
 50
160.1121919354
 51
185.0
  0
ARC
  5
321
330
1F
100
AcDbEntity
  8
PROFILES_INSIDE
100
AcDbCircle
 10
23.7575471523
 20
3.4437631822
 30
0.0
 40
0.2035433070866146
100
AcDbArc
 50
340.1121919354
 51
167.3995434107
  0
ARC
  5
322
330
1F
100
AcDbEntity
  8
PROFILES_INSIDE
100
AcDbCircle
 10
23.5204843297
 20
3.4967549847
 30
0.0
 40
0.0393700787401573
100
AcDbArc
 50
275.0000489546
 51
347.3995434107
  0
ARC
  5
323
330
1F
100
AcDbEntity
  8
PROFILES_INSIDE
100
AcDbCircle
 10
23.361891843
 20
3.4828798034
 30
0.0
 40
0.0393701022068438
100
AcDbArc
 50
202.6004769824
 51
275.0000489546
  0
ARC
  5
324
330
1F
100
AcDbEntity
  8
PROFILES_INSIDE
100
AcDbCircle
 10
23.1376325005
 20
3.3895274585
 30
0.0
 40
0.2035432836199284
100
AcDbArc
 50
22.6004769824
 51
209.8878378453
  0
ARC
  5
325
330
1F
100
AcDbEntity
  8
PROFILES_INSIDE
100
AcDbCircle
 10
22.9270260892
 20
3.2684828809
 30
0.0
 40
0.0393700152066263
100
AcDbArc
 50
5.0
 51
29.8878378453
  0
ARC
  5
326
330
1F
100
AcDbEntity
  8
PROFILES_INSIDE
100
AcDbCircle
 10
22.9697991461
 20
2.7795846042
 30
0.0
 40
0.039370078740157
100
AcDbArc
 50
340.1121195006
 51
5.0
  0
ARC
  5
327
330
1F
100
AcDbEntity
  8
PROFILES_INSIDE
100
AcDbCircle
 10
23.198225203
 20
2.6969501712
 30
0.0
 40
0.2035433070866141
100
AcDbArc
 50
160.1121195006
 51
347.3995434107
  0
ARC
  5
328
330
1F
100
AcDbEntity
  8
PROFILES_INSIDE
100
AcDbCircle
 10
23.4352880257
 20
2.6439583687
 30
0.0
 40
0.0393700787401551
100
AcDbArc
 50
95.0000489546
 51
167.3995434107
  0
ARC
  5
329
330
1F
100
AcDbEntity
  8
PROFILES_INSIDE
100
AcDbCircle
 10
23.5938805123
 20
2.6578335499
 30
0.0
 40
0.0393700787401579
100
AcDbArc
 50
22.6004769824
 51
95.0000489546
  0
ARC
  5
32A
330
1F
100
AcDbEntity
  8
PROFILES_INSIDE
100
AcDbCircle
 10
15.1939712991
 20
2.099287818
 30
0.0
 40
0.0393700787401594
100
AcDbArc
 50
340.1121195006
 51
5.0
  0
ARC
  5
32B
330
1F
100
AcDbEntity
  8
PROFILES_INSIDE
100
AcDbCircle
 10
15.4223973561
 20
2.016653385
 30
0.0
 40
0.2035433070866126
100
AcDbArc
 50
160.1121195006
 51
347.3995434107
  0
ARC
  5
32C
330
1F
100
AcDbEntity
  8
PROFILES_INSIDE
100
AcDbCircle
 10
15.6594601787
 20
1.9636615825
 30
0.0
 40
0.0393700787401609
100
AcDbArc
 50
95.0000489546
 51
167.3995434107
  0
ARC
  5
32D
330
1F
100
AcDbEntity
  8
PROFILES_INSIDE
100
AcDbCircle
 10
15.8180526654
 20
1.9775367638
 30
0.0
 40
0.0393700787401576
100
AcDbArc
 50
22.6004769824
 51
95.0000489546
  0
ARC
  5
32E
330
1F
100
AcDbEntity
  8
PROFILES_INSIDE
100
AcDbCircle
 10
16.0423120079
 20
2.0708891087
 30
0.0
 40
0.2035433070866159
100
AcDbArc
 50
202.6004769824
 51
29.8879035534
  0
ARC
  5
32F
330
1F
100
AcDbEntity
  8
PROFILES_INSIDE
100
AcDbCircle
 10
16.2529183924
 20
2.1919339922
 30
0.0
 40
0.0393700787401553
100
AcDbArc
 50
185.0
 51
209.8879035534
  0
ARC
  5
330
330
1F
100
AcDbEntity
  8
PROFILES_INSIDE
100
AcDbCircle
 10
16.2101467755
 20
2.6808317784
 30
0.0
 40
0.0393714704138609
100
AcDbArc
 50
160.1121919354
 51
185.0
  0
ARC
  5
331
330
1F
100
AcDbEntity
  8
PROFILES_INSIDE
100
AcDbCircle
 10
15.9817193054
 20
2.763466396
 30
0.0
 40
0.2035433070866175
100
AcDbArc
 50
340.1121919354
 51
167.3995434107
  0
ARC
  5
332
330
1F
100
AcDbEntity
  8
PROFILES_INSIDE
100
AcDbCircle
 10
15.7446564827
 20
2.8164581985
 30
0.0
 40
0.0393700787401578
100
AcDbArc
 50
275.0000489546
 51
347.3995434107
  0
ARC
  5
333
330
1F
100
AcDbEntity
  8
PROFILES_INSIDE
100
AcDbCircle
 10
15.5860639961
 20
2.8025830173
 30
0.0
 40
0.0393700834334932
100
AcDbArc
 50
202.6004769824
 51
275.0000489546
  0
ARC
  5
334
330
1F
100
AcDbEntity
  8
PROFILES_INSIDE
100
AcDbCircle
 10
15.3618046535
 20
2.7092306724
 30
0.0
 40
0.2035433023932775
100
AcDbArc
 50
22.6004769824
 51
209.8878378453
  0
ARC
  5
335
330
1F
100
AcDbEntity
  8
PROFILES_INSIDE
100
AcDbCircle
 10
15.1511982423
 20
2.5881860948
 30
0.0
 40
0.0393700245933011
100
AcDbArc
 50
5.0
 51
29.8878378453
  0
ARC
  5
336
330
1F
100
AcDbEntity
  8
PROFILES_OUTSIDE
100
AcDbCircle
 10
13.8770976405
 20
42.5909865765
 30
0.0
 40
0.2362204724409462
100
AcDbArc
 50
85.0
 51
180.0
  0
ARC
  5
337
330
1F
100
AcDbEntity
  8
PROFILES_OUTSIDE
100
AcDbCircle
 10
24.7845779555
 20
41.6367057013
 30
0.0
 40
0.2362204724409462
100
AcDbArc
 50
0.0
 51
85.0
  0
ARC
  5
338
330
1F
100
AcDbEntity
  8
PROFILES_OUTSIDE
100
AcDbCircle
 10
24.7845779555
 20
38.9017680962
 30
0.0
 40
0.2362204724409445
100
AcDbArc
 50
280.0
 51
0.0
  0
ARC
  5
339
330
1F
100
AcDbEntity
  8
PROFILES_OUTSIDE
100
AcDbCircle
 10
24.4696173256
 20
38.3665029313
 30
0.0
 40
0.2362204724409449
100
AcDbArc
 50
100.0
 51
180.0
  0
ARC
  5
33A
330
1F
100
AcDbEntity
  8
PROFILES_OUTSIDE
100
AcDbCircle
 10
24.4696173256
 20
5.7227635304
 30
0.0
 40
0.2362204724409445
100
AcDbArc
 50
180.0
 51
260.0
  0
ARC
  5
33B
330
1F
100
AcDbEntity
  8
PROFILES_OUTSIDE
100
AcDbCircle
 10
24.7845779555
 20
5.1874983655
 30
0.0
 40
0.2362204724409449
100
AcDbArc
 50
0.0
 51
80.0
  0
ARC
  5
33C
330
1F
100
AcDbEntity
  8
PROFILES_OUTSIDE
100
AcDbCircle
 10
24.7845779555
 20
2.4525607605
 30
0.0
 40
0.2362204724409428
100
AcDbArc
 50
275.0
 51
0.0
  0
ARC
  5
33D
330
1F
100
AcDbEntity
  8
PROFILES_OUTSIDE
100
AcDbCircle
 10
13.8770976405
 20
1.4982798853
 30
0.0
 40
0.2362204724409476
100
AcDbArc
 50
180.0
 51
275.0
  0
ARC
  5
33E
330
1F
100
AcDbEntity
  8
PROFILES_OUTSIDE
100
AcDbCircle
 10
47.6217826799
 20
9.5070208868
 30
0.0
 40
0.4724409448818907
100
AcDbArc
 50
90.0
 51
180.0
  0
ARC
  5
33F
330
1F
100
AcDbEntity
  8
PROFILES_OUTSIDE
100
AcDbCircle
 10
47.6217826799
 20
2.640679617
 30
0.0
 40
0.472440944881892
100
AcDbArc
 50
180.0
 51
270.0
  0
ARC
  5
340
330
1F
100
AcDbEntity
  8
PROFILES_OUTSIDE
100
AcDbCircle
 10
49.8845779555
 20
1.4694197745
 30
0.0
 40
0.0393700787401574
100
AcDbArc
 50
270.0
 51
0.0
  0
ARC
  5
341
330
1F
100
AcDbEntity
  8
PROFILES_OUTSIDE
100
AcDbCircle
 10
42.3077293692
 20
10.5109578946
 30
0.0
 40
0.039370078740159
100
AcDbArc
 50
183.6619355755
 51
270.0
  0
ARC
  5
342
330
1F
100
AcDbEntity
  8
PROFILES_OUTSIDE
100
AcDbCircle
 10
42.8978740821
 20
10.4322177371
 30
0.0
 40
0.0393700787401574
100
AcDbArc
 50
65.1121079736
 51
90.0
  0
ARC
  5
343
330
1F
100
AcDbEntity
  8
PROFILES_OUTSIDE
100
AcDbCircle
 10
43.0001027532
 20
10.652572478
 30
0.0
 40
0.2035433070866158
100
AcDbArc
 50
245.1121079736
 51
72.3995332141
  0
ARC
  5
344
330
1F
100
AcDbEntity
  8
PROFILES_OUTSIDE
100
AcDbCircle
 10
43.0735543335
 20
10.8841146521
 30
0.0
 40
0.0393700787401627
100
AcDbArc
 50
180.0
 51
252.3995332141
  0
ARC
  5
345
330
1F
100
AcDbEntity
  8
PROFILES_OUTSIDE
100
AcDbCircle
 10
44.7270976405
 20
10.4913515954
 30
0.0
 40
0.4724409448818907
100
AcDbArc
 50
0.0
 51
90.0
  0
ARC
  5
346
330
1F
100
AcDbEntity
  8
PROFILES_OUTSIDE
100
AcDbCircle
 10
45.6719795303
 20
8.0187916446
 30
0.0
 40
0.472440944881896
100
AcDbArc
 50
180.0
 51
270.0
  0
ARC
  5
347
330
1F
100
AcDbEntity
  8
PROFILES_OUTSIDE
100
AcDbCircle
 10
46.3019007901
 20
8.0187916446
 30
0.0
 40
0.4724409448818898
100
AcDbArc
 50
270.0
 51
0.0
  0
ARC
  5
348
330
1F
100
AcDbEntity
  8
PROFILES_OUTSIDE
100
AcDbCircle
 10
47.2467826799
 20
10.4913515954
 30
0.0
 40
0.4724409448818907
100
AcDbArc
 50
90.0
 51
180.0
  0
ARC
  5
349
330
1F
100
AcDbEntity
  8
PROFILES_OUTSIDE
100
AcDbCircle
 10
48.900325987
 20
10.8841146521
 30
0.0
 40
0.0393700787401569
100
AcDbArc
 50
287.6004667859
 51
0.0
  0
ARC
  5
34A
330
1F
100
AcDbEntity
  8
PROFILES_OUTSIDE
100
AcDbCircle
 10
48.9737775673
 20
10.652572478
 30
0.0
 40
0.2035433070866158
100
AcDbArc
 50
107.6004667859
 51
294.8878920264
  0
ARC
  5
34B
330
1F
100
AcDbEntity
  8
PROFILES_OUTSIDE
100
AcDbCircle
 10
49.0760062383
 20
10.4322177371
 30
0.0
 40
0.0393700787401562
100
AcDbArc
 50
90.0
 51
114.8878920264
  0
ARC
  5
34C
330
1F
100
AcDbEntity
  8
PROFILES_OUTSIDE
100
AcDbCircle
 10
49.6661509513
 20
10.5109578946
 30
0.0
 40
0.0393700787401589
100
AcDbArc
 50
270.0
 51
356.3380644245
  0
ARC
  5
34D
330
1F
100
AcDbEntity
  8
PROFILES_OUTSIDE
100
AcDbCircle
 10
49.6877275618
 20
10.2156823041
 30
0.0
 40
0.2362204724409445
100
AcDbArc
 50
270.0
 51
0.0
  0
ARC
  5
34E
330
1F
100
AcDbEntity
  8
PROFILES_OUTSIDE
100
AcDbCircle
 10
42.0893023649
 20
1.4694197745
 30
0.0
 40
0.0393700787401627
100
AcDbArc
 50
180.0
 51
270.0
  0
ARC
  5
34F
330
1F
100
AcDbEntity
  8
PROFILES_OUTSIDE
100
AcDbCircle
 10
46.774341735
 20
7.5463506997
 30
0.0
 40
0.375
100
AcDbArc
 50
300.0
 51
0.0
  0
ARC
  5
350
330
1F
100
AcDbEntity
  8
PROFILES_OUTSIDE
100
AcDbCircle
 10
47.149341735
 20
6.8968316469
 30
0.0
 40
0.375
100
AcDbArc
 50
120.0
 51
180.0
  0
ARC
  5
351
330
1F
100
AcDbEntity
  8
PROFILES_OUTSIDE
100
AcDbCircle
 10
47.149341735
 20
5.2508688569
 30
0.0
 40
0.375
100
AcDbArc
 50
180.0
 51
240.0
  0
ARC
  5
352
330
1F
100
AcDbEntity
  8
PROFILES_OUTSIDE
100
AcDbCircle
 10
46.774341735
 20
4.6013498041
 30
0.0
 40
0.375
100
AcDbArc
 50
0.0
 51
60.0
  0
ARC
  5
353
330
1F
100
AcDbEntity
  8
PROFILES_OUTSIDE
100
AcDbCircle
 10
49.6877275618
 20
1.9320181997
 30
0.0
 40
0.236220472440948
100
AcDbArc
 50
0.0
 51
90.0
  0
ARC
  5
354
330
1F
100
AcDbEntity
  8
PROFILES_OUTSIDE
100
AcDbCircle
 10
44.3520976405
 20
2.640679617
 30
0.0
 40
0.4724409448818898
100
AcDbArc
 50
270.0
 51
0.0
  0
ARC
  5
355
330
1F
100
AcDbEntity
  8
PROFILES_OUTSIDE
100
AcDbCircle
 10
49.6661509513
 20
1.6367426092
 30
0.0
 40
0.039370078740159
100
AcDbArc
 50
3.6619355755
 51
90.0
  0
ARC
  5
356
330
1F
100
AcDbEntity
  8
PROFILES_OUTSIDE
100
AcDbCircle
 10
49.0760062383
 20
1.7154827666
 30
0.0
 40
0.0393700787401574
100
AcDbArc
 50
245.1121079736
 51
270.0
  0
ARC
  5
357
330
1F
100
AcDbEntity
  8
PROFILES_OUTSIDE
100
AcDbCircle
 10
48.9737775673
 20
1.4951280257
 30
0.0
 40
0.203543307086614
100
AcDbArc
 50
65.1121079736
 51
252.3995332141
  0
ARC
  5
358
330
1F
100
AcDbEntity
  8
PROFILES_OUTSIDE
100
AcDbCircle
 10
48.900325987
 20
1.2635858517
 30
0.0
 40
0.0393700787401603
100
AcDbArc
 50
0.0
 51
72.3995332141
  0
ARC
  5
359
330
1F
100
AcDbEntity
  8
PROFILES_OUTSIDE
100
AcDbCircle
 10
47.2467826799
 20
1.6563489084
 30
0.0
 40
0.4724409448818903
100
AcDbArc
 50
180.0
 51
270.0
  0
ARC
  5
35A
330
1F
100
AcDbEntity
  8
PROFILES_OUTSIDE
100
AcDbCircle
 10
46.3019007901
 20
4.1289088592
 30
0.0
 40
0.4724409448818898
100
AcDbArc
 50
0.0
 51
90.0
  0
ARC
  5
35B
330
1F
100
AcDbEntity
  8
PROFILES_OUTSIDE
100
AcDbCircle
 10
45.6719795303
 20
4.1289088592
 30
0.0
 40
0.472440944881896
100
AcDbArc
 50
90.0
 51
180.0
  0
ARC
  5
35C
330
1F
100
AcDbEntity
  8
PROFILES_OUTSIDE
100
AcDbCircle
 10
44.7270976405
 20
1.6563489084
 30
0.0
 40
0.4724409448818889
100
AcDbArc
 50
270.0
 51
0.0
  0
ARC
  5
35D
330
1F
100
AcDbEntity
  8
PROFILES_OUTSIDE
100
AcDbCircle
 10
43.0735543335
 20
1.2635858517
 30
0.0
 40
0.0393700787401584
100
AcDbArc
 50
107.6004667859
 51
180.0
  0
ARC
  5
35E
330
1F
100
AcDbEntity
  8
PROFILES_OUTSIDE
100
AcDbCircle
 10
43.0001027532
 20
1.4951280257
 30
0.0
 40
0.203543307086617
100
AcDbArc
 50
287.6004667859
 51
114.8878920264
  0
ARC
  5
35F
330
1F
100
AcDbEntity
  8
PROFILES_OUTSIDE
100
AcDbCircle
 10
42.8978740821
 20
1.7154827666
 30
0.0
 40
0.0393700787401542
100
AcDbArc
 50
270.0
 51
294.8878920264
  0
ARC
  5
360
330
1F
100
AcDbEntity
  8
PROFILES_OUTSIDE
100
AcDbCircle
 10
42.3077293692
 20
1.6367426092
 30
0.0
 40
0.0393700787401619
100
AcDbArc
 50
90.0
 51
176.3380644245
  0
ARC
  5
361
330
1F
100
AcDbEntity
  8
PROFILES_OUTSIDE
100
AcDbCircle
 10
42.2861527586
 20
1.9320181997
 30
0.0
 40
0.236220472440948
100
AcDbArc
 50
90.0
 51
180.0
  0
ARC
  5
362
330
1F
100
AcDbEntity
  8
PROFILES_OUTSIDE
100
AcDbCircle
 10
44.3520976405
 20
9.5070208868
 30
0.0
 40
0.4724409448818907
100
AcDbArc
 50
0.0
 51
90.0
  0
ARC
  5
363
330
1F
100
AcDbEntity
  8
PROFILES_OUTSIDE
100
AcDbCircle
 10
45.1995385854
 20
4.6013498041
 30
0.0
 40
0.3750000000000008
100
AcDbArc
 50
120.0
 51
180.0
  0
ARC
  5
364
330
1F
100
AcDbEntity
  8
PROFILES_OUTSIDE
100
AcDbCircle
 10
44.8245385854
 20
5.2508688569
 30
0.0
 40
0.3749999999999906
100
AcDbArc
 50
300.0
 51
0.0
  0
ARC
  5
365
330
1F
100
AcDbEntity
  8
PROFILES_OUTSIDE
100
AcDbCircle
 10
44.8245385854
 20
6.8968316469
 30
0.0
 40
0.375
100
AcDbArc
 50
0.0
 51
60.0
  0
ARC
  5
366
330
1F
100
AcDbEntity
  8
PROFILES_OUTSIDE
100
AcDbCircle
 10
45.1995385854
 20
7.5463506997
 30
0.0
 40
0.375
100
AcDbArc
 50
180.0
 51
240.0
  0
ARC
  5
367
330
1F
100
AcDbEntity
  8
PROFILES_OUTSIDE
100
AcDbCircle
 10
42.2861527586
 20
10.2156823041
 30
0.0
 40
0.236220472440948
100
AcDbArc
 50
180.0
 51
270.0
  0
ARC
  5
368
330
1F
100
AcDbEntity
  8
PROFILES_OUTSIDE
100
AcDbCircle
 10
42.0893023649
 20
10.6782807293
 30
0.0
 40
0.0393700787401627
100
AcDbArc
 50
90.0
 51
180.0
  0
ARC
  5
369
330
1F
100
AcDbEntity
  8
PROFILES_OUTSIDE
100
AcDbCircle
 10
42.0893023649
 20
12.4885169497
 30
0.0
 40
0.0393700787401574
100
AcDbArc
 50
180.0
 51
270.0
  0
ARC
  5
36A
330
1F
100
AcDbEntity
  8
PROFILES_OUTSIDE
100
AcDbCircle
 10
44.3520976405
 20
13.6597767923
 30
0.0
 40
0.472440944881896
100
AcDbArc
 50
270.0
 51
0.0
  0
ARC
  5
36B
330
1F
100
AcDbEntity
  8
PROFILES_OUTSIDE
100
AcDbCircle
 10
44.3520976405
 20
20.526118062
 30
0.0
 40
0.472440944881896
100
AcDbArc
 50
0.0
 51
90.0
  0
ARC
  5
36C
330
1F
100
AcDbEntity
  8
PROFILES_OUTSIDE
100
AcDbCircle
 10
42.0893023649
 20
21.6973779045
 30
0.0
 40
0.0393700787401556
100
AcDbArc
 50
90.0
 51
180.0
  0
ARC
  5
36D
330
1F
100
AcDbEntity
  8
PROFILES_OUTSIDE
100
AcDbCircle
 10
49.6661509513
 20
12.6558397844
 30
0.0
 40
0.039370078740159
100
AcDbArc
 50
3.6619355755
 51
90.0
  0
ARC
  5
36E
330
1F
100
AcDbEntity
  8
PROFILES_OUTSIDE
100
AcDbCircle
 10
49.0760062383
 20
12.7345799419
 30
0.0
 40
0.0393700787401579
100
AcDbArc
 50
245.1121079736
 51
270.0
  0
ARC
  5
36F
330
1F
100
AcDbEntity
  8
PROFILES_OUTSIDE
100
AcDbCircle
 10
48.9737775673
 20
12.514225201
 30
0.0
 40
0.2035433070866156
100
AcDbArc
 50
65.1121079736
 51
252.3995332141
  0
ARC
  5
370
330
1F
100
AcDbEntity
  8
PROFILES_OUTSIDE
100
AcDbCircle
 10
48.900325987
 20
12.2826830269
 30
0.0
 40
0.0393700787401569
100
AcDbArc
 50
0.0
 51
72.3995332141
  0
ARC
  5
371
330
1F
100
AcDbEntity
  8
PROFILES_OUTSIDE
100
AcDbCircle
 10
47.2467826799
 20
12.6754460836
 30
0.0
 40
0.4724409448818907
100
AcDbArc
 50
180.0
 51
270.0
  0
ARC
  5
372
330
1F
100
AcDbEntity
  8
PROFILES_OUTSIDE
100
AcDbCircle
 10
46.3019007901
 20
15.1480060344
 30
0.0
 40
0.4724409448818925
100
AcDbArc
 50
0.0
 51
90.0
  0
ARC
  5
373
330
1F
100
AcDbEntity
  8
PROFILES_OUTSIDE
100
AcDbCircle
 10
45.6719795303
 20
15.1480060344
 30
0.0
 40
0.4724409448818907
100
AcDbArc
 50
90.0
 51
180.0
  0
ARC
  5
374
330
1F
100
AcDbEntity
  8
PROFILES_OUTSIDE
100
AcDbCircle
 10
44.7270976405
 20
12.6754460836
 30
0.0
 40
0.472440944881896
100
AcDbArc
 50
270.0
 51
0.0
  0
ARC
  5
375
330
1F
100
AcDbEntity
  8
PROFILES_OUTSIDE
100
AcDbCircle
 10
43.0735543335
 20
12.2826830269
 30
0.0
 40
0.0393700787401627
100
AcDbArc
 50
107.6004667859
 51
180.0
  0
ARC
  5
376
330
1F
100
AcDbEntity
  8
PROFILES_OUTSIDE
100
AcDbCircle
 10
43.0001027532
 20
12.514225201
 30
0.0
 40
0.2035433070866152
100
AcDbArc
 50
287.6004667859
 51
114.8878920264
  0
ARC
  5
377
330
1F
100
AcDbEntity
  8
PROFILES_OUTSIDE
100
AcDbCircle
 10
42.8978740821
 20
12.7345799419
 30
0.0
 40
0.0393700787401592
100
AcDbArc
 50
270.0
 51
294.8878920264
  0
ARC
  5
378
330
1F
100
AcDbEntity
  8
PROFILES_OUTSIDE
100
AcDbCircle
 10
42.3077293692
 20
12.6558397844
 30
0.0
 40
0.0393700787401574
100
AcDbArc
 50
90.0
 51
176.3380644245
  0
ARC
  5
379
330
1F
100
AcDbEntity
  8
PROFILES_OUTSIDE
100
AcDbCircle
 10
42.2861527586
 20
12.9511153749
 30
0.0
 40
0.2362204724409445
100
AcDbArc
 50
90.0
 51
180.0
  0
ARC
  5
37A
330
1F
100
AcDbEntity
  8
PROFILES_OUTSIDE
100
AcDbCircle
 10
49.8845779555
 20
21.6973779045
 30
0.0
 40
0.0393700787401556
100
AcDbArc
 50
0.0
 51
90.0
  0
ARC
  5
37B
330
1F
100
AcDbEntity
  8
PROFILES_OUTSIDE
100
AcDbCircle
 10
45.1995385854
 20
15.6204469793
 30
0.0
 40
0.375
100
AcDbArc
 50
120.0
 51
180.0
  0
ARC
  5
37C
330
1F
100
AcDbEntity
  8
PROFILES_OUTSIDE
100
AcDbCircle
 10
44.8245385854
 20
16.2699660321
 30
0.0
 40
0.3749999999999984
100
AcDbArc
 50
300.0
 51
0.0
  0
ARC
  5
37D
330
1F
100
AcDbEntity
  8
PROFILES_OUTSIDE
100
AcDbCircle
 10
44.8245385854
 20
17.9159288221
 30
0.0
 40
0.375
100
AcDbArc
 50
0.0
 51
60.0
  0
ARC
  5
37E
330
1F
100
AcDbEntity
  8
PROFILES_OUTSIDE
100
AcDbCircle
 10
45.1995385854
 20
18.565447875
 30
0.0
 40
0.375
100
AcDbArc
 50
180.0
 51
240.0
  0
ARC
  5
37F
330
1F
100
AcDbEntity
  8
PROFILES_OUTSIDE
100
AcDbCircle
 10
42.2861527586
 20
21.2347794793
 30
0.0
 40
0.2362204724409516
100
AcDbArc
 50
180.0
 51
270.0
  0
ARC
  5
380
330
1F
100
AcDbEntity
  8
PROFILES_OUTSIDE
100
AcDbCircle
 10
47.6217826799
 20
20.526118062
 30
0.0
 40
0.4724409448818889
100
AcDbArc
 50
90.0
 51
180.0
  0
ARC
  5
381
330
1F
100
AcDbEntity
  8
PROFILES_OUTSIDE
100
AcDbCircle
 10
42.3077293692
 20
21.5300550699
 30
0.0
 40
0.0393700787401592
100
AcDbArc
 50
183.6619355755
 51
270.0
  0
ARC
  5
382
330
1F
100
AcDbEntity
  8
PROFILES_OUTSIDE
100
AcDbCircle
 10
42.8978740821
 20
21.4513149124
 30
0.0
 40
0.0393700787401576
100
AcDbArc
 50
65.1121079736
 51
90.0
  0
ARC
  5
383
330
1F
100
AcDbEntity
  8
PROFILES_OUTSIDE
100
AcDbCircle
 10
43.0001027532
 20
21.6716696533
 30
0.0
 40
0.2035433070866152
100
AcDbArc
 50
245.1121079736
 51
72.3995332141
  0
ARC
  5
384
330
1F
100
AcDbEntity
  8
PROFILES_OUTSIDE
100
AcDbCircle
 10
43.0735543335
 20
21.9032118273
 30
0.0
 40
0.0393700787401627
100
AcDbArc
 50
180.0
 51
252.3995332141
  0
ARC
  5
385
330
1F
100
AcDbEntity
  8
PROFILES_OUTSIDE
100
AcDbCircle
 10
44.7270976405
 20
21.5104487706
 30
0.0
 40
0.472440944881896
100
AcDbArc
 50
0.0
 51
90.0
  0
ARC
  5
386
330
1F
100
AcDbEntity
  8
PROFILES_OUTSIDE
100
AcDbCircle
 10
45.6719795303
 20
19.0378888198
 30
0.0
 40
0.4724409448818889
100
AcDbArc
 50
180.0
 51
270.0
  0
ARC
  5
387
330
1F
100
AcDbEntity
  8
PROFILES_OUTSIDE
100
AcDbCircle
 10
46.3019007901
 20
19.0378888198
 30
0.0
 40
0.4724409448818889
100
AcDbArc
 50
270.0
 51
0.0
  0
ARC
  5
388
330
1F
100
AcDbEntity
  8
PROFILES_OUTSIDE
100
AcDbCircle
 10
47.2467826799
 20
21.5104487706
 30
0.0
 40
0.4724409448818889
100
AcDbArc
 50
90.0
 51
180.0
  0
ARC
  5
389
330
1F
100
AcDbEntity
  8
PROFILES_OUTSIDE
100
AcDbCircle
 10
48.900325987
 20
21.9032118273
 30
0.0
 40
0.0393700787401556
100
AcDbArc
 50
287.6004667859
 51
0.0
  0
ARC
  5
38A
330
1F
100
AcDbEntity
  8
PROFILES_OUTSIDE
100
AcDbCircle
 10
48.9737775673
 20
21.6716696533
 30
0.0
 40
0.2035433070866173
100
AcDbArc
 50
107.6004667859
 51
294.8878920264
  0
ARC
  5
38B
330
1F
100
AcDbEntity
  8
PROFILES_OUTSIDE
100
AcDbCircle
 10
49.0760062383
 20
21.4513149124
 30
0.0
 40
0.0393700787401556
100
AcDbArc
 50
90.0
 51
114.8878920264
  0
ARC
  5
38C
330
1F
100
AcDbEntity
  8
PROFILES_OUTSIDE
100
AcDbCircle
 10
49.6661509513
 20
21.5300550699
 30
0.0
 40
0.0393700787401627
100
AcDbArc
 50
270.0
 51
356.3380644245
  0
ARC
  5
38D
330
1F
100
AcDbEntity
  8
PROFILES_OUTSIDE
100
AcDbCircle
 10
49.6877275618
 20
21.2347794793
 30
0.0
 40
0.2362204724409409
100
AcDbArc
 50
270.0
 51
0.0
  0
ARC
  5
38E
330
1F
100
AcDbEntity
  8
PROFILES_OUTSIDE
100
AcDbCircle
 10
47.6217826799
 20
13.6597767923
 30
0.0
 40
0.4724409448818907
100
AcDbArc
 50
180.0
 51
270.0
  0
ARC
  5
38F
330
1F
100
AcDbEntity
  8
PROFILES_OUTSIDE
100
AcDbCircle
 10
46.774341735
 20
18.565447875
 30
0.0
 40
0.375
100
AcDbArc
 50
300.0
 51
0.0
  0
ARC
  5
390
330
1F
100
AcDbEntity
  8
PROFILES_OUTSIDE
100
AcDbCircle
 10
47.149341735
 20
17.9159288221
 30
0.0
 40
0.375
100
AcDbArc
 50
120.0
 51
180.0
  0
ARC
  5
391
330
1F
100
AcDbEntity
  8
PROFILES_OUTSIDE
100
AcDbCircle
 10
47.149341735
 20
16.2699660321
 30
0.0
 40
0.375
100
AcDbArc
 50
180.0
 51
240.0
  0
ARC
  5
392
330
1F
100
AcDbEntity
  8
PROFILES_OUTSIDE
100
AcDbCircle
 10
46.774341735
 20
15.6204469793
 30
0.0
 40
0.375
100
AcDbArc
 50
0.0
 51
60.0
  0
ARC
  5
393
330
1F
100
AcDbEntity
  8
PROFILES_OUTSIDE
100
AcDbCircle
 10
49.6877275618
 20
12.9511153749
 30
0.0
 40
0.2362204724409445
100
AcDbArc
 50
0.0
 51
90.0
  0
ARC
  5
394
330
1F
100
AcDbEntity
  8
PROFILES_OUTSIDE
100
AcDbCircle
 10
49.8845779555
 20
12.4885169497
 30
0.0
 40
0.0393700787401627
100
AcDbArc
 50
270.0
 51
0.0
  0
ENDSEC
  0
SECTION
  2
OBJECTS
  0
DICTIONARY
  5
C
330
0
100
AcDbDictionary
  3
ACAD_GROUP
350
D
  3
ACAD_MLINESTYLE
350
17
  3
ACAD_SCALELIST
350
47
  0
DICTIONARY
  5
D
102
{ACAD_REACTORS
330
C
102
}
330
C
100
AcDbDictionary
  0
DICTIONARY
  5
17
102
{ACAD_REACTORS
330
C
102
}
330
C
100
AcDbDictionary
  3
STANDARD
350
18
  0
DICTIONARY
  5
47
102
{ACAD_REACTORS
330
C
102
}
330
C
100
AcDbDictionary
  0
MLINESTYLE
  5
18
102
{ACAD_REACTORS
330
17
102
}
330
17
100
AcDbMlineStyle
  2
Standard
 70
     0
  3

 62
   256
 51
90.0
 52
90.0
 71
     2
 49
0.5
 62
   256
  6
BYLAYER
 49
-0.5
 62
   256
  6
BYLAYER
  0
ENDSEC
  0
EOF
